<svg width="610" height="440" viewBox="0 0 610 440" fill="none" xmlns="http://www.w3.org/2000/svg">
<path d="M605.283 313.939C605.283 319.722 605.092 325.461 604.709 331.155C602.803 359.864 596 388.037 584.593 414.458C582.82 418.532 580.958 422.549 579.005 426.509H122.747C117.448 415.832 112.918 404.793 109.191 393.473C106.979 386.788 105.046 379.984 103.391 373.061C98.7809 353.691 96.4613 333.848 96.4796 313.939C96.4637 173.632 210.37 59.8887 350.874 59.8887C362.489 59.8837 374.091 60.6676 385.599 62.2351C388.258 62.6014 390.916 63.0049 393.574 63.4508C396.484 63.9427 399.381 64.4736 402.266 65.0434C438.153 72.4626 472.016 87.5225 501.546 109.196C531.076 130.87 555.577 158.648 573.381 190.635C577.244 197.561 580.788 204.684 584.013 212.003C586.597 217.86 588.952 223.828 591.078 229.909C600.458 256.687 605.269 284.848 605.31 313.217C605.283 313.477 605.283 313.705 605.283 313.939Z" fill="#4A607A"/>
<path d="M605.283 313.939C605.283 319.722 605.092 325.461 604.709 331.155C602.802 359.864 595.999 388.037 584.592 414.459C582.82 418.532 580.958 422.549 579.005 426.509H122.747C117.448 415.833 112.918 404.793 109.19 393.473L254.027 304.087L390.123 316.827L573.364 190.662C577.227 197.588 580.771 204.711 583.997 212.029C586.58 217.887 588.935 223.855 591.062 229.935C600.442 256.714 605.253 284.875 605.294 313.244C605.283 313.478 605.283 313.706 605.283 313.939Z" fill="#1A3554"/>
<path d="M239.88 176.944C242.279 176.944 244.224 175.003 244.224 172.607C244.224 170.212 242.279 168.27 239.88 168.27C237.482 168.27 235.537 170.212 235.537 172.607C235.537 175.003 237.482 176.944 239.88 176.944Z" fill="#2C3149"/>
<path d="M501.308 148.411H217.755C204.724 148.411 194.161 158.959 194.161 171.97V316.583C194.161 329.595 204.724 340.143 217.755 340.143H501.308C514.339 340.143 524.902 329.595 524.902 316.583V171.97C524.902 158.959 514.339 148.411 501.308 148.411Z" fill="#4F6097"/>
<path d="M492.27 139.917H208.717C195.686 139.917 185.123 150.465 185.123 163.476V308.089C185.123 321.101 195.686 331.649 208.717 331.649H492.27C505.301 331.649 515.864 321.101 515.864 308.089V163.476C515.864 150.465 505.301 139.917 492.27 139.917Z" fill="#303072"/>
<path d="M209.461 176.78V296.123H493.275V176.78H209.461ZM492.191 203.296H455.344V177.842H492.212L492.191 203.296ZM363.447 204.358H415.137V232.531H363.468L363.447 204.358ZM362.383 232.531H310.124V204.358H362.405L362.383 232.531ZM416.2 204.358H454.259V232.531H416.221L416.2 204.358ZM416.2 203.296V177.842H454.259V203.296H416.2ZM415.137 203.296H363.468V177.842H415.158L415.137 203.296ZM362.383 203.296H310.124V177.842H362.405L362.383 203.296ZM309.04 203.296H260.338V177.842H309.061L309.04 203.296ZM309.04 204.358V232.531H260.338V204.358H309.04ZM259.274 232.531H210.524V204.358H259.274V232.531ZM259.274 233.593V267.207H210.524V233.593H259.274ZM260.338 233.593H309.061V267.207H260.338V233.593ZM310.124 233.593H362.405V267.207H310.124V233.593ZM363.468 233.593H415.158V267.207H363.468V233.593ZM416.221 233.593H454.28V267.207H416.221V233.593ZM455.344 233.593H492.212V267.207H455.344V233.593ZM455.344 232.531V204.358H492.212V232.531H455.344ZM259.274 177.852V203.307H210.524V177.842L259.274 177.852ZM210.524 295.062V268.269H259.274V294.281H260.338V268.269H309.061V294.281H310.124V268.269H362.405V294.281H363.468V268.269H415.158V294.281H416.221V268.269H454.28V294.281H455.344V268.269H492.212V295.062H210.524Z" fill="white"/>
<path d="M208.701 294.467C208.519 294.465 208.339 294.431 208.169 294.366C207.773 294.22 207.452 293.922 207.276 293.539C207.099 293.156 207.082 292.718 207.228 292.323C212.247 279.641 218.704 267.576 226.473 256.362C233.81 245.92 241.667 237.622 249.838 231.714C260.146 224.255 270.992 220.566 282.012 220.789C283.325 220.789 303.208 220.836 323.867 246.674C332.82 257.87 346.413 264.166 361.129 263.985C380.879 263.725 400.065 252.598 415.169 232.664C444.637 193.709 461.984 180.926 492.478 175.74C492.895 175.669 493.324 175.767 493.668 176.012C494.013 176.257 494.247 176.629 494.317 177.045C494.388 177.462 494.29 177.89 494.044 178.234C493.799 178.579 493.427 178.812 493.01 178.882C463.122 183.979 446.928 195.95 417.678 234.575C409.613 245.23 400.384 253.474 390.246 259.085C380.916 264.245 370.852 267.048 361.14 267.17C345.414 267.377 330.911 260.63 321.342 248.659C301.48 223.825 282.23 223.979 282.002 223.974H281.927C258.392 223.501 240.205 242.294 229.068 258.14C221.444 269.145 215.104 280.982 210.168 293.422C210.058 293.723 209.859 293.985 209.597 294.171C209.335 294.358 209.023 294.461 208.701 294.467Z" fill="#EC685A"/>
<path d="M209.992 297.185C209.717 297.185 209.447 297.113 209.208 296.977C208.969 296.841 208.769 296.646 208.628 296.411C208.487 296.175 208.409 295.907 208.402 295.633C208.395 295.358 208.459 295.087 208.588 294.844C208.849 294.356 215.112 282.746 227.28 271.051C238.407 260.359 256.701 247.719 280.975 247.719H281.974C283.17 247.719 302.968 247.719 323.659 266.703C333.707 275.93 349.066 280.506 365.791 279.237C383.951 277.867 401.526 269.761 415.29 256.41C445.88 226.745 463.19 215.915 492.445 208.128C492.651 208.063 492.867 208.04 493.082 208.061C493.296 208.082 493.504 208.146 493.693 208.249C493.882 208.353 494.048 208.493 494.181 208.662C494.314 208.832 494.412 209.026 494.467 209.234C494.523 209.442 494.536 209.659 494.506 209.872C494.475 210.085 494.401 210.29 494.289 210.473C494.178 210.657 494.029 210.817 493.854 210.942C493.679 211.067 493.48 211.155 493.269 211.201C464.29 218.92 448.001 229.129 417.512 258.692C403.217 272.553 384.934 280.989 366.035 282.401C348.428 283.723 332.197 278.86 321.501 269.039C301.597 250.767 282.208 250.878 282.006 250.894H281.953C258.285 250.549 240.417 262.865 229.577 273.259C222.466 280.057 216.35 287.822 211.411 296.325C211.277 296.585 211.073 296.803 210.823 296.954C210.572 297.106 210.285 297.186 209.992 297.185Z" fill="#00132C"/>
<path d="M284.346 351.199L284.404 351.062C284.388 351.109 284.368 351.155 284.346 351.199Z" fill="#EC685A"/>
<path d="M284.42 351.062C284.532 350.749 284.67 350.415 284.824 350.064C284.627 350.537 284.484 350.877 284.42 351.062Z" fill="#EC685A"/>
<path d="M176.309 411.188V422.337C171.824 421.727 167.449 420.475 163.321 418.621V411.188H176.309Z" fill="#B8A375"/>
<path d="M212.039 411.188V419.231C208.317 421.004 203.878 421.97 199.046 422.453V411.188H212.039Z" fill="#B8A375"/>
<path d="M234.782 385.983V392.104C234.779 394.642 233.794 397.081 232.034 398.913C230.274 400.744 227.874 401.827 225.335 401.935C220.109 412.86 207.01 420.797 191.406 421.577C170.997 420.627 154.82 407.446 154.82 391.318C154.823 389.069 155.142 386.832 155.766 384.671C150.763 383.265 148.254 380.255 147.005 377.393C149.05 378.116 151.183 378.563 153.347 378.721C153.496 378.46 153.65 378.19 153.81 377.967C155.299 378.347 156.818 378.599 158.35 378.721C164.198 368.831 176.654 361.802 191.337 361.101C194.162 361.243 196.969 361.63 199.726 362.258C199.933 361.975 200.166 361.712 200.423 361.473C203.4 358.479 211.305 355.792 211.305 355.792V366.596C219.492 371.108 225.335 377.999 227.169 385.983H234.782Z" fill="#DDD0A4"/>
<path d="M211.295 355.792C211.295 355.792 204.288 359.094 202.874 363.012C202.874 363.012 198.796 361.133 197.069 360.974C195.341 360.814 205.591 353.117 211.295 355.792Z" fill="#B8A375"/>
<path d="M191.386 421.593C190.53 421.641 189.663 421.662 188.786 421.662C167.255 421.662 149.807 408.088 149.807 391.35C149.807 389.089 150.133 386.84 150.775 384.671C139.818 381.592 140.844 370.768 140.844 370.768C141.407 374.282 144.034 376.273 147.027 377.393C148.276 380.255 150.785 383.265 155.788 384.671C155.154 386.841 154.828 389.089 154.82 391.35C154.82 407.461 170.998 420.643 191.386 421.593Z" fill="#B8A375"/>
<path d="M191.386 361.101C176.702 361.802 164.236 368.831 158.398 378.721C156.866 378.599 155.347 378.347 153.858 377.967C160.238 367.939 173.486 361.038 188.834 361.038C189.663 361.038 190.519 361.059 191.386 361.101Z" fill="#B8A375"/>
<path d="M209.18 387.92C211.593 387.92 213.549 385.967 213.549 383.557C213.549 381.147 211.593 379.193 209.18 379.193C206.766 379.193 204.81 381.147 204.81 383.557C204.81 385.967 206.766 387.92 209.18 387.92Z" fill="#2C3149"/>
<path d="M202.794 372.717H175.564C175.467 372.725 175.368 372.713 175.275 372.682C175.183 372.65 175.097 372.6 175.025 372.534C174.953 372.468 174.895 372.387 174.856 372.297C174.816 372.208 174.796 372.111 174.796 372.013C174.796 371.915 174.816 371.819 174.856 371.729C174.895 371.639 174.953 371.559 175.025 371.493C175.097 371.427 175.183 371.376 175.275 371.345C175.368 371.313 175.467 371.301 175.564 371.31H202.794C202.892 371.301 202.99 371.313 203.083 371.345C203.176 371.376 203.261 371.427 203.333 371.493C203.405 371.559 203.463 371.639 203.503 371.729C203.542 371.819 203.562 371.915 203.562 372.013C203.562 372.111 203.542 372.208 203.503 372.297C203.463 372.387 203.405 372.468 203.333 372.534C203.261 372.6 203.176 372.65 203.083 372.682C202.99 372.713 202.892 372.725 202.794 372.717Z" fill="#B8A375"/>
<path d="M188.504 368.395C197.479 368.395 204.756 361.13 204.756 352.167C204.756 343.204 197.479 335.938 188.504 335.938C179.528 335.938 172.252 343.204 172.252 352.167C172.252 361.13 179.528 368.395 188.504 368.395Z" fill="#EFB2A0"/>
<path d="M176.309 422.321V425.777H163.321V418.621C167.45 420.47 171.824 421.716 176.309 422.321Z" fill="#DDD0A4"/>
<path d="M212.039 419.231V425.776H199.046V422.469C203.878 421.97 208.296 421.004 212.039 419.231Z" fill="#DDD0A4"/>
<path d="M188.504 361.186C193.492 361.186 197.536 357.148 197.536 352.167C197.536 347.186 193.492 343.147 188.504 343.147C183.516 343.147 179.472 347.186 179.472 352.167C179.472 357.148 183.516 361.186 188.504 361.186Z" fill="#FDE5CF"/>
<path d="M444.188 315.109C444.14 315.883 444.092 316.598 444.055 317.25C444.023 317.749 443.882 318.236 443.642 318.676C443.401 319.116 443.067 319.5 442.661 319.8C442.256 320.1 441.789 320.309 441.294 320.414C440.798 320.519 440.286 320.516 439.791 320.406L439.109 325.235L438.667 328.423C437.919 333.692 435.269 338.518 431.205 342.013C427.141 345.508 421.935 347.439 416.544 347.449C415.697 347.449 414.85 347.401 414.007 347.307C413.137 347.208 412.274 347.056 411.423 346.855L406.162 384.244L405.63 388.026L399.005 435H305.265L297.127 388.71L296.258 383.787L289.601 345.945C288.335 346.32 287.036 346.583 285.722 346.728C275.755 347.844 262.592 337.644 257.39 327.381C256.971 327.47 256.537 327.467 256.119 327.373C255.702 327.279 255.31 327.096 254.971 326.837C254.632 326.578 254.354 326.249 254.157 325.874C253.96 325.498 253.848 325.085 253.83 324.662L252.231 286.699L252.167 286.01C250.366 269.509 263.402 255.685 277.749 250.34L280.739 249.262C282.444 248.494 284.139 247.81 285.796 247.221L311.825 238C318.455 246.942 333.031 253.128 349.936 253.128C355.02 253.152 360.089 252.578 365.035 251.419C365.893 251.219 366.73 251.003 367.55 250.761C376.387 248.231 383.539 243.849 387.802 238.416L412.67 247.211C414.806 247.983 416.901 248.861 418.948 249.841L421.954 250.93C435.443 255.953 445.403 269.687 444.817 283.774C445.323 293.6 444.668 307.277 444.188 315.109Z" fill="#DDD0A4"/>
<path d="M387.779 238.392C381.027 247.193 366.673 253.256 350.033 253.256C333.165 253.256 318.619 246.997 312.006 237.978L329.948 231.544V199.267H369.331V231.783L387.779 238.392Z" fill="#F7AD83"/>
<path d="M369.598 203.307V213.309C365.292 218.012 358.8 223.278 351.352 223.278C341.964 223.278 334.096 216.653 330.215 212.661V203.918L343.963 203.307H369.598Z" fill="#EC685A"/>
<path d="M379.815 162.309C379.921 163.073 380.022 163.832 380.107 164.602V164.66C380.655 169.431 380.731 174.245 380.336 179.031C380.336 179.031 380.336 179.063 380.336 179.079C379.395 190.168 375.78 200.154 369.533 206.784C365.501 211.159 360.076 214.003 354.18 214.832C337.699 217.2 325.307 204.953 318.891 187.833C317.22 183.371 315.974 178.762 315.169 174.067C315.026 173.266 314.898 172.448 314.781 171.636C311.214 146.834 309.959 128.753 341.144 124.277C346.461 123.513 351.314 127.378 356.615 126.619C368.752 124.877 376.37 143.606 379.368 159.75C379.368 159.819 379.395 159.888 379.411 159.952C379.563 160.73 379.698 161.516 379.815 162.309Z" fill="#F7AD83"/>
<path d="M371.942 161.034L352.532 157.764C352.337 157.732 352.155 157.643 352.011 157.507C351.866 157.372 351.765 157.196 351.721 157.003C351.676 156.81 351.69 156.609 351.761 156.424C351.832 156.239 351.956 156.079 352.118 155.965C355.462 153.65 363.282 150.21 372.825 159.261C372.969 159.419 373.062 159.618 373.092 159.83C373.122 160.042 373.087 160.258 372.991 160.45C372.896 160.641 372.745 160.8 372.557 160.904C372.37 161.009 372.156 161.054 371.942 161.034Z" fill="#FDE5CF"/>
<path d="M335.169 176.721C336.667 176.721 337.881 175.509 337.881 174.014C337.881 172.519 336.667 171.307 335.169 171.307C333.672 171.307 332.458 172.519 332.458 174.014C332.458 175.509 333.672 176.721 335.169 176.721Z" fill="#1A1A1A"/>
<path d="M364.537 172.512C366.034 172.512 367.248 171.3 367.248 169.805C367.248 168.309 366.034 167.097 364.537 167.097C363.039 167.097 361.825 168.309 361.825 169.805C361.825 171.3 363.039 172.512 364.537 172.512Z" fill="#1A1A1A"/>
<path d="M347.854 194.951C346.833 194.958 345.812 194.887 344.802 194.739C344.732 194.727 344.666 194.701 344.606 194.663C344.546 194.625 344.494 194.576 344.453 194.518C344.413 194.46 344.384 194.395 344.368 194.326C344.353 194.257 344.351 194.185 344.364 194.115C344.376 194.046 344.402 193.979 344.44 193.919C344.478 193.86 344.527 193.808 344.585 193.767C344.643 193.727 344.709 193.698 344.778 193.682C344.847 193.667 344.918 193.665 344.988 193.677C345.095 193.677 355.924 195.509 360.145 187.838C360.213 187.716 360.327 187.626 360.461 187.587C360.595 187.549 360.74 187.564 360.863 187.631C360.924 187.664 360.978 187.709 361.023 187.764C361.067 187.818 361.099 187.881 361.119 187.948C361.139 188.015 361.145 188.085 361.138 188.155C361.13 188.224 361.109 188.292 361.075 188.353C357.965 194.033 351.639 194.951 347.854 194.951Z" fill="#1A1A1A"/>
<path d="M351.002 198.301C350.941 198.301 350.883 198.28 350.836 198.242C350.789 198.205 350.755 198.153 350.741 198.094C350.733 198.06 350.732 198.025 350.738 197.99C350.744 197.956 350.757 197.923 350.776 197.893C350.794 197.863 350.819 197.838 350.848 197.818C350.876 197.797 350.909 197.783 350.943 197.776L357.456 196.284C357.489 196.275 357.525 196.274 357.559 196.279C357.594 196.284 357.627 196.296 357.657 196.315C357.687 196.333 357.712 196.357 357.732 196.386C357.753 196.414 357.767 196.446 357.774 196.48C357.79 196.549 357.779 196.62 357.742 196.68C357.705 196.74 357.646 196.783 357.578 196.799L351.06 198.296L351.002 198.301Z" fill="#1A1A1A"/>
<path d="M351.001 184.759C350.316 184.774 349.642 184.58 349.071 184.201C348.751 183.973 348.482 183.681 348.282 183.342C348.083 183.004 347.957 182.627 347.912 182.237L346.025 169.125C346.005 168.986 346.042 168.844 346.126 168.732C346.211 168.619 346.337 168.545 346.477 168.525C346.546 168.515 346.617 168.518 346.685 168.535C346.753 168.552 346.818 168.582 346.874 168.624C346.93 168.666 346.978 168.719 347.014 168.779C347.049 168.84 347.073 168.907 347.083 168.976L348.965 182.083C348.989 182.33 349.065 182.568 349.187 182.783C349.31 182.998 349.477 183.185 349.677 183.331C349.994 183.518 350.346 183.64 350.712 183.688C351.077 183.736 351.448 183.711 351.804 183.612C352.392 183.526 352.932 183.236 353.329 182.795C353.406 182.681 353.524 182.602 353.658 182.574C353.792 182.545 353.932 182.569 354.048 182.641C354.165 182.713 354.249 182.827 354.284 182.96C354.318 183.092 354.3 183.233 354.233 183.352C353.687 184.048 352.896 184.511 352.021 184.647C351.686 184.721 351.344 184.759 351.001 184.759Z" fill="#1A1A1A"/>
<path d="M321.134 168.483L340.273 163.774C340.465 163.728 340.64 163.626 340.775 163.48C340.909 163.335 340.997 163.152 341.026 162.957C341.056 162.761 341.027 162.561 340.942 162.382C340.856 162.203 340.72 162.054 340.549 161.953C337.04 159.893 328.986 157.048 320.145 166.784C320.017 166.951 319.941 167.152 319.927 167.363C319.913 167.573 319.963 167.782 320.069 167.964C320.175 168.147 320.333 168.293 320.522 168.385C320.712 168.478 320.925 168.512 321.134 168.483Z" fill="#FDE5CF"/>
<path d="M318.976 187.827C318.507 188.26 317.983 188.631 317.419 188.931C314.394 190.598 308.673 188.353 306.834 183.83C304.995 179.307 306.1 174.587 309.295 173.292C311.013 172.597 313.267 172.915 315.271 174.067C316.07 178.76 317.311 183.367 318.976 187.827Z" fill="#EC685A"/>
<path d="M311.91 185.831C309.901 182.98 313.17 179.726 313.989 178.988C313.765 178.61 313.464 178.282 313.106 178.025C312.748 177.768 312.341 177.588 311.91 177.496C310.188 177.189 308.45 178.558 308.434 178.558L308.099 178.144C308.178 178.08 310.039 176.615 312.001 176.96C312.543 177.076 313.053 177.308 313.496 177.641C313.938 177.974 314.303 178.399 314.563 178.887L314.68 179.084L314.499 179.227C314.462 179.264 310.353 182.694 312.346 185.518L311.91 185.831Z" fill="#1A1A1A"/>
<path d="M390.91 171.763C390.421 176.621 385.556 180.384 382.186 179.636C381.571 179.505 380.975 179.3 380.41 179.025C380.413 178.985 380.413 178.944 380.41 178.903C380.586 176.87 380.666 174.8 380.644 172.708C380.644 172.177 380.644 171.646 380.644 171.116C380.591 169.146 380.464 167.161 380.251 165.17C380.251 164.989 380.214 164.809 380.192 164.639C380.427 164.402 380.676 164.179 380.937 163.97C382 163.071 383.306 162.505 384.69 162.346C384.987 162.316 385.286 162.316 385.583 162.346C389.012 162.691 391.394 166.906 390.91 171.763Z" fill="#EC685A"/>
<path d="M386.333 175.304C386.304 175.309 386.276 175.309 386.247 175.304C386.182 175.281 386.127 175.233 386.096 175.171C386.066 175.108 386.061 175.036 386.083 174.97C387.199 171.7 382.292 169.56 382.239 169.539L382.026 169.449L382.09 169.231C382.201 168.689 382.43 168.177 382.76 167.733C383.091 167.289 383.516 166.923 384.004 166.662C385.796 165.775 387.986 166.662 388.082 166.699C388.114 166.712 388.144 166.732 388.168 166.757C388.193 166.782 388.213 166.812 388.226 166.844C388.239 166.877 388.246 166.912 388.246 166.947C388.246 166.982 388.239 167.017 388.225 167.049C388.212 167.082 388.192 167.111 388.167 167.136C388.142 167.161 388.112 167.18 388.079 167.193C388.047 167.207 388.012 167.214 387.977 167.213C387.942 167.213 387.907 167.206 387.874 167.193C387.874 167.193 385.806 166.359 384.238 167.139C383.847 167.346 383.503 167.632 383.229 167.978C382.954 168.324 382.755 168.724 382.643 169.151C383.637 169.635 387.694 171.838 386.561 175.14C386.543 175.186 386.512 175.226 386.471 175.255C386.431 175.285 386.382 175.301 386.333 175.304Z" fill="#1A1A1A"/>
<path d="M330.087 190.981C332.955 190.981 335.281 188.658 335.281 185.794C335.281 182.93 332.955 180.607 330.087 180.607C327.218 180.607 324.893 182.93 324.893 185.794C324.893 188.658 327.218 190.981 330.087 190.981Z" fill="#EC685A"/>
<path d="M371.41 185.051C374.278 185.051 376.604 182.729 376.604 179.864C376.604 177 374.278 174.678 371.41 174.678C368.541 174.678 366.216 177 366.216 179.864C366.216 182.729 368.541 185.051 371.41 185.051Z" fill="#EC685A"/>
<path d="M380.245 166.301C380.245 166.301 373.675 157.276 373.297 148.846C372.92 140.416 369.315 136.153 365.759 135.272C364.047 134.847 361.341 136.041 358.348 137.894C353.834 140.681 348.667 144.949 345.27 147.359C339.082 151.76 324.637 154.085 317.216 148.278C312.607 144.678 315.089 173.228 316.402 178.006C316.402 178.006 312.947 169.072 307.503 165.722C302.059 162.372 298.375 156.92 302.453 149.313C306.53 141.706 299.752 136.285 299.576 129.289C299.401 122.292 309.725 115.04 324.031 116.702C338.337 118.363 349.523 109.955 353.659 107.088C357.795 104.221 366.157 106.323 367.412 117.912C368.667 129.501 375.291 119.93 379.921 124.373C383.446 127.765 379.39 129.405 382.648 136.169C385.907 142.932 387.768 136.466 389.161 144.726C390.213 150.99 378.89 150.895 380.245 166.301Z" fill="#FDE5CF"/>
<path d="M332.798 189.685C329.915 189.677 327.131 188.633 324.955 186.746C322.779 184.858 321.355 182.252 320.943 179.403C320.596 176.984 320.997 174.517 322.094 172.333C323.191 170.149 324.93 168.352 327.079 167.183C329.227 166.014 331.683 165.528 334.115 165.792C336.548 166.056 338.841 167.056 340.689 168.658C342.536 170.26 343.848 172.388 344.45 174.757C345.052 177.125 344.915 179.62 344.056 181.908C343.197 184.196 341.659 186.167 339.647 187.557C337.634 188.947 335.245 189.69 332.798 189.685ZM332.83 166.242C332.282 166.245 331.735 166.284 331.192 166.359C328.251 166.782 325.589 168.328 323.766 170.671C321.943 173.015 321.102 175.973 321.419 178.923C321.737 181.873 323.189 184.586 325.469 186.489C327.749 188.392 330.68 189.337 333.644 189.125C336.608 188.914 339.374 187.562 341.36 185.355C343.346 183.148 344.397 180.257 344.292 177.292C344.186 174.326 342.932 171.517 340.794 169.456C338.657 167.396 335.801 166.243 332.83 166.242Z" fill="#1A1A1A"/>
<path d="M366.508 184.849C363.398 184.847 360.41 183.64 358.172 181.482C355.935 179.324 354.624 176.383 354.514 173.279C354.405 170.175 355.506 167.15 357.585 164.84C359.665 162.53 362.561 161.116 365.663 160.895C368.766 160.674 371.833 161.665 374.22 163.657C376.606 165.649 378.125 168.488 378.457 171.577C378.789 174.665 377.908 177.762 376 180.214C374.092 182.667 371.305 184.285 368.226 184.727C367.657 184.809 367.083 184.85 366.508 184.849ZM366.54 161.406C364.963 161.401 363.402 161.72 361.954 162.345C360.506 162.969 359.202 163.885 358.125 165.035C357.047 166.185 356.218 167.544 355.691 169.029C355.163 170.513 354.947 172.09 355.057 173.661C355.167 175.232 355.6 176.763 356.33 178.16C357.059 179.556 358.069 180.788 359.296 181.777C360.523 182.766 361.942 183.492 363.463 183.909C364.983 184.326 366.574 184.426 368.135 184.202C371.003 183.79 373.609 182.309 375.429 180.058C377.249 177.806 378.148 174.95 377.946 172.064C377.744 169.177 376.456 166.474 374.34 164.497C372.225 162.52 369.438 161.416 366.54 161.406Z" fill="#1A1A1A"/>
<path d="M344.424 176.297C344.374 176.298 344.325 176.284 344.282 176.258C344.239 176.231 344.205 176.193 344.184 176.147C344.162 176.102 344.155 176.051 344.162 176.001C344.168 175.951 344.19 175.905 344.222 175.867C344.265 175.808 348.794 170.447 355.041 174.306C355.101 174.343 355.144 174.403 355.16 174.472C355.175 174.54 355.163 174.612 355.126 174.672C355.089 174.732 355.029 174.775 354.96 174.791C354.891 174.807 354.819 174.795 354.759 174.757C348.911 171.137 344.658 176.153 344.658 176.201C344.63 176.235 344.594 176.261 344.553 176.278C344.512 176.295 344.468 176.301 344.424 176.297Z" fill="#1A1A1A"/>
<path d="M312.814 135.574C314.549 135.978 316.315 136.228 318.093 136.323C319.837 136.428 321.586 136.373 323.319 136.158C324.971 135.953 326.59 135.545 328.141 134.942C329.578 134.373 330.917 133.585 332.112 132.607C332.675 132.119 333.196 131.587 333.67 131.014C333.911 130.74 334.137 130.453 334.345 130.154L334.659 129.708L335.121 129.103C335.745 128.257 336.414 127.445 337.126 126.671C337.498 126.279 337.833 125.87 338.247 125.488L339.502 124.346C341.463 122.647 343.79 121.423 346.302 120.768C346.663 120.673 347.031 120.604 347.402 120.561C347.785 120.513 348.157 120.45 348.556 120.434C348.954 120.418 349.353 120.434 349.752 120.434C350.163 120.452 350.573 120.491 350.98 120.551C351.828 120.667 352.661 120.877 353.462 121.177C353.887 121.33 354.302 121.508 354.707 121.708C354.924 121.83 355.142 121.952 355.355 122.08L355.727 122.324L355.913 122.456C356.025 122.541 356.137 122.637 356.248 122.732C356.809 123.241 357.264 123.856 357.586 124.54C357.909 125.224 358.094 125.966 358.13 126.721C358.166 127.477 358.053 128.232 357.796 128.944C357.54 129.656 357.146 130.311 356.636 130.871C356.127 131.43 355.512 131.885 354.826 132.207C354.141 132.529 353.399 132.714 352.642 132.75C351.885 132.786 351.129 132.673 350.416 132.417C349.703 132.161 349.047 131.767 348.486 131.258C348.55 131.317 348.618 131.372 348.689 131.423L348.736 131.449L348.827 131.492H348.896C348.896 131.492 348.933 131.444 348.896 131.417C348.867 131.34 348.817 131.272 348.752 131.221C348.704 131.194 348.673 131.141 348.614 131.115C348.55 131.094 348.49 131.066 348.433 131.03C348.361 131.024 348.288 131.022 348.215 131.025C348.131 130.991 348.04 130.975 347.95 130.977C346.819 130.977 345.708 131.268 344.723 131.821L343.771 132.352C343.452 132.527 343.144 132.782 342.819 132.989C342.158 133.443 341.522 133.934 340.916 134.459L340.432 134.857L339.8 135.415C339.383 135.793 338.944 136.148 338.487 136.477C335.84 138.44 332.748 139.716 329.486 140.193C327.459 140.495 325.402 140.546 323.362 140.347C321.407 140.159 319.475 139.791 317.588 139.248C315.731 138.724 313.924 138.039 312.187 137.199C312.012 137.098 311.879 136.939 311.809 136.749C311.74 136.56 311.739 136.352 311.808 136.163C311.876 135.973 312.009 135.813 312.183 135.712C312.358 135.61 312.562 135.572 312.761 135.606L312.814 135.574Z" fill="#FCF4ED"/>
<path d="M358.348 137.894C352.133 143.479 342.356 154.712 332.373 155.152C320.459 155.683 317.216 148.278 317.216 148.278C324.659 154.085 339.082 151.76 345.27 147.359C348.667 144.949 353.834 140.681 358.348 137.894Z" fill="#EC685A"/>
<path d="M392.308 349.449L325.228 339.702L391.537 349.311L392.308 349.449Z" fill="#406468"/>
<g opacity="0.7">
<path opacity="0.7" d="M403.276 299.24L402.372 316.912L438.959 326.017L439.639 321.143C440.132 321.254 440.644 321.257 441.138 321.151C441.632 321.045 442.097 320.834 442.502 320.531C442.906 320.228 443.24 319.841 443.48 319.397C443.72 318.953 443.861 318.462 443.892 317.958C443.929 317.3 443.977 316.578 444.025 315.797C407.524 313.244 403.276 299.24 403.276 299.24Z" fill="#B8A375"/>
<path opacity="0.7" d="M405.391 385.511C404.727 385.452 404.004 385.383 403.233 385.298C402.776 385.251 402.297 385.192 401.792 385.128C398.571 384.746 394.498 384.12 389.432 383.143L388.321 382.925L387.024 382.655C385.216 382.283 383.302 381.874 381.25 381.418L380.602 381.269C379.608 381.046 378.582 380.807 377.534 380.563L376.689 380.361C375.558 380.089 374.392 379.804 373.191 379.507L372.292 379.284C370.767 378.901 369.198 378.498 367.577 378.073L366.593 377.813L364.6 377.282L362.643 376.751C360.049 376.035 357.327 375.276 354.509 374.453L352.649 373.922C349.172 372.899 345.505 371.788 341.649 370.588L340.358 370.179C333.026 367.881 325.015 365.248 316.264 362.216L314.77 361.686C312.33 366.803 310.023 371.342 307.918 375.286C305.483 379.846 301.288 383.164 296.482 385.102L297.338 390.087C301.363 388.914 312.468 384.184 316.631 367.132C316.631 367.132 385.291 388.584 405.562 389.391L406.093 385.574H405.96L405.391 385.511Z" fill="#B8A375"/>
<path opacity="0.7" d="M293.66 334.558L302.591 316.949C293.995 308.79 293.229 301.735 293.229 301.735C293.229 301.735 289.093 314.295 273.984 320.527C277.816 319.611 281.74 319.139 285.68 319.121C286.488 319.121 287.312 319.121 288.152 319.121C288.471 319.121 288.79 319.121 289.109 319.158C289.806 319.184 290.518 319.232 291.236 319.291L292.044 319.354L293.054 319.45L294.085 319.567L294.043 320.984L293.66 334.558Z" fill="#B8A375"/>
<path opacity="0.7" d="M391.537 349.311L395.339 349.842C395.963 349.932 396.599 349.887 397.205 349.709C398.062 349.457 398.821 348.949 399.381 348.253C399.94 347.558 400.274 346.708 400.336 345.818L400.814 339.023C392.84 340.509 377.683 340.716 377.683 340.716C355.887 339.272 339.714 335.769 327.71 331.421C327.604 331.681 327.508 331.952 327.402 332.207C327.211 332.737 327.014 333.221 326.817 333.72C326.034 335.719 325.256 337.666 324.483 339.559L325.228 339.671L391.537 349.311Z" fill="#B8A375"/>
</g>
<path d="M373.122 257.689L373.186 257.742C373.16 257.858 373.109 257.966 373.037 258.061L372.022 259.345L373.957 260.869L373.691 261.209C373.096 261.962 371.873 261.984 370.959 261.262L370.555 260.943L373.122 257.689Z" fill="#EFCEC5"/>
<path d="M323.021 220.741L368.56 256.579L367.093 258.432L321.07 222.211C321.833 221.89 322.503 221.385 323.021 220.741Z" fill="#EC685A"/>
<path d="M316.78 215.852L323.021 220.741C322.504 221.385 321.833 221.891 321.07 222.211L320.183 221.516L316.158 216.558L316.509 216.159L316.78 215.852Z" fill="#FDEFE7"/>
<path d="M313.415 213.197L316.78 215.852L316.509 216.181L316.158 216.579L313.415 213.197Z" fill="#2C3149"/>
<path d="M324 218.729L369.922 254.875L368.561 256.6L323.021 220.74L323.053 220.709C323.511 220.126 323.834 219.45 324 218.729Z" fill="#9A3836"/>
<path d="M323.011 217.954L324 218.729C323.837 219.458 323.513 220.141 323.053 220.73L323.022 220.762L316.78 215.852L316.94 215.65C317.094 215.459 317.243 215.262 317.381 215.066L323.011 217.954Z" fill="#F7AD83"/>
<path d="M317.381 215.066C317.243 215.262 317.094 215.459 316.94 215.65L316.78 215.852L313.415 213.197L313.187 212.916L317.381 215.066Z" fill="#030205"/>
<path d="M373.122 257.689L373.186 257.742C373.16 257.858 373.109 257.966 373.037 258.061L370.911 260.715C370.826 260.822 370.714 260.905 370.587 260.954C370.391 261.023 370.18 261.04 369.976 261.003C369.772 260.966 369.581 260.876 369.422 260.741L367.259 259.037C367.025 258.885 366.861 258.647 366.801 258.375C366.741 258.103 366.791 257.819 366.94 257.583L368.035 256.192L371.884 259.223L373.122 257.689Z" fill="#2C3149"/>
<path d="M373.201 257.742L373.536 258.008C374.456 258.73 374.722 259.924 374.126 260.662L373.972 260.858L372.037 259.335L373.052 258.05C373.123 257.959 373.174 257.854 373.201 257.742Z" fill="#E2BEB5"/>
<path d="M369.06 254.928L368.045 256.213L371.894 259.244L372.022 259.345L373.037 258.06C373.109 257.966 373.159 257.857 373.186 257.742C373.221 257.527 373.196 257.307 373.112 257.106C373.028 256.905 372.89 256.732 372.713 256.606L370.544 254.902C370.342 254.712 370.074 254.609 369.797 254.614C369.52 254.619 369.255 254.732 369.06 254.928Z" fill="#191E30"/>
<path d="M439.655 321.143C439.655 321.143 439.554 356.61 428.172 374.967C424.637 380.663 420.033 384.703 414.004 385.542C413.389 385.629 412.77 385.68 412.149 385.696C411.281 385.765 410.409 385.783 409.539 385.749L408.714 385.723C407.944 385.723 407.04 385.643 405.977 385.558L405.408 385.51C404.743 385.452 404.02 385.383 403.249 385.298C402.792 385.25 402.314 385.192 401.809 385.128C398.587 384.746 394.515 384.119 389.448 383.143L388.337 382.925L387.024 382.654C385.217 382.283 383.303 381.874 381.251 381.417L380.602 381.269C379.608 381.046 378.582 380.807 377.535 380.563L376.689 380.361C375.559 380.088 374.393 379.803 373.191 379.506L372.293 379.283C370.767 378.901 369.199 378.497 367.577 378.073L366.594 377.813L364.6 377.282L362.644 376.751C360.049 376.034 357.328 375.275 354.51 374.452L352.649 373.921C349.172 372.899 345.506 371.787 341.65 370.588L340.358 370.179C333.027 367.88 325.015 365.247 316.265 362.216L314.771 361.685L314.563 361.616C313.022 361.085 311.453 360.554 309.869 359.97L306.515 358.786L309.231 351.068L310.56 347.293L312.687 341.316L313.846 338.035L316.908 338.481L319.837 338.906L320.624 339.022L324.516 339.553L325.26 339.665L391.57 349.273L395.371 349.804C395.995 349.895 396.632 349.849 397.237 349.672C398.094 349.419 398.853 348.911 399.413 348.216C399.972 347.52 400.306 346.67 400.368 345.78L400.846 338.985L400.942 337.573L402.399 316.869C402.399 316.869 410.538 316.397 419.246 316.673C428.066 316.992 437.529 318.043 439.655 321.143Z" fill="#F7AD83"/>
<path d="M428.156 374.968C424.621 380.664 420.017 384.704 413.988 385.542C413.373 385.629 412.754 385.68 412.133 385.696C411.265 385.765 410.393 385.783 409.523 385.749L408.699 385.723C407.928 385.723 407.024 385.643 405.961 385.558L405.392 385.511C404.727 385.452 404.004 385.383 403.233 385.298C402.776 385.25 402.298 385.192 401.793 385.128C398.571 384.746 394.499 384.12 389.432 383.143L388.321 382.925L387.024 382.655C385.217 382.283 383.303 381.874 381.251 381.418L380.602 381.269C379.608 381.046 378.582 380.807 377.535 380.563L376.689 380.361C375.559 380.089 374.393 379.804 373.191 379.507L372.293 379.284C370.767 378.901 369.199 378.498 367.577 378.073L366.594 377.813L364.6 377.282L362.644 376.751C360.049 376.035 357.328 375.276 354.51 374.453L352.649 373.922C349.172 372.899 345.506 371.788 341.65 370.588L340.358 370.179C333.027 367.881 325.015 365.247 316.265 362.216L314.771 361.685L314.563 361.616C313.022 361.085 311.453 360.555 309.869 359.971L306.515 358.787L309.231 351.068L310.56 347.294L316.887 342.081L317.179 341.842L319.306 340.106L320.619 339.044L324.51 339.575L325.254 339.686C325.042 340.217 324.574 341.359 324.064 342.871L323.952 343.217C322.94 346.111 322.29 349.119 322.017 352.172C321.831 355.485 322.548 358.394 325.207 359.365C330.672 361.42 379.762 377.569 408.991 378.716C417.71 379.061 424.653 378.068 428.156 374.968Z" fill="#EC685A"/>
<path d="M419.246 316.721C413.478 318.648 410.782 327.482 408.858 338.821C408.087 343.397 405.732 346.078 403.196 347.644C402.651 347.976 402.085 348.273 401.5 348.53C400.134 349.129 398.689 349.533 397.21 349.73C398.067 349.478 398.826 348.97 399.386 348.274C399.946 347.579 400.279 346.729 400.341 345.839L400.82 339.044L400.915 337.632L402.372 316.928C402.372 316.928 410.511 316.456 419.219 316.732L419.246 316.721Z" fill="#EC685A"/>
<path d="M367.466 246.121C367.211 247.03 366.886 247.918 366.493 248.776C361.708 259.457 345.919 274.172 345.919 274.172C341.421 291.659 336.488 307.341 331.533 321.148C330.89 322.927 330.257 324.673 329.614 326.393C329.353 327.089 329.082 327.774 328.843 328.464C328.46 329.472 328.088 330.46 327.711 331.447C327.604 331.707 327.509 331.978 327.402 332.233C327.211 332.764 327.014 333.247 326.817 333.746C326.034 335.745 325.256 337.692 324.484 339.585C324.053 340.647 323.617 341.709 323.186 342.77C323.139 342.887 323.091 342.993 323.048 343.105C321.833 346.035 320.627 348.84 319.433 351.519C317.838 355.145 316.243 358.542 314.76 361.717C312.32 366.835 310.013 371.373 307.907 375.318C304.447 381.8 297.44 385.77 290.183 386.843C286.114 387.483 281.949 387.098 278.067 385.723C277.615 385.548 277.163 385.367 276.728 385.16C272.867 383.461 269.829 380.315 268.269 376.401C262.709 362.365 259.498 342.877 257.743 328.198C258.18 328.105 258.589 327.912 258.939 327.636C259.581 327.126 260.302 326.606 261.103 326.075C265.041 323.495 269.4 321.623 273.984 320.543C277.816 319.626 281.74 319.154 285.68 319.136C286.488 319.136 287.312 319.136 288.152 319.136L289.109 319.174C289.806 319.205 290.513 319.248 291.236 319.312L292.044 319.375L293.054 319.471L294.085 319.588L294.043 321.005L293.66 334.553L302.591 316.944L328.827 265.211L328.545 248.165C328.333 242.161 329.55 236.191 332.096 230.747L334.223 226.177L337.338 211.541L337.498 211.578C337.802 211.645 338.095 211.754 338.37 211.902H338.396C343.282 214.593 340.592 228.481 340.119 230.732V230.822C340.081 230.965 340.066 231.045 340.066 231.045L365.759 206.253C365.796 206.386 365.839 206.524 365.865 206.662C365.891 206.745 365.909 206.831 365.919 206.917C365.945 207.044 365.966 207.172 365.988 207.305C366.069 207.849 366.094 208.401 366.062 208.95C366.062 209.099 366.062 209.253 366.03 209.407C366.035 209.42 366.035 209.435 366.03 209.449C366.03 209.546 366.019 209.642 365.998 209.736C365.998 209.954 365.934 210.177 365.892 210.405C365.796 210.883 365.679 211.366 365.53 211.854C365.483 212.024 365.429 212.188 365.371 212.358C365.312 212.528 365.201 212.857 365.105 213.107C365.057 213.234 365.009 213.356 364.956 213.484C364.685 214.158 364.366 214.837 364.021 215.517C363.866 215.814 363.702 216.117 363.542 216.414C363.383 216.711 363.266 216.903 363.122 217.147C362.819 217.678 362.5 218.171 362.171 218.676C362.032 218.888 361.894 219.1 361.751 219.313C361.607 219.525 361.458 219.748 361.309 219.966L360.709 220.815C360.087 221.659 359.454 222.487 358.832 223.262C358.518 223.65 358.205 224.027 357.902 224.393C356.174 226.447 354.568 228.141 353.574 229.171C353.524 229.216 353.476 229.264 353.431 229.314C353.38 229.357 353.332 229.404 353.287 229.452L353.165 229.58L353.08 229.659L352.952 229.787L352.809 229.925L352.724 230.01L352.522 230.201L353.957 229.574C354.59 229.296 355.294 229.22 355.972 229.357C356.737 229.5 357.43 229.899 357.939 230.487L358.088 230.647C358.624 231.277 358.946 232.062 359.007 232.887C359.068 233.713 358.866 234.536 358.428 235.239C358.834 234.946 359.312 234.767 359.811 234.719C360.31 234.671 360.812 234.757 361.267 234.968L361.469 235.079C361.505 235.097 361.539 235.118 361.57 235.143L361.628 235.18C361.676 235.209 361.723 235.241 361.767 235.276C361.909 235.379 362.041 235.497 362.16 235.626L363.409 236.98C363.887 237.506 364.172 238.179 364.216 238.888C364.26 239.597 364.062 240.3 363.654 240.882L363.08 241.699L362.936 241.906C363.397 241.635 363.922 241.49 364.457 241.487C364.566 241.479 364.676 241.479 364.786 241.487C365.24 241.541 365.677 241.696 366.064 241.939C366.451 242.182 366.779 242.508 367.024 242.894C367.322 243.37 367.515 243.904 367.591 244.46C367.667 245.017 367.624 245.583 367.466 246.121Z" fill="#F7AD83"/>
<path d="M340.156 230.748L340.092 230.854L337.051 234.777C337.178 234.342 343.101 214.965 338.433 211.913C343.324 214.604 340.634 228.491 340.156 230.748Z" fill="#EC685A"/>
<path d="M352.5 230.19L346.913 235.79C346.913 235.79 346.381 233.895 349.954 230.169C353.441 226.522 367.364 213.245 365.865 206.651C368.013 215.368 352.936 229.765 352.5 230.19Z" fill="#EC685A"/>
<path d="M358.986 233.173C358.989 233.906 358.783 234.625 358.391 235.244L352.335 241.158C352.335 241.158 352.016 239.597 354.148 237.224C356.206 234.941 358.869 231.087 355.934 229.356C356.698 229.503 357.391 229.901 357.901 230.487L358.045 230.646C358.657 231.346 358.992 232.245 358.986 233.173Z" fill="#EC685A"/>
<path d="M363.632 240.914L363.053 241.731L357.79 246.875C357.79 246.875 357.46 245.32 359.603 242.947C361.644 240.68 364.281 236.852 361.437 235.106C361.695 235.246 361.93 235.425 362.133 235.637L363.377 236.991C363.86 237.518 364.148 238.194 364.195 238.907C364.241 239.62 364.043 240.328 363.632 240.914Z" fill="#EC685A"/>
<path d="M367.465 246.121C367.211 247.03 366.886 247.918 366.492 248.775C361.708 259.456 345.918 274.172 345.918 274.172C341.421 291.659 336.487 307.34 331.533 321.148C330.889 322.927 330.257 324.673 329.613 326.393C329.353 327.089 329.082 327.779 328.843 328.464C328.46 329.472 328.088 330.46 327.71 331.447L327.407 332.233C327.216 332.764 327.019 333.247 326.822 333.746C326.039 335.745 325.261 337.692 324.489 339.585C324.058 340.647 323.622 341.709 323.191 342.77C323.144 342.887 323.096 342.993 323.053 343.105C321.837 346.035 320.632 348.84 319.438 351.519C317.843 355.145 316.248 358.542 314.765 361.717C312.325 366.834 310.018 371.373 307.912 375.318C304.452 381.799 297.445 385.77 290.188 386.843C286.119 387.483 281.954 387.098 278.072 385.723C281.359 386.643 284.845 386.567 288.088 385.505C293.139 383.912 298.051 380.032 302.017 373.826C304.606 369.775 307.243 365.088 309.863 360.023C311.458 356.913 313.053 353.653 314.648 350.282C315.871 347.691 317.088 345.042 318.284 342.362L318.412 342.08C318.699 341.438 318.986 340.806 319.268 340.158L319.8 338.959C321.107 335.965 322.399 332.944 323.654 329.934C324.597 327.694 325.515 325.462 326.408 323.24C330.352 313.504 333.92 304.076 336.844 296.086C341.729 282.698 344.818 273.344 344.818 273.344C344.818 273.344 345.02 268.932 345.929 267.101C346.838 265.269 360.889 254.026 364.834 248.866C364.849 248.855 364.86 248.84 364.866 248.823C368.768 243.706 364.706 241.619 364.706 241.619L364.749 241.561C365.203 241.615 365.639 241.77 366.026 242.013C366.413 242.256 366.741 242.582 366.987 242.968C367.28 243.432 367.474 243.952 367.556 244.494C367.639 245.037 367.608 245.591 367.465 246.121Z" fill="#EC685A"/>
<path d="M294.085 319.593L294.043 321.01L293.66 334.558C293.66 334.558 291.06 338.577 288.535 342.946C287.171 345.254 285.929 347.632 284.813 350.07C285.765 347.599 286.548 345.066 287.158 342.489C288.62 336.342 289.556 327.991 286.573 320.973C286.31 320.34 286.012 319.721 285.68 319.121C286.488 319.121 287.312 319.121 288.152 319.121L289.109 319.158C289.805 319.19 290.513 319.232 291.236 319.296L292.044 319.36L293.054 319.455L294.085 319.593Z" fill="#EC685A"/>
<path opacity="0.41" d="M337.668 214.28C337.28 217.333 335.722 226.384 335.722 226.384C335.722 226.384 330.283 236.651 329.991 247.618C329.699 258.586 331.256 264.898 331.256 264.898C331.256 264.898 315.307 296.219 303.994 318.218C298.976 327.975 294.866 335.88 293.463 338.391C292.277 340.514 291.092 342.42 289.991 344.034C288.346 346.537 286.482 348.889 284.42 351.063L287.168 342.489C286.559 345.066 285.775 347.599 284.824 350.07C285.94 347.632 287.182 345.254 288.545 342.946C291.071 338.577 293.67 334.558 293.67 334.558L302.602 316.949L328.837 265.217L328.545 248.165C328.333 242.161 329.55 236.191 332.096 230.748L334.223 226.177L337.338 211.541C337.365 211.529 337.395 211.527 337.424 211.533C337.453 211.54 337.478 211.556 337.498 211.578C337.705 211.716 337.928 212.247 337.668 214.28Z" fill="white"/>
<path opacity="0.41" d="M365.759 206.253L339.916 231.061L337.072 234.777C337.072 234.777 338.752 235.127 342.25 231.416C345.748 227.706 364.281 209.253 365.759 206.253Z" fill="white"/>
<path d="M596.926 425.716H106.766C104.124 425.716 101.981 427.855 101.981 430.494C101.981 433.132 104.124 435.271 106.766 435.271H596.926C599.568 435.271 601.71 433.132 601.71 430.494C601.71 427.855 599.568 425.716 596.926 425.716Z" fill="#04050F"/>
</svg>
