<svg width="96" height="70" viewBox="0 0 96 70" fill="none" xmlns="http://www.w3.org/2000/svg">
<path d="M46.1405 34.198C39.4428 20.6166 22.1405 -3.86715 6.51257 6.84913C-9.11534 17.5654 22.6231 45.5113 28.7627 47.7439C34.9022 49.9764 38.184 43.9265 31.6289 37.5468C23.1813 29.3253 12.6521 62.1049 24.373 67.6863C33.7498 72.1514 48.2975 48.302 48.9312 43.6863C49.5648 39.0706 46.1405 34.198 46.1405 34.198Z" stroke="black" stroke-width="3"/>
<path d="M49.7521 31.9655C56.4498 18.3841 73.7521 -6.09957 89.38 4.6167C105.008 15.333 73.2695 43.2789 67.1299 45.5114C60.9904 47.744 57.7086 41.6941 64.2637 35.3144C72.7113 27.0928 83.2405 59.8725 71.5195 65.4539C62.1428 69.919 47.595 46.0696 46.9614 41.4539C46.3278 36.8382 49.7521 31.9655 49.7521 31.9655Z" stroke="black" stroke-width="3"/>
</svg>
