<svg width="55" height="55" viewBox="0 0 55 55" fill="none" xmlns="http://www.w3.org/2000/svg">
<g clip-path="url(#clip0_1_800)">
<path d="M27.5 55C42.6627 55 55 42.6638 55 27.5C55 24.8827 54.6347 22.3035 53.9112 19.8333C53.5548 18.6187 52.2865 17.921 51.0685 18.2774C49.8527 18.6327 49.1573 19.9055 49.5125 21.1201C50.1117 23.1724 50.4167 25.3197 50.4167 27.5C50.4167 40.1361 40.1361 50.4167 27.5 50.4167C14.8639 50.4167 4.58333 40.1361 4.58333 27.5C4.58333 14.8639 14.8639 4.58333 27.5 4.58333C32.0923 4.58333 36.5106 5.92611 40.2771 8.46563C41.3255 9.17338 42.7511 8.89532 43.4577 7.84683C44.1649 6.79723 43.8891 5.37277 42.8395 4.66558C38.3132 1.61357 33.0093 0 27.5 0C12.3373 0 0 12.3362 0 27.5C0 42.6638 12.3373 55 27.5 55Z" fill="black"/>
<path d="M51.088 5.25486L27.4999 28.8418L19.9535 21.2965C19.0583 20.4019 17.6081 20.4019 16.713 21.2965C15.8183 22.1917 15.8183 23.6419 16.713 24.5371L25.8796 33.7037C26.3278 34.1519 26.913 34.3751 27.4999 34.3751C28.0868 34.3751 28.672 34.1519 29.1202 33.7037L54.3285 8.49542C55.2232 7.60024 55.2232 6.15004 54.3285 5.25486C53.4333 4.36024 51.9832 4.36024 51.088 5.25486Z" fill="#DDD0A4"/>
</g>
<defs>
<clipPath id="clip0_1_800">
<rect width="55" height="55" fill="white"/>
</clipPath>
</defs>
</svg>
