<svg width="492" height="492" viewBox="0 0 492 492" fill="none" xmlns="http://www.w3.org/2000/svg">
<g filter="url(#filter0_dd_1_294)">
<path opacity="0.9" d="M48.944 247.781C25.8692 328.135 175.28 366.048 255.122 354.339C356.129 339.579 413.063 284.475 411.519 199.605C409.993 115.512 315.224 67.3352 243.825 102.789C208.637 120.265 182.866 151.989 147.767 170.134C106.105 191.732 63.3596 197.568 48.944 247.781Z" fill="#DDD0A4"/>
<path d="M246 420.719C351.369 420.719 436.787 415.732 436.787 409.58C436.787 403.428 351.369 398.441 246 398.441C140.631 398.441 55.2119 403.428 55.2119 409.58C55.2119 415.732 140.631 420.719 246 420.719Z" fill="#A89060"/>
<path d="M161.376 99.7578C153.947 92.7812 141.696 91.443 137.11 98.7049C132.525 105.967 135.142 113.642 125.735 121.691C119.339 127.192 124.082 144.048 160.569 142.503C177.838 141.775 171.993 123.807 171.531 115.315C171.068 106.823 171.039 96.4319 161.376 99.7578Z" fill="#263238"/>
<path d="M147 395.981L138.163 396.326L137.996 386.761L146.832 386.417L147 395.981Z" fill="#FDCEA4"/>
<path d="M137.613 394.495H147.6C147.776 394.493 147.948 394.552 148.086 394.661C148.223 394.771 148.32 394.924 148.358 395.096L150.09 403.017C150.13 403.21 150.125 403.409 150.078 403.601C150.03 403.792 149.94 403.97 149.815 404.122C149.689 404.274 149.531 404.396 149.352 404.479C149.173 404.562 148.978 404.604 148.781 404.601C145.288 404.542 143.595 404.335 139.197 404.335C136.491 404.335 129.475 404.621 125.736 404.621C121.997 404.621 121.524 400.921 123.05 400.586C129.938 399.081 133.942 397.014 136.147 395.037C136.551 394.68 137.074 394.487 137.613 394.495Z" fill="#263238"/>
<path opacity="0.2" d="M137.996 386.771L138.075 391.219L146.911 390.835L146.832 386.427L137.996 386.771Z" fill="black"/>
<path d="M124.968 203.344C123 213.951 125.263 265.798 128.264 288.696C132.259 319.101 136.392 389.703 136.392 389.703L148.2 388.995C148.2 388.995 151.152 314.644 148.741 290.231C150.109 258.812 153.494 203.934 153.494 203.934L124.968 203.344Z" fill="#4A607A"/>
<path opacity="0.2" d="M151.536 238.128C151.949 230.167 146.311 223.092 144.038 238.128C142.601 247.683 145.573 264.43 149.469 276.258C150.07 263.948 150.837 250.241 151.536 238.128Z" fill="black"/>
<path d="M211.925 366.235L206.178 371.726L198.395 363.381L204.131 357.9L211.925 366.235Z" fill="#FDCEA4"/>
<path d="M204.672 371.873L210.576 363.785C210.672 363.644 210.818 363.545 210.985 363.509C211.151 363.472 211.325 363.5 211.471 363.588L218.359 367.642C218.529 367.755 218.674 367.9 218.786 368.07C218.898 368.24 218.975 368.431 219.012 368.631C219.049 368.831 219.045 369.037 219 369.235C218.956 369.434 218.872 369.622 218.753 369.787C216.657 372.572 215.506 373.802 212.918 377.364C211.324 379.548 209.484 382.559 207.289 385.59C205.095 388.621 202.094 386.446 202.743 384.98C205.695 378.397 204.446 376.567 204.288 373.428C204.238 372.881 204.373 372.333 204.672 371.873Z" fill="#263238"/>
<path opacity="0.2" d="M198.395 363.391L202.409 367.681L208.107 362.151L204.141 357.9L198.395 363.391Z" fill="black"/>
<path d="M138.665 203.629C138.665 203.629 151.378 270.541 154.685 296.518C156.653 312.036 200.047 367.868 200.047 367.868L207.456 360.065C207.456 360.065 191.575 319.19 172.446 294.944C171.688 266.526 174.916 219.747 163.934 204.15L138.665 203.629Z" fill="#4A607A"/>
<path d="M127.506 152.323C127.506 158.07 127.241 163.708 126.818 169.405C126.395 175.103 125.834 180.771 124.919 186.478L124.751 187.55L124.525 188.761C124.354 189.554 124.167 190.332 123.964 191.093C123.531 192.598 122.98 194.045 122.488 195.442C121.412 198.182 120.19 200.862 118.828 203.471C116.146 208.574 113.09 213.471 109.686 218.123C109.327 218.605 108.802 218.938 108.213 219.057C107.623 219.176 107.01 219.074 106.492 218.769C105.974 218.464 105.586 217.978 105.404 217.405C105.222 216.832 105.257 216.212 105.504 215.663V215.604C107.817 210.605 110.06 205.479 112.018 200.401C113.002 197.863 113.878 195.294 114.626 192.775C114.98 191.516 115.295 190.266 115.541 189.046C115.669 188.436 115.758 187.836 115.846 187.245L115.944 186.37L116.043 185.386C116.545 179.934 116.84 174.404 117.115 168.864C117.391 163.324 117.519 157.735 117.676 152.244V152.195C117.697 150.89 118.236 149.647 119.173 148.739C120.11 147.831 121.37 147.333 122.675 147.354C123.98 147.375 125.223 147.913 126.131 148.851C127.039 149.788 127.537 151.048 127.516 152.353L127.506 152.323Z" fill="#FDCEA4"/>
<path d="M124.299 145.13C112.215 148.663 113.77 170.645 113.77 170.645L130.951 175.27C130.951 175.27 133.804 159.172 133.549 153.396C133.293 147.393 130.961 143.192 124.299 145.13Z" fill="#4A607A"/>
<path d="M106.784 214.394L100.732 219.54L109.214 223.004C109.214 223.004 111.842 218.999 110.622 215.201L106.784 214.394Z" fill="#FDCEA4"/>
<path d="M101.805 227.392L105.672 227.875C106.101 227.928 106.537 227.839 106.91 227.62C107.284 227.401 107.575 227.065 107.738 226.664L109.214 223.004L100.732 219.54L100.093 225.218C100.034 225.733 100.181 226.25 100.502 226.657C100.822 227.064 101.291 227.328 101.805 227.392Z" fill="#FDCEA4"/>
<path d="M120.393 150.847C119.852 172.889 124.919 188.977 124.978 203.343L163.935 204.15C163.65 189.764 163.768 180.377 169.957 154.596C170.226 153.473 170.258 152.306 170.051 151.171C169.844 150.035 169.402 148.954 168.754 147.999C168.106 147.043 167.265 146.233 166.286 145.621C165.308 145.008 164.212 144.606 163.069 144.441C160.737 144.097 158.149 143.772 155.522 143.595C149.634 143.049 143.715 142.924 137.81 143.221C133.657 143.516 129.19 144.126 126.002 144.608C124.487 144.834 123.099 145.58 122.075 146.719C121.051 147.857 120.456 149.317 120.393 150.847Z" fill="#4A607A"/>
<path d="M156.702 171.216L145.15 171.137C145.035 171.142 144.92 171.122 144.814 171.079C144.707 171.035 144.611 170.969 144.533 170.885C144.454 170.801 144.395 170.7 144.359 170.591C144.323 170.482 144.31 170.366 144.323 170.252L144.963 164.781C145.005 164.536 145.131 164.315 145.32 164.154C145.509 163.994 145.748 163.906 145.996 163.905L157.538 163.983C157.653 163.977 157.768 163.996 157.874 164.038C157.981 164.08 158.077 164.146 158.155 164.229C158.234 164.313 158.294 164.412 158.33 164.521C158.366 164.63 158.378 164.745 158.365 164.859L157.725 170.34C157.686 170.583 157.561 170.805 157.374 170.965C157.187 171.126 156.949 171.214 156.702 171.216Z" fill="white"/>
<path opacity="0.4" d="M137.869 143.231C137.869 143.231 131.512 147.679 138.233 158.837C143.751 153.47 149.534 148.383 155.561 143.595L137.869 143.231Z" fill="white"/>
<path d="M154.223 123.639C152.993 129.307 151.655 139.718 155.561 143.595C149.418 146.015 143.754 149.506 138.833 153.907C134.513 145.976 137.849 143.221 137.849 143.221C144.225 141.843 144.166 137.13 143.153 132.682L154.223 123.639Z" fill="#FDCEA4"/>
<path opacity="0.2" d="M153.022 124.624C152.868 128.01 151.993 131.325 150.453 134.345C149.381 136.422 146.517 137.297 143.634 137.465C143.73 135.856 143.574 134.243 143.172 132.682L153.022 124.624Z" fill="black"/>
<path d="M163.442 116.702C160.49 125.775 159.506 129.671 153.602 133.214C144.795 138.537 134.296 132.978 134.434 123.226C134.572 114.449 139.354 101.096 149.263 99.7283C151.457 99.4106 153.696 99.6599 155.767 100.452C157.838 101.245 159.671 102.554 161.092 104.256C162.514 105.957 163.476 107.995 163.887 110.173C164.299 112.352 164.145 114.6 163.442 116.702Z" fill="#FDCEA4"/>
<path d="M139.384 104.786C144.304 106.174 156.289 107.207 158.69 105.77C156.437 109.234 158.582 118.7 162.065 120.993C166.759 117.224 167.802 108.112 163.462 103.596C159.123 99.0789 145.406 93.6768 139.384 104.786Z" fill="#263238"/>
<path d="M164.82 122.252C164.509 123.116 164.029 123.91 163.407 124.586C162.785 125.262 162.034 125.806 161.199 126.188C158.975 127.172 157.499 125.283 157.814 122.99C158.099 120.933 159.605 117.932 161.986 117.893C162.5 117.9 163.004 118.033 163.454 118.282C163.904 118.53 164.286 118.885 164.566 119.316C164.846 119.747 165.016 120.24 165.06 120.752C165.104 121.264 165.022 121.779 164.82 122.252Z" fill="#FDCEA4"/>
<path d="M164.564 201.877L166.256 205.41C166.384 205.676 166.06 205.951 165.607 205.941L124.741 205.085C124.397 205.085 124.112 204.898 124.092 204.672L123.807 201.179C123.807 200.943 124.102 200.746 124.486 200.746L163.944 201.572C164.065 201.565 164.186 201.589 164.294 201.643C164.403 201.696 164.496 201.777 164.564 201.877Z" fill="#263238"/>
<path d="M159.181 206.177H160.234C160.441 206.177 160.608 206.069 160.598 205.941L160.195 201.395C160.195 201.267 159.998 201.149 159.791 201.149H158.729C158.522 201.149 158.365 201.248 158.374 201.385L158.768 205.922C158.788 206.069 158.965 206.177 159.181 206.177Z" fill="#4A607A"/>
<path d="M127.704 205.528H128.767C128.973 205.528 129.141 205.43 129.131 205.292L128.727 200.746C128.727 200.618 128.53 200.51 128.324 200.5H127.261C127.054 200.5 126.887 200.598 126.907 200.736L127.3 205.272C127.32 205.41 127.497 205.518 127.704 205.528Z" fill="#4A607A"/>
<path d="M143.438 205.853H144.501C144.707 205.853 144.875 205.754 144.865 205.616L144.461 201.08C144.461 200.942 144.265 200.834 144.058 200.834H142.995C142.789 200.834 142.631 200.942 142.641 201.07L143.035 205.616C143.054 205.735 143.231 205.853 143.438 205.853Z" fill="#4A607A"/>
<path d="M149.282 115.945C149.086 116.693 148.535 117.204 148.043 117.076C147.551 116.948 147.314 116.24 147.501 115.492C147.688 114.744 148.249 114.233 148.741 114.36C149.233 114.488 149.469 115.197 149.282 115.945Z" fill="#263238"/>
<path d="M140.801 113.78C140.614 114.538 140.063 115.039 139.571 114.912C139.079 114.784 138.833 114.085 139.03 113.327C139.227 112.57 139.768 112.078 140.26 112.196C140.752 112.314 140.998 113.032 140.801 113.78Z" fill="#263238"/>
<path d="M140.466 112.294L138.793 111.31C138.793 111.31 139.364 112.963 140.466 112.294Z" fill="#263238"/>
<path d="M142.68 115.64C141.578 117.182 140.27 118.566 138.793 119.753C139.105 120.122 139.494 120.419 139.932 120.623C140.37 120.827 140.848 120.933 141.332 120.934L142.68 115.64Z" fill="#D19146"/>
<path d="M143.152 123.876C143.118 123.846 143.092 123.807 143.078 123.764C143.064 123.72 143.063 123.674 143.074 123.63C143.083 123.601 143.097 123.575 143.116 123.552C143.136 123.529 143.159 123.51 143.186 123.496C143.212 123.483 143.241 123.474 143.271 123.472C143.301 123.469 143.331 123.473 143.359 123.482C144.278 123.77 145.252 123.838 146.202 123.681C147.153 123.524 148.053 123.146 148.83 122.577C148.876 122.538 148.935 122.518 148.995 122.523C149.055 122.527 149.111 122.556 149.15 122.601C149.189 122.647 149.208 122.706 149.204 122.766C149.199 122.826 149.171 122.882 149.125 122.921C148.293 123.549 147.322 123.966 146.294 124.138C145.266 124.309 144.212 124.229 143.221 123.905L143.152 123.876Z" fill="#263238"/>
<path d="M153.907 112.491C153.847 112.438 153.798 112.374 153.76 112.304C153.556 111.771 153.229 111.293 152.805 110.912C152.38 110.53 151.871 110.255 151.319 110.11C151.2 110.089 151.095 110.022 151.026 109.923C150.957 109.824 150.929 109.702 150.95 109.583C150.971 109.464 151.038 109.359 151.137 109.29C151.236 109.22 151.358 109.193 151.477 109.214C152.178 109.388 152.829 109.727 153.373 110.202C153.917 110.678 154.34 111.277 154.606 111.95C154.641 112.042 154.645 112.143 154.618 112.238C154.591 112.334 154.534 112.417 154.456 112.478C154.378 112.538 154.283 112.572 154.184 112.575C154.085 112.577 153.988 112.548 153.907 112.491Z" fill="#263238"/>
<path d="M139.128 108.998L139.069 108.939C138.984 108.854 138.937 108.739 138.937 108.619C138.937 108.499 138.984 108.384 139.069 108.299C139.588 107.812 140.215 107.453 140.899 107.253C141.583 107.053 142.304 107.017 143.005 107.148C143.063 107.163 143.118 107.189 143.167 107.225C143.215 107.262 143.255 107.307 143.285 107.36C143.316 107.412 143.335 107.47 143.343 107.53C143.35 107.59 143.346 107.65 143.33 107.709C143.299 107.825 143.225 107.924 143.121 107.985C143.018 108.046 142.895 108.063 142.779 108.033C142.217 107.928 141.639 107.957 141.091 108.12C140.543 108.282 140.042 108.573 139.63 108.968C139.558 109.022 139.473 109.054 139.383 109.059C139.294 109.064 139.205 109.043 139.128 108.998Z" fill="#263238"/>
<path d="M169.947 151.398C172.81 155.187 175.487 159.005 178.085 162.97C179.374 164.938 180.653 166.906 181.863 169.031C183.167 171.181 184.337 173.409 185.366 175.703C185.678 176.418 185.947 177.151 186.173 177.897C186.337 178.473 186.449 179.063 186.508 179.659C186.524 179.898 186.524 180.138 186.508 180.377V180.82C186.49 181.015 186.46 181.209 186.419 181.4L186.35 181.705V181.843V181.951L186.272 182.168C185.809 183.349 185.445 184.539 184.894 185.681C183.896 188.02 182.698 190.269 181.312 192.401C179.885 194.555 178.215 196.536 176.333 198.305C175.375 199.204 174.345 200.024 173.253 200.756C172.692 201.12 172.122 201.474 171.531 201.799L170.596 202.251C170.242 202.409 169.986 202.517 169.475 202.704L167.605 198.217C167.738 198.087 167.88 197.965 168.028 197.853L168.569 197.381C168.933 197.056 169.288 196.702 169.632 196.337C170.333 195.585 170.99 194.794 171.6 193.966C172.802 192.276 173.849 190.481 174.729 188.603C175.143 187.619 175.595 186.694 175.94 185.651C176.284 184.608 176.668 183.683 176.983 182.699C177.297 181.715 177.543 180.633 177.849 179.609V179.423V179.324V179.413V179.609C177.849 179.728 177.799 179.905 177.789 179.974C177.785 180.049 177.785 180.125 177.789 180.2V180.485C177.789 180.712 177.789 180.643 177.789 180.544C177.789 180.446 177.514 179.915 177.307 179.501C176.412 177.819 175.211 175.88 173.981 174.03C172.751 172.18 171.472 170.281 170.163 168.421C167.556 164.692 164.87 160.923 162.232 157.223L169.947 151.398Z" fill="#FDCEA4"/>
<path d="M172.082 201.543L164.495 206.906L161.091 199.152C161.091 199.152 165.696 196.682 169.327 198.335L172.082 201.543Z" fill="#FDCEA4"/>
<path d="M159.211 207.545L157.312 204.898C156.951 204.388 156.804 203.757 156.901 203.139C156.999 202.522 157.333 201.967 157.833 201.592L161.09 199.152L164.495 206.906L162.409 208.195C161.893 208.512 161.275 208.621 160.682 208.5C160.088 208.38 159.563 208.038 159.211 207.545Z" fill="#FDCEA4"/>
<path d="M154.763 149.056C152.185 159.3 168.087 176.835 168.087 176.835L181.459 162.95C181.459 162.95 175.348 149.902 167.368 145.809C161.799 142.955 155.905 144.54 154.763 149.056Z" fill="#4A607A"/>
<path d="M148.948 114.459L147.275 113.475C147.275 113.475 147.836 115.128 148.948 114.459Z" fill="#263238"/>
<path d="M131.856 176.421C131.784 176.421 131.714 176.399 131.654 176.359C131.595 176.318 131.549 176.261 131.521 176.195C131.489 176.107 131.493 176.011 131.532 175.926C131.57 175.841 131.641 175.775 131.728 175.742L133.263 175.152C134.701 174.621 135.942 173.664 136.822 172.408C137.701 171.153 138.176 169.659 138.183 168.126L138.291 153.74C138.322 152.645 137.976 151.572 137.311 150.701C136.646 149.831 135.702 149.215 134.638 148.956C133.573 148.698 132.452 148.814 131.462 149.283C130.472 149.753 129.673 150.548 129.199 151.536L122.547 164.328C121.833 165.678 121.544 167.214 121.72 168.731C121.895 170.249 122.527 171.678 123.531 172.83L124.614 174.06C124.65 174.093 124.679 174.134 124.699 174.18C124.718 174.226 124.728 174.275 124.727 174.325C124.726 174.375 124.715 174.424 124.694 174.469C124.673 174.514 124.643 174.554 124.605 174.586C124.568 174.619 124.524 174.643 124.476 174.658C124.429 174.673 124.379 174.677 124.329 174.671C124.28 174.665 124.233 174.648 124.19 174.623C124.147 174.597 124.111 174.563 124.082 174.522L123 173.184C121.892 171.932 121.191 170.373 120.993 168.713C120.794 167.053 121.106 165.372 121.888 163.895L128.54 151.103C129.108 150.011 130.028 149.143 131.15 148.637C132.273 148.132 133.532 148.019 134.727 148.316C135.921 148.614 136.98 149.305 137.734 150.278C138.488 151.251 138.892 152.45 138.882 153.681L138.773 168.067C138.765 169.736 138.251 171.363 137.299 172.733C136.347 174.104 135.001 175.153 133.44 175.742L131.905 176.323L131.856 176.421Z" fill="#263238"/>
<path d="M138.538 156.948C138.446 156.946 138.359 156.909 138.293 156.845C138.228 156.781 138.188 156.695 138.184 156.603C138.044 155.466 137.563 154.398 136.805 153.54C136.046 152.682 135.045 152.074 133.934 151.796C132.823 151.517 131.653 151.583 130.58 151.982C129.506 152.382 128.579 153.098 127.92 154.035C127.898 154.076 127.867 154.112 127.831 154.141C127.794 154.17 127.753 154.191 127.708 154.204C127.663 154.217 127.616 154.221 127.57 154.215C127.524 154.21 127.479 154.196 127.438 154.173C127.398 154.15 127.362 154.12 127.333 154.084C127.304 154.047 127.282 154.005 127.269 153.96C127.257 153.916 127.253 153.869 127.258 153.823C127.263 153.776 127.278 153.732 127.3 153.691C128.033 152.609 129.08 151.778 130.3 151.31C131.52 150.842 132.854 150.761 134.122 151.077C135.39 151.392 136.53 152.09 137.389 153.075C138.247 154.06 138.782 155.285 138.922 156.584C138.922 156.677 138.886 156.767 138.822 156.835C138.758 156.902 138.67 156.943 138.577 156.948H138.538Z" fill="#263238"/>
<path d="M134.7 149.086C134.642 149.085 134.584 149.07 134.533 149.043C134.482 149.015 134.438 148.976 134.405 148.928C134.225 148.529 134.132 148.097 134.132 147.659C134.132 147.221 134.225 146.789 134.405 146.39C134.66 145.596 135.091 144.87 135.665 144.265C136.239 143.661 136.941 143.193 137.721 142.896C137.764 142.879 137.81 142.872 137.856 142.874C137.903 142.875 137.948 142.887 137.99 142.907C138.031 142.928 138.068 142.956 138.098 142.992C138.128 143.027 138.15 143.068 138.164 143.113C138.192 143.2 138.185 143.295 138.145 143.378C138.105 143.461 138.034 143.524 137.947 143.556C137.28 143.829 136.68 144.245 136.189 144.773C135.698 145.301 135.327 145.93 135.103 146.616C134.957 146.921 134.871 147.251 134.853 147.589C134.834 147.927 134.883 148.265 134.995 148.584C135.02 148.623 135.038 148.667 135.046 148.713C135.055 148.759 135.054 148.807 135.044 148.852C135.034 148.898 135.015 148.942 134.988 148.98C134.961 149.018 134.926 149.051 134.887 149.076C134.826 149.094 134.762 149.097 134.7 149.086Z" fill="#263238"/>
<path d="M131.05 175.88C130.882 176.52 131.05 177.13 131.522 177.238C131.994 177.346 132.427 176.903 132.585 176.254C132.742 175.604 132.526 174.994 132.102 174.896C131.679 174.798 131.207 175.231 131.05 175.88Z" fill="#263238"/>
<path d="M158.975 158.886C159.29 160.372 160.353 161.396 161.327 161.189C162.301 160.982 162.833 159.595 162.508 158.119C162.183 156.643 161.13 155.6 160.156 155.816C159.182 156.033 158.651 157.44 158.975 158.886Z" fill="#263238"/>
<path d="M162.055 158.424C162.009 158.425 161.964 158.418 161.922 158.402C161.88 158.385 161.841 158.361 161.808 158.33C161.775 158.299 161.749 158.262 161.73 158.221C161.712 158.179 161.702 158.135 161.7 158.089C161.494 152.648 159.427 145.888 155.403 143.89C155.32 143.848 155.257 143.775 155.227 143.687C155.198 143.598 155.204 143.502 155.245 143.418C155.265 143.376 155.293 143.338 155.328 143.307C155.363 143.277 155.404 143.253 155.448 143.238C155.492 143.224 155.539 143.218 155.585 143.222C155.631 143.226 155.677 143.239 155.718 143.261C160.028 145.396 162.183 152.235 162.399 158.021C162.403 158.067 162.398 158.114 162.383 158.158C162.368 158.202 162.344 158.242 162.312 158.276C162.281 158.311 162.242 158.338 162.2 158.357C162.157 158.375 162.111 158.385 162.065 158.385L162.055 158.424Z" fill="#263238"/>
<path d="M157.923 159.014C158.129 160.284 159.044 161.189 159.969 161.041C160.894 160.894 161.485 159.743 161.278 158.463C161.071 157.184 160.146 156.289 159.221 156.436C158.297 156.584 157.716 157.735 157.923 159.014Z" fill="white"/>
<path d="M157.843 159.123C158.139 160.697 158.965 161.858 159.683 161.72C160.402 161.583 160.726 160.205 160.431 158.631C160.136 157.056 159.309 155.895 158.591 156.033C157.873 156.171 157.538 157.548 157.843 159.123Z" fill="#263238"/>
<path d="M123.61 174.02C123.453 174.67 123.669 175.28 124.092 175.378C124.515 175.477 124.988 175.053 125.155 174.394C125.322 173.735 125.096 173.145 124.673 173.036C124.25 172.928 123.777 173.381 123.61 174.02Z" fill="#263238"/>
<path d="M231.398 93.8933C225.169 95.0052 224.382 94.4345 224.303 89.9573C224.224 85.4801 221.961 78.0115 225.11 75.6696C225.326 75.4646 225.592 75.32 225.881 75.25C226.171 75.18 226.474 75.1872 226.759 75.2709C227.045 75.3546 227.304 75.5117 227.51 75.7267C227.716 75.9417 227.862 76.207 227.934 76.4961C228.126 76.005 228.5 75.6071 228.979 75.3852C229.457 75.1634 230.003 75.1348 230.502 75.3055C230.63 74.3805 230.778 72.0091 232.47 71.3695C234.163 70.7299 235.717 72.2649 235.717 72.2649C235.717 72.2649 235.589 68.6143 238.049 68.9685C238.784 69.0859 239.466 69.4219 240.006 69.9327C240.547 70.4435 240.921 71.1054 241.08 71.832C241.08 71.832 242.497 69.7656 244.416 70.5823C246.335 71.399 245.931 73.8 245.931 73.8C245.931 73.8 247.968 72.816 249.483 73.9279C250.999 75.0398 249.897 76.8209 249.897 76.8209C249.897 76.8209 251.274 73.2785 253.902 75.2366C256.263 77.0078 254.118 79.7827 254.118 79.7827C254.118 79.7827 256.716 79.3596 257.346 80.6683C259.471 85.1258 251.373 90.1049 251.107 97.6325C238.669 102.336 231.398 93.8933 231.398 93.8933Z" fill="#263238"/>
<path d="M186.507 213.528L182.354 212.76L176.863 218.005C176.565 218.29 176.329 218.634 176.171 219.015C176.014 219.397 175.938 219.807 175.948 220.219L176.027 224.509C176.037 225.243 176.319 225.947 176.819 226.483C177.32 227.02 178.002 227.351 178.733 227.412L180.642 227.579C181.336 227.645 182.032 227.463 182.604 227.065C183.177 226.667 183.59 226.079 183.771 225.405L184.755 221.902C184.755 221.902 190.177 215.496 186.507 213.528Z" fill="#FFB573"/>
<path d="M228.445 135.064C225.66 142.277 222.885 149.519 220.209 156.781C217.533 164.043 214.876 171.334 212.386 178.508L211.943 179.836L211.638 180.702C211.52 181.027 211.402 181.361 211.294 181.617C210.831 182.788 210.369 183.752 209.907 184.726C208.982 186.694 208.047 188.456 207.102 190.237C205.203 193.779 203.245 197.194 201.267 200.598C197.331 207.417 193.395 214.079 189.321 220.839L176.795 213.046C180.928 206.62 184.913 199.988 188.731 193.366C190.61 190.04 192.46 186.704 194.182 183.398C195.038 181.745 195.865 180.092 196.593 178.478C196.937 177.701 197.282 176.904 197.508 176.254C197.587 176.067 197.616 175.939 197.666 175.811L197.823 175.3L198.276 173.863C200.647 166.306 203.137 159.005 205.538 151.595L212.74 129.445L228.445 135.064Z" fill="#C2D4FE"/>
<path opacity="0.6" d="M228.445 135.064C225.66 142.277 222.885 149.519 220.209 156.781C217.533 164.043 214.876 171.334 212.386 178.508L211.943 179.836L211.638 180.702C211.52 181.027 211.402 181.361 211.294 181.617C210.831 182.788 210.369 183.752 209.907 184.726C208.982 186.694 208.047 188.456 207.102 190.237C205.203 193.779 203.245 197.194 201.267 200.598C197.331 207.417 193.395 214.079 189.321 220.839L176.795 213.046C180.928 206.62 184.913 199.988 188.731 193.366C190.61 190.04 192.46 186.704 194.182 183.398C195.038 181.745 195.865 180.092 196.593 178.478C196.937 177.701 197.282 176.904 197.508 176.254C197.587 176.067 197.616 175.939 197.666 175.811L197.823 175.3L198.276 173.863C200.647 166.306 203.137 159.005 205.538 151.595L212.74 129.445L228.445 135.064Z" fill="white"/>
<path d="M190.915 398.432L182.089 398.865L186.261 375.878L194.655 377.807L190.915 398.432Z" fill="#FFB573"/>
<path d="M254.236 398.766H245.409L245.439 378.328H254.255L254.236 398.766Z" fill="#FFB573"/>
<path d="M244.573 397.743H255.328C255.501 397.74 255.669 397.799 255.803 397.909C255.936 398.019 256.026 398.173 256.056 398.343L257.473 406.215C257.505 406.41 257.493 406.609 257.44 406.799C257.387 406.989 257.292 407.165 257.164 407.315C257.036 407.464 256.876 407.585 256.697 407.667C256.518 407.749 256.322 407.79 256.125 407.789C252.661 407.73 250.142 407.524 245.783 407.524C243.107 407.524 234.959 407.799 231.299 407.799C227.638 407.799 227.264 404.139 228.79 403.804C235.678 402.318 240.863 400.272 243.117 398.313C243.516 397.952 244.034 397.749 244.573 397.743Z" fill="#263238"/>
<path opacity="0.2" d="M186.261 375.888L184.332 386.515L192.726 388.444L194.654 377.817L186.261 375.888Z" fill="black"/>
<path opacity="0.2" d="M254.255 378.328H245.429V388.857H254.255V378.328Z" fill="black"/>
<path d="M261.36 134.808C254.472 165.794 256.302 196.377 255.564 202.999L208.46 199.89C203.54 162.498 209.031 138.646 212.15 128.865C212.657 127.25 213.616 125.815 214.913 124.728C216.211 123.642 217.792 122.95 219.471 122.734C226.475 121.967 233.529 121.746 240.568 122.075C245.333 122.36 250.063 123.078 254.698 124.22C256.984 124.743 258.969 126.152 260.218 128.137C261.467 130.122 261.877 132.521 261.36 134.808Z" fill="#C2D4FE"/>
<path d="M247.161 101.076C245.606 106.912 243.766 117.244 246.728 122.469C247.191 123.285 246.305 123.984 246.266 124.929C246.157 127.822 242.241 128.687 235.235 128.727C228.229 128.766 225.228 125.844 227.137 123.089C227.429 122.669 227.874 122.379 228.377 122.282C234.94 120.815 235.068 115.669 234.172 110.759L247.161 101.076Z" fill="#FFB573"/>
<path opacity="0.4" d="M234.733 127.123C236.574 129.682 237.741 132.663 238.128 135.792C245.124 132.505 248.46 124.525 248.46 124.525L246.354 122.272C246.354 122.272 238.581 123.738 234.733 127.123Z" fill="black"/>
<path opacity="0.4" d="M234.044 127.153C231.468 129.249 229.294 131.797 227.628 134.67C222.738 131.64 224.352 123 224.352 123L228.337 122.213C228.337 122.213 230.118 123.856 234.044 127.153Z" fill="black"/>
<path d="M234.359 126.936L232.854 127.084L230.305 128.766C230.143 129.78 230.323 130.819 230.817 131.718C232.297 132.007 233.808 132.11 235.314 132.023C236.324 131.535 237.129 130.706 237.587 129.681L235.717 127.29L234.359 126.936Z" fill="#263238"/>
<path d="M234.359 126.936C236.25 129.302 237.7 131.988 238.64 134.867C245.636 131.58 249.71 123.728 249.71 123.728L246.335 120.776C246.335 120.776 238.207 123.571 234.359 126.936Z" fill="#C2D4FE"/>
<path d="M234.359 126.936C231.658 128.64 229.296 130.828 227.392 133.391C222.472 130.37 224.352 122.233 224.352 122.233L228.337 121.445C228.337 121.445 230.443 123.659 234.359 126.936Z" fill="#C2D4FE"/>
<path opacity="0.2" d="M241.867 105.022L234.191 110.749C234.424 111.933 234.552 113.135 234.575 114.341C237.34 114.134 241.316 111.389 241.798 108.515C242.029 107.364 242.052 106.181 241.867 105.022Z" fill="black"/>
<path d="M248.568 91.4333C247.456 100.122 247.249 105.209 242.546 109.45C235.471 115.738 224.972 111.035 223.466 102.188C222.108 94.2279 224.155 81.3572 232.922 78.4544C234.853 77.8037 236.917 77.6575 238.92 78.0296C240.923 78.4017 242.797 79.2798 244.365 80.5803C245.933 81.8809 247.142 83.5608 247.878 85.4604C248.613 87.3599 248.851 89.416 248.568 91.4333Z" fill="#FFB573"/>
<path d="M246.443 99.2855C244.475 97.3864 245.705 88.2942 246.699 85.6866C241.779 86.159 225.877 86.1393 226.477 81.7506C227.078 77.362 232.864 73.6326 242.32 76.7126C250.192 79.2808 252.16 83.207 252.16 86.4148C252.278 93.0076 246.443 99.2855 246.443 99.2855Z" fill="#263238"/>
<path d="M251.618 99.384C250.684 101.17 249.087 102.519 247.171 103.143C244.661 103.92 243.422 101.608 244.13 99.1282C244.76 96.9043 246.836 93.8048 249.345 94.1196C251.855 94.4345 252.77 97.17 251.618 99.384Z" fill="#FFB573"/>
<path d="M181.459 383.819L196.052 387.037C196.052 387.037 210.241 331.431 214.453 304.253C215.742 295.987 218.733 284.189 221.459 271.781C224.893 256.135 229.213 239.21 232.755 225.956C236.494 211.993 239.269 201.956 239.269 201.956L208.46 199.919C208.46 199.919 194.123 272.647 191.23 299.421C188.209 327.249 181.459 383.819 181.459 383.819Z" fill="#263238"/>
<path opacity="0.2" d="M221.458 271.761C224.893 256.116 229.212 239.191 232.755 225.936L229.517 219.048C221.872 228.18 219.914 256.43 221.458 271.761Z" fill="black"/>
<path d="M223.142 200.864C223.142 200.864 229.518 275.185 231.998 300.917C234.753 329.099 242.143 386.83 242.143 386.83H256.962C256.962 386.83 257.631 325.35 254.994 298.132C254.62 244.622 255.555 203.009 255.555 203.009L223.142 200.864Z" fill="#263238"/>
<path d="M240.254 387.175H259.284V381.487L239.516 380.395L240.254 387.175Z" fill="#C2D4FE"/>
<path d="M179.55 383.76L196.937 387.598L198.177 381.979L179.973 377.394L179.55 383.76Z" fill="#C2D4FE"/>
<path d="M235.864 92.9881C235.864 93.6965 235.402 94.2476 234.939 94.2181C234.477 94.1885 234.132 93.5883 234.181 92.8798C234.231 92.1713 234.644 91.6203 235.106 91.6498C235.569 91.6793 235.913 92.2796 235.864 92.9881Z" fill="#263238"/>
<path d="M227.835 92.4961C227.835 93.2046 227.372 93.7556 226.91 93.7261C226.447 93.6966 226.103 93.0963 226.152 92.3879C226.201 91.6794 226.615 91.1284 227.077 91.1579C227.54 91.1874 227.884 91.7483 227.835 92.4961Z" fill="#263238"/>
<path d="M229.675 92.988C228.683 95.099 227.409 97.0653 225.887 98.833C227.058 100.093 229.232 99.6989 229.232 99.6989L229.675 92.988Z" fill="#ED893E"/>
<path d="M232.105 101.795C232.903 101.75 233.683 101.544 234.398 101.188C235.114 100.833 235.75 100.337 236.268 99.7285C236.304 99.69 236.325 99.6389 236.325 99.5858C236.325 99.5327 236.304 99.4816 236.268 99.4431C236.227 99.4058 236.175 99.385 236.12 99.385C236.065 99.385 236.012 99.4058 235.972 99.4431C235.388 100.11 234.655 100.63 233.833 100.962C233.011 101.293 232.123 101.427 231.239 101.352C231.212 101.349 231.185 101.352 231.159 101.36C231.132 101.368 231.108 101.381 231.087 101.398C231.066 101.416 231.049 101.437 231.036 101.461C231.023 101.485 231.015 101.512 231.013 101.539C231.01 101.595 231.029 101.65 231.066 101.692C231.102 101.734 231.154 101.76 231.21 101.765C231.507 101.793 231.806 101.803 232.105 101.795Z" fill="#263238"/>
<path d="M237.823 90.5281C237.893 90.5201 237.96 90.4966 238.019 90.4592C238.113 90.3987 238.179 90.3038 238.202 90.1952C238.226 90.0865 238.207 89.9728 238.147 89.8787C237.796 89.3125 237.314 88.8385 236.743 88.4962C236.171 88.1539 235.526 87.9531 234.861 87.9106C234.761 87.926 234.67 87.9766 234.604 88.0533C234.538 88.1301 234.502 88.2278 234.502 88.3288C234.502 88.4299 234.538 88.5276 234.604 88.6044C234.67 88.6811 234.761 88.7317 234.861 88.7471C235.386 88.7859 235.894 88.9488 236.344 89.2225C236.794 89.4962 237.173 89.8729 237.449 90.3215C237.485 90.3875 237.54 90.4418 237.606 90.4783C237.672 90.5149 237.747 90.5321 237.823 90.5281Z" fill="#263238"/>
<path d="M223.87 89.475C223.938 89.4702 224.004 89.4489 224.062 89.4129C224.121 89.377 224.169 89.3273 224.204 89.2684C224.455 88.8111 224.811 88.4195 225.242 88.1255C225.672 87.8314 226.167 87.6431 226.684 87.5759C226.794 87.566 226.895 87.5146 226.968 87.4324C227.041 87.3501 227.081 87.2431 227.078 87.1331C227.07 87.0226 227.019 86.9195 226.937 86.8459C226.854 86.7723 226.745 86.7341 226.635 86.7395C225.974 86.8193 225.342 87.0568 224.793 87.4318C224.243 87.8068 223.791 88.3085 223.476 88.8945C223.423 88.9898 223.41 89.1023 223.439 89.2074C223.469 89.3125 223.539 89.4016 223.634 89.4554C223.708 89.4888 223.791 89.4958 223.87 89.475Z" fill="#263238"/>
<path d="M241.591 399.278C242.374 399.259 243.153 399.153 243.913 398.963C243.953 398.954 243.989 398.933 244.017 398.903C244.045 398.873 244.064 398.836 244.071 398.795C244.081 398.757 244.079 398.716 244.065 398.679C244.051 398.642 244.025 398.61 243.992 398.589C243.677 398.382 240.902 396.621 239.898 397.132C239.79 397.189 239.698 397.274 239.632 397.377C239.567 397.481 239.53 397.6 239.525 397.723C239.49 397.925 239.507 398.134 239.574 398.328C239.641 398.522 239.756 398.697 239.908 398.835C240.401 399.172 240.996 399.329 241.591 399.278ZM243.313 398.667C241.807 398.973 240.656 398.913 240.194 398.51C240.089 398.417 240.01 398.298 239.965 398.165C239.92 398.032 239.911 397.89 239.938 397.752C239.938 397.595 240.017 397.536 240.076 397.506C240.597 397.25 242.191 397.998 243.313 398.667Z" fill="#C2D4FE"/>
<path d="M243.864 398.973C243.899 398.986 243.938 398.986 243.973 398.973C244.006 398.955 244.034 398.927 244.053 398.894C244.072 398.861 244.082 398.824 244.081 398.786C244.081 398.677 243.973 396.129 242.979 395.292C242.859 395.187 242.718 395.109 242.565 395.063C242.412 395.017 242.251 395.005 242.093 395.027C241.936 395.027 241.783 395.081 241.659 395.179C241.536 395.277 241.45 395.414 241.414 395.568C241.188 396.552 242.871 398.52 243.766 398.983C243.799 398.989 243.833 398.986 243.864 398.973ZM242.231 395.391C242.406 395.393 242.574 395.459 242.703 395.578C243.333 396.109 243.559 397.595 243.628 398.343C242.753 397.654 241.66 396.188 241.818 395.607C241.818 395.558 241.818 395.43 242.133 395.401H242.231V395.391Z" fill="#C2D4FE"/>
<path d="M180.77 394.978L191.122 397.93C191.287 397.977 191.431 398.081 191.528 398.222C191.625 398.364 191.669 398.536 191.653 398.707L190.886 406.648C190.861 406.843 190.794 407.031 190.69 407.198C190.585 407.365 190.446 407.508 190.282 407.616C190.117 407.724 189.932 407.796 189.737 407.826C189.542 407.856 189.343 407.843 189.154 407.789C185.838 406.805 183.476 405.91 179.314 404.719C176.736 403.991 168.342 400.98 165.282 398.894C162.222 396.808 164.023 393.59 165.469 394.181C171.973 396.818 176.549 396.395 179.245 395.165C179.715 394.924 180.256 394.858 180.77 394.978Z" fill="#263238"/>
<path d="M177.474 395.647C178.234 395.836 179.013 395.945 179.796 395.971C179.838 395.974 179.88 395.964 179.917 395.943C179.954 395.922 179.984 395.891 180.003 395.853C180.026 395.82 180.039 395.781 180.039 395.74C180.039 395.7 180.026 395.66 180.003 395.627C179.757 395.352 177.562 392.911 176.47 393.118C176.349 393.145 176.236 393.202 176.143 393.285C176.05 393.367 175.98 393.473 175.939 393.59C175.854 393.774 175.815 393.977 175.827 394.179C175.839 394.382 175.901 394.578 176.008 394.751C176.383 395.205 176.899 395.52 177.474 395.647ZM179.304 395.529C177.769 395.411 176.677 395.037 176.352 394.545C176.286 394.422 176.251 394.285 176.251 394.146C176.251 394.007 176.286 393.87 176.352 393.748C176.411 393.59 176.49 393.561 176.559 393.551C177.12 393.423 178.399 394.584 179.304 395.568V395.529Z" fill="#C2D4FE"/>
<path d="M179.747 395.962C179.786 395.972 179.827 395.972 179.866 395.962C179.904 395.952 179.938 395.932 179.966 395.905C179.994 395.877 180.013 395.842 180.023 395.804C180.023 395.706 180.633 393.226 179.915 392.144C179.827 392.012 179.712 391.9 179.578 391.815C179.444 391.73 179.294 391.675 179.137 391.652C178.985 391.609 178.822 391.619 178.676 391.68C178.53 391.74 178.408 391.848 178.33 391.986C177.838 392.872 178.941 395.194 179.659 395.922C179.685 395.942 179.715 395.956 179.747 395.962ZM179.147 392.075C179.315 392.122 179.46 392.231 179.551 392.38C180.023 393.069 179.826 394.564 179.698 395.332C179.039 394.436 178.409 392.734 178.714 392.213C178.714 392.163 178.803 392.055 179.078 392.094L179.147 392.075Z" fill="#C2D4FE"/>
<path d="M247.309 121.701C247.204 121.684 247.097 121.692 246.995 121.722C246.894 121.753 246.801 121.807 246.723 121.879C246.645 121.951 246.585 122.039 246.547 122.138C246.508 122.237 246.493 122.343 246.502 122.449C246.846 127.723 238.63 137.209 236.662 165.617C235.491 182.896 234.418 236.77 235.205 264.794C235.217 265.162 235.312 265.522 235.483 265.848C235.655 266.173 235.899 266.455 236.195 266.673C236.492 266.89 236.835 267.037 237.197 267.102C237.559 267.167 237.931 267.148 238.285 267.048C252.809 262.994 259.668 272.824 262.462 261.232C262.314 247.348 258.113 197.499 259.195 185.681C260.278 173.863 264.774 141.755 265.896 133.194C266.89 125.755 251.372 122.439 247.309 121.701Z" fill="#C2D4FE"/>
<path opacity="0.7" d="M247.309 121.701C247.204 121.684 247.097 121.692 246.995 121.722C246.894 121.753 246.801 121.807 246.723 121.879C246.645 121.951 246.585 122.039 246.547 122.138C246.508 122.237 246.493 122.343 246.502 122.449C246.846 127.723 238.63 137.209 236.662 165.617C235.491 182.896 234.418 236.77 235.205 264.794C235.217 265.162 235.312 265.522 235.483 265.848C235.655 266.173 235.899 266.455 236.195 266.673C236.492 266.89 236.835 267.037 237.197 267.102C237.559 267.167 237.931 267.148 238.285 267.048C252.809 262.994 259.668 272.824 262.462 261.232C262.314 247.348 258.113 197.499 259.195 185.681C260.278 173.863 264.774 141.755 265.896 133.194C266.89 125.755 251.372 122.439 247.309 121.701Z" fill="white"/>
<path opacity="0.2" d="M256.882 145.78C256.243 150.168 255.997 167.9 260.218 176.431C260.927 170.527 261.852 163.511 262.747 156.751L256.882 145.78Z" fill="#C2D4FE"/>
<path d="M262.915 222.463L258.723 222.955L255.014 229.577C254.81 229.935 254.684 230.332 254.643 230.743C254.603 231.153 254.648 231.567 254.777 231.958L256.116 236.032C256.343 236.729 256.821 237.317 257.458 237.681C258.094 238.044 258.844 238.158 259.56 238L261.429 237.606C262.116 237.467 262.731 237.087 263.164 236.535C263.597 235.984 263.819 235.296 263.791 234.595L263.673 230.974C263.673 230.974 266.999 223.289 262.915 222.463Z" fill="#FFB573"/>
<path d="M265.217 129.888C266.555 133.824 267.795 137.711 269.025 141.647C270.255 145.583 271.485 149.519 272.646 153.455C273.807 157.391 274.929 161.415 275.962 165.519C276.474 167.575 276.946 169.651 277.399 171.826C277.605 172.918 277.812 174.03 277.979 175.211C278.058 175.821 278.147 176.382 278.196 177.061L278.284 178.045L278.334 179.157C278.353 179.53 278.353 179.905 278.334 180.279C278.334 180.672 278.334 181.046 278.284 181.351L278.196 182.335L278.088 183.221C277.95 184.411 277.773 185.494 277.596 186.576C277.241 188.721 276.828 190.788 276.405 192.834C275.559 196.928 274.614 200.933 273.66 204.918C272.705 208.903 271.692 212.878 270.708 216.844L267.756 228.741L253.507 224.873C255.711 217.188 257.719 209.366 259.578 201.592C260.484 197.656 261.33 193.799 262.088 189.951C262.462 187.983 262.816 186.114 263.072 184.264C263.219 183.339 263.337 182.424 263.416 181.597C263.493 180.944 263.519 180.286 263.495 179.629V179.216L263.426 178.684C263.426 178.35 263.308 177.907 263.249 177.523C263.111 176.697 262.934 175.821 262.737 174.926C262.334 173.135 261.852 171.285 261.33 169.425C260.346 165.696 259.096 161.917 257.827 158.158C255.318 150.64 252.494 143.074 249.581 135.713L265.217 129.888Z" fill="#C2D4FE"/>
<path opacity="0.7" d="M265.217 129.888C266.555 133.824 267.795 137.711 269.025 141.647C270.255 145.583 271.485 149.519 272.646 153.455C273.807 157.391 274.929 161.415 275.962 165.519C276.474 167.575 276.946 169.651 277.399 171.826C277.605 172.918 277.812 174.03 277.979 175.211C278.058 175.821 278.147 176.382 278.196 177.061L278.284 178.045L278.334 179.157C278.353 179.53 278.353 179.905 278.334 180.279C278.334 180.672 278.334 181.046 278.284 181.351L278.196 182.335L278.088 183.221C277.95 184.411 277.773 185.494 277.596 186.576C277.241 188.721 276.828 190.788 276.405 192.834C275.559 196.928 274.614 200.933 273.66 204.918C272.705 208.903 271.692 212.878 270.708 216.844L267.756 228.741L253.507 224.873C255.711 217.188 257.719 209.366 259.578 201.592C260.484 197.656 261.33 193.799 262.088 189.951C262.462 187.983 262.816 186.114 263.072 184.264C263.219 183.339 263.337 182.424 263.416 181.597C263.493 180.944 263.519 180.286 263.495 179.629V179.216L263.426 178.684C263.426 178.35 263.308 177.907 263.249 177.523C263.111 176.697 262.934 175.821 262.737 174.926C262.334 173.135 261.852 171.285 261.33 169.425C260.346 165.696 259.096 161.917 257.827 158.158C255.318 150.64 252.494 143.074 249.581 135.713L265.217 129.888Z" fill="white"/>
<path d="M228.17 120.963C228.386 120.962 228.599 121.021 228.782 121.136C228.966 121.25 229.113 121.415 229.207 121.609C229.301 121.804 229.337 122.022 229.312 122.237C229.287 122.452 229.202 122.655 229.065 122.823C226.723 125.539 225.247 129.268 222.473 141.234C219.127 155.669 212.003 228.298 210.665 263.889C210.658 264.185 210.587 264.476 210.457 264.741C210.328 265.007 210.142 265.242 209.913 265.429C209.684 265.616 209.417 265.751 209.13 265.825C208.844 265.899 208.545 265.91 208.254 265.857C201.307 264.578 196.544 267.943 195.786 263.486C194.95 258.566 198.069 211.57 203.904 189.469C202.989 169.868 206.296 130.547 212.898 125.322C216.48 122.419 224.096 121.032 228.17 120.963Z" fill="#C2D4FE"/>
<path opacity="0.7" d="M228.17 120.963C228.386 120.962 228.599 121.021 228.782 121.136C228.966 121.25 229.113 121.415 229.207 121.609C229.301 121.804 229.337 122.022 229.312 122.237C229.287 122.452 229.202 122.655 229.065 122.823C226.723 125.539 225.247 129.268 222.473 141.234C219.127 155.669 212.003 228.298 210.665 263.889C210.658 264.185 210.587 264.476 210.457 264.741C210.328 265.007 210.142 265.242 209.913 265.429C209.684 265.616 209.417 265.751 209.13 265.825C208.844 265.899 208.545 265.91 208.254 265.857C201.307 264.578 196.544 267.943 195.786 263.486C194.95 258.566 198.069 211.57 203.904 189.469C202.989 169.868 206.296 130.547 212.898 125.322C216.48 122.419 224.096 121.032 228.17 120.963Z" fill="white"/>
<path d="M231.997 130.715C231.997 130.715 223.496 154.596 220.504 174.611C220.268 180.052 222.856 190.591 224.952 195.186C229.331 185.651 232.066 180.033 232.499 174.611C233.198 166.453 234.349 130.872 234.349 130.872L231.997 130.715Z" fill="#263238"/>
<path d="M249.788 159.123C249.702 159.12 249.619 159.089 249.552 159.034C249.485 158.98 249.438 158.905 249.418 158.821C249.398 158.737 249.406 158.649 249.441 158.57C249.476 158.491 249.535 158.426 249.611 158.385L251.225 157.538C252.731 156.763 253.966 155.548 254.764 154.054C255.562 152.559 255.886 150.857 255.692 149.174L253.94 133.312C253.811 132.13 253.288 131.025 252.454 130.177C251.621 129.328 250.526 128.785 249.346 128.635C248.166 128.485 246.97 128.737 245.95 129.35C244.931 129.963 244.147 130.901 243.726 132.013L238.059 146.921C237.448 148.501 237.333 150.229 237.729 151.876C238.124 153.523 239.011 155.011 240.273 156.141L241.631 157.371C241.703 157.445 241.743 157.544 241.743 157.647C241.743 157.75 241.703 157.849 241.631 157.922C241.557 157.994 241.458 158.035 241.355 158.035C241.252 158.035 241.153 157.994 241.08 157.922L239.722 156.702C238.348 155.461 237.383 153.832 236.956 152.031C236.529 150.23 236.66 148.341 237.33 146.616L243.048 131.738C243.536 130.467 244.436 129.396 245.605 128.698C246.774 127.999 248.144 127.713 249.494 127.886C250.845 128.058 252.099 128.679 253.055 129.648C254.011 130.618 254.614 131.88 254.767 133.233L256.519 149.086C256.726 150.93 256.366 152.794 255.487 154.429C254.608 156.064 253.252 157.392 251.598 158.237L249.985 159.073C249.926 159.111 249.857 159.128 249.788 159.123Z" fill="#263238"/>
<path d="M254.668 136.776C254.575 136.777 254.484 136.743 254.413 136.682C254.342 136.62 254.297 136.534 254.285 136.441C254.056 135.166 253.408 134.003 252.444 133.137C251.48 132.27 250.254 131.75 248.961 131.659C246.777 131.384 243.805 132.072 242.614 134.946C242.597 134.997 242.57 135.044 242.534 135.084C242.498 135.123 242.454 135.156 242.406 135.178C242.357 135.201 242.304 135.213 242.25 135.214C242.197 135.215 242.143 135.205 242.093 135.185C242.044 135.165 241.998 135.135 241.961 135.097C241.923 135.058 241.894 135.013 241.874 134.963C241.855 134.913 241.846 134.859 241.848 134.805C241.85 134.752 241.863 134.699 241.886 134.651C242.552 133.364 243.596 132.313 244.879 131.64C246.162 130.966 247.621 130.704 249.058 130.888C250.495 131.071 251.84 131.692 252.913 132.666C253.985 133.64 254.732 134.92 255.052 136.333C255.066 136.434 255.04 136.536 254.979 136.617C254.918 136.698 254.828 136.752 254.727 136.766L254.668 136.776Z" fill="#263238"/>
<path d="M249.375 128.638C249.324 128.636 249.273 128.623 249.227 128.601C249.181 128.579 249.139 128.547 249.106 128.509C249.072 128.47 249.046 128.425 249.029 128.376C249.013 128.328 249.007 128.276 249.011 128.225C249.129 126.306 248.853 122.813 247.043 121.908C246.95 121.859 246.881 121.776 246.849 121.677C246.818 121.577 246.827 121.469 246.876 121.376C246.924 121.284 247.007 121.214 247.107 121.183C247.206 121.151 247.314 121.161 247.407 121.209C250.024 122.557 249.788 127.694 249.749 128.274C249.744 128.371 249.703 128.462 249.633 128.53C249.564 128.597 249.472 128.636 249.375 128.638Z" fill="#263238"/>
<path d="M242.241 157.765C242.143 158.503 241.68 159.044 241.198 158.975C240.716 158.906 240.401 158.276 240.499 157.548C240.598 156.82 241.05 156.269 241.533 156.338C242.015 156.407 242.33 157.036 242.241 157.765Z" fill="#263238"/>
<path d="M219.362 141.814C218.743 143.379 217.394 144.323 216.41 143.92C215.426 143.516 215.043 141.952 215.663 140.348C216.283 138.744 217.631 137.839 218.615 138.242C219.599 138.646 219.973 140.249 219.362 141.814Z" fill="#263238"/>
<path d="M216.126 140.801H216.047C215.946 140.779 215.857 140.719 215.799 140.632C215.742 140.546 215.722 140.44 215.742 140.338C217.041 133.873 222.414 123.61 227.147 120.658C227.19 120.621 227.24 120.594 227.294 120.578C227.349 120.562 227.406 120.558 227.462 120.567C227.518 120.575 227.572 120.596 227.619 120.627C227.667 120.658 227.707 120.699 227.737 120.747C227.767 120.795 227.787 120.849 227.794 120.905C227.801 120.962 227.796 121.019 227.78 121.073C227.763 121.127 227.734 121.177 227.696 121.219C227.659 121.261 227.612 121.295 227.56 121.317C222.984 124.201 217.779 134.109 216.51 140.476C216.493 140.566 216.446 140.648 216.376 140.708C216.306 140.767 216.218 140.8 216.126 140.801Z" fill="#263238"/>
<path d="M220.485 142.139C220.032 143.487 218.871 144.323 217.887 143.999C216.903 143.674 216.461 142.306 216.903 140.948C217.346 139.59 218.517 138.764 219.501 139.088C220.485 139.413 220.938 140.781 220.485 142.139Z" fill="white"/>
<path d="M220.554 142.276C219.953 143.939 218.841 145.071 218.084 144.796C217.326 144.52 217.198 142.946 217.808 141.273C218.418 139.6 219.52 138.478 220.278 138.754C221.036 139.029 221.164 140.604 220.554 142.276Z" fill="#263238"/>
<path d="M250.664 158.847C250.575 159.575 250.103 160.116 249.621 160.057C249.139 159.998 248.824 159.349 248.922 158.621C249.021 157.893 249.483 157.351 249.965 157.41C250.447 157.469 250.762 158.109 250.664 158.847Z" fill="#263238"/>
<path d="M306.458 116.21C309.744 125.194 301.006 129.711 295.279 142.946C289.552 156.18 303.368 171.964 324.573 172.308C345.778 172.653 346.447 152.343 343.161 137.77C339.874 123.197 346.742 120.825 345.286 109.696C343.417 95.074 322.349 83.9942 313.985 97.4159C306.546 96.7173 303.584 108.358 306.458 116.21Z" fill="#263238"/>
<path d="M369.266 237.144V236.003C369.246 235.455 369.109 234.918 368.863 234.428L365.301 227.402L361.128 226.615C358.176 229.794 361.128 236.131 361.128 236.131V237.144C361.129 237.974 361.4 238.782 361.901 239.444C362.402 240.107 363.105 240.588 363.903 240.814L364.464 240.982C365.042 241.134 365.647 241.149 366.232 241.026C366.816 240.902 367.364 240.644 367.83 240.271C368.297 239.898 368.67 239.421 368.919 238.878C369.169 238.335 369.287 237.741 369.266 237.144Z" fill="#FFC3BD"/>
<path d="M351.584 146.763L353.119 157.528L354.733 168.264C355.264 171.855 355.825 175.427 356.396 179.009L358.098 189.676L358.305 190.729C358.374 191.073 358.492 191.516 358.58 191.9L358.876 193.11L359.22 194.36C359.663 196.013 360.204 197.725 360.676 199.417C361.66 202.812 362.792 206.246 363.904 209.661C366.167 216.48 368.529 223.328 371.048 230.059L357.134 234.979L350.167 214.177C349.016 210.704 347.845 207.23 346.733 203.688C346.182 201.907 345.631 200.145 345.109 198.305L344.706 196.938L344.322 195.511C344.194 195.019 344.057 194.586 343.938 194.045L343.574 192.431L341.518 181.607C340.862 178.038 340.176 174.47 339.461 170.901L337.355 160.195L335.161 149.568L351.584 146.763Z" fill="#C1CEEC"/>
<path opacity="0.6" d="M351.584 146.763L353.119 157.528L354.733 168.264C355.264 171.855 355.825 175.427 356.396 179.009L358.098 189.676L358.305 190.729C358.374 191.073 358.492 191.516 358.58 191.9L358.876 193.11L359.22 194.36C359.663 196.013 360.204 197.725 360.676 199.417C361.66 202.812 362.792 206.246 363.904 209.661C366.167 216.48 368.529 223.328 371.048 230.059L357.134 234.979L350.167 214.177C349.016 210.704 347.845 207.23 346.733 203.688C346.182 201.907 345.631 200.145 345.109 198.305L344.706 196.938L344.322 195.511C344.194 195.019 344.057 194.586 343.938 194.045L343.574 192.431L341.518 181.607C340.862 178.038 340.176 174.47 339.461 170.901L337.355 160.195L335.161 149.568L351.584 146.763Z" fill="white"/>
<path d="M349.369 145.937C349.832 151.182 349.419 164.23 344.154 196.574H307.746C308.327 182.522 308.366 173.568 302.334 146.754C302.197 146.151 302.185 145.526 302.299 144.918C302.413 144.31 302.65 143.732 302.995 143.22C303.341 142.707 303.788 142.271 304.309 141.938C304.83 141.604 305.414 141.382 306.024 141.283C309.579 140.699 313.163 140.308 316.76 140.112C322.27 139.718 327.801 139.718 333.311 140.112C337.837 140.525 342.747 141.342 345.719 141.883C346.687 142.067 347.568 142.563 348.227 143.295C348.887 144.027 349.288 144.955 349.369 145.937Z" fill="#263238"/>
<path d="M318.364 121.475C319.407 126.798 320.45 136.559 316.721 140.112C316.721 140.112 321.385 145.779 328.529 145.779C335.673 145.779 333.281 140.112 333.281 140.112C327.377 138.695 327.495 134.286 328.529 130.154L318.364 121.475Z" fill="#FFC3BD"/>
<path opacity="0.2" d="M322.507 125.017L328.519 130.144C328.264 131.111 328.093 132.099 328.007 133.096C325.734 132.771 322.172 130.833 321.68 128.363C321.454 127.192 322.31 125.568 322.507 125.017Z" fill="black"/>
<path d="M312.096 111.025C313.483 119.822 313.887 123.571 318.787 127.684C326.167 133.873 336.666 130.242 337.936 121.209C339.077 113.081 336.607 100.053 327.613 97.3667C325.632 96.7641 323.53 96.6778 321.505 97.1161C319.481 97.5543 317.603 98.5026 316.048 99.8709C314.494 101.239 313.314 102.982 312.623 104.934C311.931 106.886 311.75 108.983 312.096 111.025Z" fill="#FFC3BD"/>
<path d="M313.562 117.362C318.6 112.373 320.332 105.435 319.859 102.602C324.711 103.95 328.273 102.041 328.056 101.214C331.48 104.56 337.689 107.207 336.991 103.605C336.292 100.004 331.697 93.3618 322.113 95.7332C312.529 98.1047 308.839 107.945 308.976 111.94C309.114 115.935 313.562 117.362 313.562 117.362Z" fill="#263238"/>
<path d="M324.721 112.019C324.79 112.747 325.223 113.288 325.705 113.249C326.187 113.209 326.502 112.579 326.433 111.861C326.364 111.143 325.921 110.592 325.449 110.631C324.977 110.67 324.721 111.3 324.721 112.019Z" fill="#263238"/>
<path d="M332.898 111.241C332.967 111.96 333.41 112.511 333.882 112.461C334.354 112.412 334.679 111.802 334.61 111.084C334.541 110.365 334.098 109.814 333.626 109.854C333.154 109.893 332.829 110.523 332.898 111.241Z" fill="#263238"/>
<path d="M333.429 109.913L335.111 109.253C335.111 109.253 334.344 110.69 333.429 109.913Z" fill="#263238"/>
<path d="M330.517 112.776C331.312 114.36 332.322 115.827 333.518 117.135C333.176 117.432 332.773 117.65 332.338 117.776C331.903 117.902 331.446 117.931 330.999 117.863L330.517 112.776Z" fill="#ED847E"/>
<path d="M327.338 121.032C327.695 121.056 328.054 121.056 328.411 121.032C328.467 121.024 328.517 120.996 328.552 120.952C328.587 120.908 328.603 120.852 328.598 120.796C328.597 120.768 328.59 120.741 328.577 120.716C328.565 120.691 328.548 120.669 328.526 120.652C328.505 120.634 328.48 120.621 328.453 120.614C328.427 120.606 328.399 120.605 328.371 120.609C327.476 120.712 326.569 120.604 325.723 120.293C324.877 119.982 324.116 119.477 323.501 118.818C323.463 118.783 323.414 118.764 323.362 118.762C323.311 118.76 323.261 118.777 323.221 118.809C323.18 118.841 323.153 118.886 323.143 118.936C323.133 118.986 323.141 119.039 323.166 119.084C323.698 119.668 324.341 120.141 325.057 120.475C325.773 120.81 326.549 120.999 327.338 121.032Z" fill="#263238"/>
<path d="M310.147 118.178C310.804 119.771 312.063 121.041 313.65 121.711C315.756 122.577 317.085 120.727 316.721 118.631C316.396 116.663 314.9 113.937 312.676 113.977C312.192 114 311.721 114.143 311.305 114.392C310.889 114.64 310.541 114.988 310.291 115.403C310.041 115.818 309.897 116.289 309.872 116.773C309.847 117.257 309.942 117.74 310.147 118.178Z" fill="#FFC3BD"/>
<path d="M321.916 108.24C322.001 108.27 322.093 108.273 322.179 108.248C322.265 108.223 322.342 108.172 322.398 108.102C323.638 106.577 326.167 106.725 326.187 106.725C326.298 106.73 326.408 106.692 326.492 106.619C326.576 106.545 326.629 106.442 326.639 106.331C326.645 106.275 326.639 106.219 326.621 106.165C326.604 106.112 326.576 106.062 326.54 106.02C326.503 105.978 326.458 105.943 326.407 105.919C326.357 105.894 326.302 105.881 326.246 105.878C326.127 105.878 323.244 105.701 321.739 107.571C321.669 107.659 321.636 107.771 321.647 107.883C321.658 107.995 321.712 108.098 321.798 108.171L321.916 108.24Z" fill="#263238"/>
<path d="M335.859 107.345C335.952 107.35 336.045 107.325 336.122 107.272C336.2 107.22 336.257 107.143 336.287 107.054C336.316 106.966 336.315 106.87 336.284 106.782C336.253 106.693 336.193 106.618 336.115 106.567C335.564 106.179 334.929 105.927 334.262 105.833C333.594 105.738 332.914 105.805 332.277 106.026C332.174 106.071 332.092 106.156 332.05 106.26C332.008 106.365 332.008 106.482 332.051 106.587C332.072 106.639 332.104 106.686 332.144 106.726C332.184 106.766 332.232 106.797 332.284 106.818C332.336 106.839 332.392 106.849 332.448 106.849C332.505 106.848 332.56 106.836 332.612 106.813C333.118 106.645 333.656 106.599 334.183 106.679C334.71 106.76 335.21 106.964 335.643 107.276C335.707 107.317 335.782 107.341 335.859 107.345Z" fill="#263238"/>
<path d="M366.777 400.281L375.84 399.848L373.153 379.381L364.101 379.824L366.777 400.281Z" fill="#FFC3BD"/>
<g opacity="0.2">
<path opacity="0.2" d="M373.153 379.391L374.54 389.94L365.477 390.372L364.09 379.824L373.153 379.391Z" fill="black"/>
</g>
<path d="M344.154 196.574C344.154 196.574 355.559 265.7 360.203 292.651C365.045 320.676 375.947 386.633 375.947 386.633L363.962 388.601C363.962 388.601 347.805 322.575 341.33 295.121C334.304 265.159 317.281 224.982 317.458 196.652L344.154 196.574Z" fill="#4A607A"/>
<path opacity="0.2" d="M325.842 217.789C324.13 215.299 320.834 211.806 318.305 208.933C320.597 226.546 327.161 246.984 333.153 266.231C334.747 251.569 333.842 229.331 325.842 217.789Z" fill="black"/>
<path d="M310.866 398.894H319.84L320.441 378.112H311.457L310.866 398.894Z" fill="#FFC3BD"/>
<path d="M320.263 397.536H310.177C310.002 397.534 309.833 397.596 309.701 397.71C309.569 397.824 309.482 397.983 309.459 398.156L308.307 406.126C308.287 406.329 308.309 406.533 308.372 406.727C308.435 406.92 308.538 407.098 308.675 407.249C308.811 407.4 308.977 407.521 309.163 407.604C309.349 407.687 309.55 407.73 309.754 407.73C313.267 407.661 314.959 407.455 319.397 407.455C322.123 407.455 327.761 407.74 331.53 407.74C335.298 407.74 335.466 404.02 333.931 403.676C326.895 402.171 324.091 400.084 321.759 398.087C321.339 397.735 320.81 397.541 320.263 397.536Z" fill="#263238"/>
<g opacity="0.2">
<path opacity="0.2" d="M320.431 378.122L320.125 388.837H311.151L311.456 378.122H320.431Z" fill="black"/>
</g>
<path d="M333.911 196.574C333.911 196.574 330.271 266.585 327.811 293.842C325.242 322.201 322.153 386.466 322.153 386.466H310.01C310.01 386.466 307.845 322.447 308.691 294.482C309.607 263.978 302.276 224.903 307.225 196.574H333.911Z" fill="#4A607A"/>
<path d="M308.956 386.899L323.195 387.164L323.411 378.486L308.897 379.391L308.956 386.899Z" fill="#263238"/>
<path d="M323.628 399.14C324.395 399.21 325.162 399.016 325.803 398.589C325.947 398.46 326.058 398.297 326.125 398.115C326.192 397.933 326.213 397.738 326.186 397.546C326.179 397.43 326.143 397.318 326.081 397.22C326.019 397.122 325.934 397.041 325.832 396.985C324.73 396.375 321.148 398.205 320.745 398.422C320.707 398.443 320.677 398.475 320.658 398.513C320.638 398.552 320.631 398.595 320.637 398.638C320.642 398.682 320.661 398.722 320.691 398.754C320.721 398.786 320.761 398.807 320.804 398.815C321.733 399.013 322.678 399.122 323.628 399.14ZM325.232 397.28C325.367 397.277 325.502 397.304 325.625 397.359C325.667 397.38 325.702 397.413 325.726 397.453C325.75 397.493 325.763 397.538 325.763 397.585C325.785 397.71 325.773 397.838 325.73 397.957C325.687 398.076 325.614 398.182 325.517 398.264C324.976 398.756 323.5 398.845 321.512 398.51C322.673 397.891 323.931 397.474 325.232 397.28Z" fill="#407BFF"/>
<path d="M320.843 398.825H320.932C322.005 398.343 324.12 396.404 323.953 395.391C323.953 395.145 323.746 394.849 323.156 394.79C322.945 394.766 322.73 394.786 322.527 394.848C322.324 394.911 322.136 395.015 321.975 395.155C320.853 396.089 320.647 398.51 320.637 398.608C320.633 398.646 320.639 398.684 320.655 398.719C320.67 398.753 320.695 398.783 320.725 398.805C320.763 398.821 320.803 398.828 320.843 398.825ZM322.989 395.184H323.117C323.5 395.184 323.53 395.371 323.53 395.43C323.638 396.04 322.201 397.555 321.109 398.215C321.193 397.197 321.592 396.231 322.251 395.45C322.456 395.274 322.718 395.18 322.989 395.184Z" fill="#407BFF"/>
<path d="M375.732 397.536H365.646C365.565 397.531 365.483 397.544 365.408 397.574C365.333 397.604 365.265 397.65 365.209 397.709C365.154 397.769 365.112 397.839 365.087 397.916C365.062 397.994 365.055 398.075 365.065 398.156L365.577 406.126C365.636 406.559 365.847 406.957 366.171 407.25C366.494 407.544 366.911 407.714 367.348 407.73C370.851 407.661 372.504 407.455 376.932 407.455C379.668 407.455 385.365 407.74 389.134 407.74C392.902 407.74 392.322 404.021 390.688 403.676C383.338 402.171 380.13 400.085 377.345 398.087C376.876 397.743 376.313 397.55 375.732 397.536Z" fill="#263238"/>
<path d="M379.096 399.14C379.866 399.21 380.636 399.016 381.281 398.589C381.424 398.459 381.534 398.296 381.6 398.114C381.667 397.933 381.689 397.738 381.664 397.546C381.655 397.429 381.617 397.317 381.554 397.219C381.49 397.121 381.403 397.041 381.3 396.985C380.198 396.375 376.626 398.205 376.223 398.422C376.183 398.441 376.151 398.473 376.13 398.511C376.109 398.55 376.1 398.594 376.105 398.638C376.113 398.681 376.133 398.72 376.163 398.751C376.192 398.782 376.23 398.805 376.272 398.815C377.201 399.013 378.147 399.122 379.096 399.14ZM380.7 397.28C380.836 397.274 380.971 397.301 381.094 397.359C381.136 397.38 381.172 397.412 381.198 397.452C381.224 397.492 381.239 397.538 381.241 397.585C381.258 397.71 381.245 397.837 381.202 397.955C381.159 398.073 381.088 398.179 380.995 398.264C380.444 398.756 378.968 398.845 376.98 398.51C378.141 397.892 379.399 397.476 380.7 397.28Z" fill="#407BFF"/>
<path d="M376.321 398.825H376.41C377.472 398.343 379.588 396.404 379.421 395.391C379.421 395.145 379.214 394.85 378.624 394.791C378.414 394.766 378.201 394.786 378 394.849C377.798 394.912 377.612 395.016 377.453 395.155C376.321 396.089 376.114 398.51 376.105 398.609C376.103 398.646 376.111 398.683 376.126 398.717C376.142 398.751 376.164 398.781 376.193 398.805C376.234 398.822 376.277 398.829 376.321 398.825ZM378.456 395.184H378.584C378.968 395.184 378.998 395.371 379.007 395.43C379.106 396.04 377.669 397.556 376.577 398.215C376.665 397.198 377.063 396.233 377.718 395.45C377.925 395.276 378.187 395.182 378.456 395.184Z" fill="#407BFF"/>
<path d="M362.958 389.162L377.02 386.899L375.435 379.381L361.502 382.668L362.958 389.162Z" fill="#263238"/>
<path d="M325.281 110.69L326.964 110.031C326.964 110.031 326.206 111.467 325.281 110.69Z" fill="#263238"/>
<path d="M307.156 194.438L306.231 197.705C306.103 197.951 306.399 198.217 306.822 198.217H344.332C344.666 198.217 344.932 198.05 344.952 197.843L345.286 194.586C345.286 194.36 345.021 194.163 344.666 194.163H307.757C307.641 194.153 307.525 194.173 307.42 194.221C307.315 194.27 307.224 194.344 307.156 194.438Z" fill="#263238"/>
<path d="M312.244 198.561H311.26C311.063 198.561 310.915 198.463 310.925 198.345L311.388 194.104C311.388 193.976 311.575 193.877 311.771 193.877H312.755C312.952 193.877 313.1 193.976 313.09 194.104L312.618 198.345C312.608 198.463 312.441 198.561 312.244 198.561Z" fill="#407BFF"/>
<path d="M341.557 198.561H340.573C340.376 198.561 340.218 198.463 340.238 198.345L340.7 194.104C340.7 193.976 340.887 193.877 341.084 193.877H342.068C342.265 193.877 342.413 193.976 342.403 194.104L341.94 198.345C341.921 198.463 341.753 198.561 341.557 198.561Z" fill="#407BFF"/>
<path d="M326.954 198.561H325.97C325.773 198.561 325.625 198.463 325.635 198.345L326.098 194.104C326.098 193.976 326.285 193.877 326.481 193.877H327.465C327.662 193.877 327.81 193.976 327.79 194.104L327.328 198.345C327.328 198.463 327.151 198.561 326.954 198.561Z" fill="#407BFF"/>
<path d="M315.146 139.817C309.429 140.338 300.691 139.256 300.957 148.023C301.222 156.79 299.52 180.013 299.973 190.886C300.425 201.759 297.592 272.164 302.177 292.573C302.984 296.164 332.602 295.702 336.184 295.357V292.12C336.184 292.12 357.704 289.227 363.027 290.152C362.565 277.891 350.649 215.958 350.186 198.561C349.724 181.164 351.682 151.27 351.564 146.527C351.446 141.785 342.019 139.698 336.243 139.817C337.522 144.097 334.698 152.136 330.182 161.1C319.072 150.276 315.796 144.904 315.146 139.817Z" fill="#D2E0FF"/>
<path opacity="0.7" d="M315.146 139.817C309.429 140.338 300.691 139.256 300.957 148.023C301.222 156.79 299.52 180.013 299.973 190.886C300.425 201.759 297.592 272.164 302.177 292.573C302.984 296.164 332.602 295.702 336.184 295.357V292.12C336.184 292.12 357.704 289.227 363.027 290.152C362.565 277.891 350.649 215.958 350.186 198.561C349.724 181.164 351.682 151.27 351.564 146.527C351.446 141.785 342.019 139.698 336.243 139.817C337.522 144.097 334.698 152.136 330.182 161.1C319.072 150.276 315.796 144.904 315.146 139.817Z" fill="white"/>
<path opacity="0.2" d="M304.263 160.608L300.603 163.196C300.318 170.773 299.934 179.265 299.895 185.828C303.299 178.301 305.218 167.437 304.263 160.608Z" fill="#407BFF"/>
<path d="M315.924 152.746C315.738 153.022 315.537 153.289 315.323 153.543L315.117 153.78L315.008 153.898L314.812 154.104L314.418 154.527L313.631 155.403C313.099 155.984 312.588 156.584 312.076 157.194C311.053 158.414 310.069 159.657 309.124 160.923C307.194 163.452 305.397 166.079 303.742 168.795C300.488 173.809 298.136 179.354 296.795 185.179C296.547 186.478 296.392 187.794 296.332 189.115C296.393 189.772 296.584 190.411 296.893 190.994C298.142 193.639 299.645 196.157 301.38 198.512C303.2 201.11 305.267 203.639 307.382 206.138C308.445 207.398 309.547 208.618 310.659 209.828C311.771 211.039 312.932 212.278 314.015 213.351L303.407 223.604C302.118 222.197 300.977 220.918 299.786 219.57L296.312 215.506C294.01 212.78 291.796 209.946 289.611 206.975C287.24 203.836 285.189 200.467 283.491 196.918C282.994 195.819 282.57 194.688 282.222 193.533C282.017 192.845 281.856 192.145 281.739 191.437C281.664 191.031 281.611 190.62 281.582 190.207C281.542 189.775 281.526 189.342 281.533 188.908C281.556 186.795 281.737 184.687 282.074 182.601C282.755 178.66 283.857 174.804 285.36 171.098C286.775 167.589 288.419 164.177 290.28 160.884C292.091 157.637 294.079 154.537 296.135 151.507C297.178 149.991 298.241 148.505 299.353 147.039L301.036 144.845L301.911 143.743L302.354 143.192L302.58 142.926L302.679 142.798L302.541 142.956C302.364 143.182 302.197 143.408 302.039 143.644L315.924 152.746Z" fill="#D7E3FF"/>
<path opacity="0.7" d="M315.924 152.746C315.738 153.022 315.537 153.289 315.323 153.543L315.117 153.78L315.008 153.898L314.812 154.104L314.418 154.527L313.631 155.403C313.099 155.984 312.588 156.584 312.076 157.194C311.053 158.414 310.069 159.657 309.124 160.923C307.194 163.452 305.397 166.079 303.742 168.795C300.488 173.809 298.136 179.354 296.795 185.179C296.547 186.478 296.392 187.794 296.332 189.115C296.393 189.772 296.584 190.411 296.893 190.994C298.142 193.639 299.645 196.157 301.38 198.512C303.2 201.11 305.267 203.639 307.382 206.138C308.445 207.398 309.547 208.618 310.659 209.828C311.771 211.039 312.932 212.278 314.015 213.351L303.407 223.604C302.118 222.197 300.977 220.918 299.786 219.57L296.312 215.506C294.01 212.78 291.796 209.946 289.611 206.975C287.24 203.836 285.189 200.467 283.491 196.918C282.994 195.819 282.57 194.688 282.222 193.533C282.017 192.845 281.856 192.145 281.739 191.437C281.664 191.031 281.611 190.62 281.582 190.207C281.542 189.775 281.526 189.342 281.533 188.908C281.556 186.795 281.737 184.687 282.074 182.601C282.755 178.66 283.857 174.804 285.36 171.098C286.775 167.589 288.419 164.177 290.28 160.884C292.091 157.637 294.079 154.537 296.135 151.507C297.178 149.991 298.241 148.505 299.353 147.039L301.036 144.845L301.911 143.743L302.354 143.192L302.58 142.926L302.679 142.798L302.541 142.956C302.364 143.182 302.197 143.408 302.039 143.644L315.924 152.746Z" fill="white"/>
<path opacity="0.3" d="M330.191 161.1C331.225 182.099 336.833 255.328 336.194 292.12L337.906 291.894C337.906 291.894 335.249 235.314 334.049 210.556C332.848 185.799 330.191 161.1 330.191 161.1Z" fill="#407BFF"/>
<path opacity="0.3" d="M313.188 213.528L302.679 224.903C302.679 228.721 300.012 236.357 307.077 239.132C314.143 241.906 314.33 221.774 313.188 213.528Z" fill="#407BFF"/>
<path opacity="0.3" d="M347.451 213.174L352.075 224.765C352.213 228.701 353.561 236.573 350.826 239.574C348.09 242.576 347.293 221.705 347.451 213.174Z" fill="#407BFF"/>
<path d="M335.967 168.411L347.51 168.333C347.625 168.338 347.739 168.318 347.846 168.274C347.953 168.231 348.048 168.164 348.127 168.08C348.206 167.996 348.265 167.896 348.301 167.787C348.337 167.677 348.349 167.562 348.336 167.447L347.697 161.976C347.658 161.739 347.54 161.523 347.36 161.363C347.181 161.204 346.952 161.111 346.713 161.1L335.161 161.169C335.046 161.166 334.932 161.187 334.826 161.231C334.72 161.275 334.625 161.341 334.547 161.425C334.469 161.509 334.409 161.608 334.373 161.717C334.336 161.826 334.323 161.941 334.334 162.055L334.974 167.536C335.014 167.773 335.135 167.99 335.316 168.149C335.496 168.309 335.727 168.401 335.967 168.411Z" fill="white" stroke="#407BFF" stroke-width="0.5" stroke-miterlimit="10"/>
</g>
<defs>
<filter id="filter0_dd_1_294" x="-7" y="-7" width="506" height="506" filterUnits="userSpaceOnUse" color-interpolation-filters="sRGB">
<feFlood flood-opacity="0" result="BackgroundImageFix"/>
<feColorMatrix in="SourceAlpha" type="matrix" values="0 0 0 0 0 0 0 0 0 0 0 0 0 0 0 0 0 0 127 0" result="hardAlpha"/>
<feOffset dx="-2" dy="-2"/>
<feGaussianBlur stdDeviation="2.5"/>
<feColorMatrix type="matrix" values="0 0 0 0 0.0791667 0 0 0 0 0.114 0 0 0 0 0.2375 0 0 0 0.15 0"/>
<feBlend mode="normal" in2="BackgroundImageFix" result="effect1_dropShadow_1_294"/>
<feColorMatrix in="SourceAlpha" type="matrix" values="0 0 0 0 0 0 0 0 0 0 0 0 0 0 0 0 0 0 127 0" result="hardAlpha"/>
<feOffset dx="2" dy="2"/>
<feGaussianBlur stdDeviation="2.5"/>
<feColorMatrix type="matrix" values="0 0 0 0 0.0784314 0 0 0 0 0.113725 0 0 0 0 0.239216 0 0 0 0.15 0"/>
<feBlend mode="normal" in2="effect1_dropShadow_1_294" result="effect2_dropShadow_1_294"/>
<feBlend mode="normal" in="SourceGraphic" in2="effect2_dropShadow_1_294" result="shape"/>
</filter>
</defs>
</svg>
