<svg width="772" height="711" viewBox="0 0 772 711" fill="none" xmlns="http://www.w3.org/2000/svg">
<path opacity="0.8" d="M355.553 43.782C396.737 8.07414 534.303 48.1165 570.892 83.3896C616.308 127.205 628.967 174.65 607.295 238.17C589.163 291.15 460.559 351.81 422.714 392.394C343.536 477.332 252.845 462.565 157.955 387.53C118.791 350.868 87.8551 250.183 277.42 140.738C323.941 116.343 319.625 74.9269 355.553 43.782Z" fill="#A89060"/>
<path d="M386 599.153C551.335 599.153 685.366 591.327 685.366 581.674C685.366 572.022 551.335 564.196 386 564.196C220.665 564.196 86.6338 572.022 86.6338 581.674C86.6338 591.327 220.665 599.153 386 599.153Z" fill="#F5F5F5"/>
<path d="M299.644 118.428C301.188 111.928 317.338 105.752 331.234 115.34C337.394 119.511 342.014 125.589 344.385 132.641C346.756 139.692 346.747 147.327 344.358 154.372C336.901 176.452 375.825 175.633 384.842 212.859C391.96 242.195 385.367 283.744 345.64 281.49C285.007 278.047 290.241 218.788 287.585 187.646C284.929 156.503 251.842 121.578 299.644 118.428Z" fill="#263238"/>
<path d="M279.618 201.573C279.356 206.081 278.831 210.204 278.244 214.48C277.657 218.757 276.839 222.942 275.928 227.141C275.017 231.341 273.983 235.541 272.67 239.679C271.403 243.878 269.897 248.002 268.162 252.031L266.803 255.119C266.602 255.566 266.232 256.246 265.954 256.817C265.676 257.388 265.305 257.913 264.981 258.469C263.711 260.449 262.297 262.333 260.751 264.105C257.874 267.397 254.779 270.492 251.487 273.369C245.104 279.01 238.313 284.171 231.168 288.809L227.061 283.312C229.963 280.502 232.928 277.599 235.784 274.696C238.641 271.794 241.466 268.845 244.153 265.849C246.8 262.945 249.299 259.91 251.641 256.755C252.712 255.278 253.681 253.731 254.544 252.123C254.714 251.768 254.93 251.398 255.069 251.058C255.208 250.718 255.362 250.44 255.532 249.931L256.582 247.213C259.231 239.752 261.296 232.097 262.758 224.316C263.545 220.394 264.117 216.41 264.703 212.442C265.29 208.474 265.738 204.383 266.077 200.615L279.618 201.573Z" fill="#FFB573"/>
<path d="M270.355 185.361C264.874 186.75 261.091 209.324 261.091 209.324L282.074 223.59C282.074 223.59 290.705 196.833 286.474 190.796C282.027 184.496 278.353 183.323 270.355 185.361Z" fill="#4A607A"/>
<path opacity="0.2" d="M270.849 190.394L266.634 213.153L275.126 218.912L270.849 190.394Z" fill="black"/>
<path d="M229.562 281.428L215.435 283.683L223.494 292.607C223.494 292.607 231.816 290.708 233.283 285.381L229.562 281.428Z" fill="#FFB573"/>
<path d="M208.749 285.458L216.809 294.182L223.494 292.607L215.435 283.683L208.749 285.458Z" fill="#FFB573"/>
<path d="M300.03 565.246H286.721L285.825 534.428H299.134L300.03 565.246Z" fill="#FFB573"/>
<path d="M340.11 565.901L326.8 565.893L322.547 535.074L335.856 535.082L340.11 565.901Z" fill="#FFB573"/>
<path d="M325.359 563.301L340.136 561.108C340.392 561.064 340.655 561.116 340.876 561.252C341.096 561.388 341.259 561.6 341.335 561.849L344.771 573.265C344.839 573.553 344.848 573.852 344.795 574.143C344.743 574.434 344.631 574.712 344.466 574.958C344.301 575.204 344.087 575.413 343.837 575.572C343.588 575.731 343.308 575.837 343.015 575.883C337.852 576.556 335.322 576.622 328.817 577.596C324.819 578.195 314.567 581.64 309.041 582.465C303.515 583.29 302.414 577.868 304.6 577.011C311.778 574.42 318.193 570.07 323.257 564.36C323.818 563.78 324.558 563.406 325.359 563.301Z" fill="#263238"/>
<path d="M286.257 563.718H301.219C301.473 563.712 301.721 563.8 301.915 563.965C302.109 564.13 302.234 564.361 302.269 564.613L303.982 576.456C304.013 576.754 303.98 577.055 303.887 577.34C303.793 577.625 303.642 577.887 303.441 578.109C303.24 578.332 302.995 578.51 302.721 578.632C302.448 578.754 302.151 578.818 301.852 578.818C296.633 578.726 294.132 578.417 287.539 578.417C283.494 578.417 275.187 578.834 269.551 578.834C263.916 578.834 263.669 573.322 265.985 572.812C276.422 570.573 280.529 567.485 284.034 564.536C284.655 564.009 285.443 563.719 286.257 563.718Z" fill="#263238"/>
<g opacity="0.2">
<path opacity="0.2" d="M285.841 534.444L286.289 550.331H299.598L299.15 534.444H285.841Z" fill="black"/>
<path opacity="0.2" d="M334.128 534.371L320.88 535.796L324.787 551.364L338.019 549.935L334.128 534.371Z" fill="black"/>
</g>
<path d="M270.354 185.361C270.354 185.361 264.008 187.584 276.715 265.649H330.755C329.844 243.647 329.829 230.137 340.344 184.944C332.776 183.357 325.102 182.325 317.384 181.856C309.217 181.268 301.018 181.268 292.85 181.856C282.305 182.952 270.354 185.361 270.354 185.361Z" fill="#4A607A"/>
<path opacity="0.2" d="M335.882 202.839C330.987 204.058 326.464 209.401 327.004 219.236C327.308 223.697 328.872 227.98 331.512 231.588C332.377 224.022 333.828 215.237 336.144 203.997L335.882 202.839Z" fill="black"/>
<path d="M295.691 203.533C295.691 203.533 302.717 207.872 304.554 214.341C312.181 208.752 322.542 193.204 322.958 183.894C322.96 183.623 322.909 183.354 322.807 183.103C322.704 182.852 322.553 182.624 322.362 182.432C322.172 182.239 321.945 182.087 321.694 181.983C321.444 181.878 321.176 181.825 320.905 181.825C319.729 181.795 318.553 181.846 317.385 181.979L295.691 203.533Z" fill="#FAFAFA"/>
<path d="M295.691 203.533C295.691 203.533 288.666 207.872 286.829 214.341C278.63 208.335 283.185 188.51 287.879 181.918C289.531 181.743 291.198 181.743 292.85 181.918L295.691 203.533Z" fill="#FAFAFA"/>
<path d="M314.976 154.311C313.432 162.201 311.888 176.668 317.4 181.948C312.279 191 304.777 198.476 295.707 203.564C284.76 194.825 292.866 181.948 292.866 181.948C301.667 179.849 301.435 173.302 299.907 167.172L314.976 154.311Z" fill="#FFB573"/>
<path opacity="0.2" d="M308.8 159.56L299.876 167.172C300.261 168.597 300.514 170.055 300.633 171.526C303.998 171.032 309.294 168.176 310.02 164.517C310.344 162.787 309.109 160.379 308.8 159.56Z" fill="black"/>
<path d="M328.193 141.619C324.549 154.311 323.268 159.761 315.301 164.933C303.319 172.653 288.528 165.428 288.312 151.902C288.111 139.72 294.117 121.022 307.859 118.691C310.884 118.162 313.995 118.417 316.895 119.43C319.794 120.444 322.387 122.182 324.425 124.48C326.463 126.778 327.879 129.559 328.538 132.559C329.198 135.559 329.079 138.678 328.193 141.619Z" fill="#FFB573"/>
<path d="M300.787 119.818C301.389 124.11 324.889 137.914 329.351 130.718C333.813 123.523 327.39 118.104 317.385 116.73C311.662 115.831 305.804 116.921 300.787 119.818Z" fill="#263238"/>
<path d="M316.103 122.149C313.216 125.947 319.33 153.307 328.085 150.729C336.839 148.15 336.438 139.396 330.354 131.321C326.912 126.595 321.83 123.325 316.103 122.149Z" fill="#263238"/>
<path d="M276.715 265.679C276.715 265.679 266.216 368.232 267.112 408.762C268.023 450.975 283.494 547.259 283.494 547.259H301.481C301.481 547.259 298.64 453.445 300.231 411.989C301.96 366.796 316.319 265.679 316.319 265.679H276.715Z" fill="#DDD0A4"/>
<path d="M331.419 264.784C331.419 264.784 341.918 367.337 341.023 407.867C340.112 450.08 340.081 546.363 340.081 546.363H322.094C322.094 546.363 311.888 453.152 307.904 411.094C303.552 365.144 291.816 264.784 291.816 264.784H331.419Z" fill="#DDD0A4"/>
<path d="M303.01 547.892H281.903L280.359 541.16L303.998 540.342L303.01 547.892Z" fill="#263238"/>
<path opacity="0.2" d="M299.805 294.291C286.526 320.987 297.134 369.7 301.827 387.827C304.236 360.606 308.297 327.333 311.462 302.907C309.439 289.072 305.919 281.97 299.805 294.291Z" fill="black"/>
<path d="M341.782 548.852L319.269 548.831L316.873 541.761L343.362 540.59L341.782 548.852Z" fill="#263238"/>
<path d="M141.446 130.085C128 141.986 118.384 157.606 113.816 174.972C109.247 192.337 109.931 210.667 115.78 227.644C121.629 244.621 132.381 259.482 146.676 270.348C160.972 281.214 178.168 287.597 196.091 288.689C214.014 289.782 231.858 285.535 247.368 276.486C262.877 267.437 275.355 253.992 283.223 237.852C291.091 221.711 293.996 203.6 291.571 185.808C289.145 168.017 281.499 151.344 269.598 137.898C253.637 119.872 231.171 108.923 207.139 107.458C183.108 105.993 159.478 114.132 141.446 130.085ZM252.259 255.304C240.94 265.318 226.906 271.751 211.931 273.79C196.956 275.828 181.713 273.38 168.13 266.756C154.546 260.131 143.232 249.627 135.618 236.573C128.004 223.518 124.432 208.498 125.354 193.414C126.276 178.329 131.651 163.856 140.798 151.826C149.945 139.796 162.454 130.748 176.744 125.827C191.033 120.906 206.461 120.333 221.076 124.18C235.691 128.027 248.837 136.122 258.852 147.44C265.501 154.955 270.606 163.707 273.873 173.195C277.14 182.683 278.507 192.721 277.895 202.737C277.283 212.753 274.704 222.551 270.305 231.57C265.906 240.59 259.774 248.654 252.259 255.304Z" fill="#263238"/>
<path opacity="0.3" d="M197.355 267.98C183.525 267.148 170.253 262.233 159.217 253.856C148.182 245.479 139.878 234.018 135.358 220.921C130.838 207.825 130.303 193.682 133.822 180.282C137.341 166.881 144.756 154.826 155.128 145.64C165.5 136.455 178.363 130.552 192.09 128.678C205.818 126.805 219.792 129.045 232.246 135.115C244.7 141.185 255.074 150.813 262.056 162.78C269.037 174.747 272.312 188.516 271.467 202.345C270.33 220.871 261.886 238.19 247.991 250.496C234.095 262.803 215.883 269.091 197.355 267.98Z" fill="#4A607A"/>
<g opacity="0.5">
<path opacity="0.5" d="M205.877 128.171H204.564L131.811 192.556L131.718 193.868C130.775 209.049 134.819 224.122 143.237 236.791L247.04 144.815C235.498 134.932 221.044 129.088 205.877 128.171Z" fill="#FAFAFA"/>
<path opacity="0.5" d="M253.818 151.393L148.934 244.203C152.436 248.247 156.395 251.874 160.73 255.011L263.035 164.424C260.47 159.743 257.377 155.371 253.818 151.393Z" fill="#FAFAFA"/>
</g>
<path d="M273.056 266.745L261.106 277.321C260.237 278.089 259.099 278.48 257.941 278.411C256.784 278.341 255.701 277.816 254.93 276.951C254.17 276.078 253.783 274.942 253.853 273.787C253.922 272.632 254.442 271.55 255.3 270.775L267.251 260.198C268.122 259.433 269.261 259.044 270.419 259.116C271.576 259.188 272.658 259.716 273.427 260.584C274.193 261.451 274.585 262.586 274.515 263.741C274.446 264.896 273.921 265.976 273.056 266.745Z" fill="#263238"/>
<path d="M268.656 264.784C277.657 272.705 286.273 280.981 294.78 289.364C303.288 297.748 311.595 306.348 319.809 314.902C328.023 323.456 336.082 332.288 344.08 341.15C351.584 350.414 361.805 357.27 363.334 371.814C363.454 372.977 363.295 374.152 362.87 375.242C362.445 376.331 361.768 377.304 360.892 378.08C360.017 378.855 358.97 379.411 357.837 379.702C356.705 379.992 355.519 380.009 354.379 379.75C340.112 376.461 334.569 365.484 326.293 356.899C318.491 347.892 310.802 338.803 303.226 329.632C295.65 320.461 288.213 311.14 280.915 301.67C273.628 292.221 266.463 282.663 259.685 272.766C258.815 271.554 258.425 270.063 258.59 268.58C258.754 267.098 259.462 265.728 260.577 264.736C261.691 263.745 263.133 263.201 264.625 263.209C266.117 263.218 267.553 263.779 268.656 264.784Z" fill="#263238"/>
<path d="M306.916 140.476C306.684 141.526 305.943 142.252 305.248 142.02C304.553 141.789 304.198 140.893 304.43 139.859C304.662 138.824 305.403 138.083 306.098 138.315C306.792 138.546 307.147 139.427 306.916 140.476Z" fill="#263238"/>
<path d="M295.073 137.852C294.842 138.902 294.085 139.627 293.406 139.473C292.727 139.318 292.356 138.346 292.588 137.296C292.819 136.246 293.56 135.52 294.255 135.675C294.95 135.829 295.305 136.802 295.073 137.852Z" fill="#263238"/>
<path d="M294.549 135.798L292.187 134.517C292.187 134.517 293.036 136.771 294.549 135.798Z" fill="#263238"/>
<path d="M298.301 140.554C296.836 142.733 295.08 144.702 293.082 146.406C293.531 146.908 294.084 147.306 294.703 147.573C295.321 147.84 295.991 147.968 296.664 147.95L298.301 140.554Z" fill="#ED893E"/>
<path d="M301.466 153.307C300.946 153.271 300.43 153.193 299.922 153.076C299.883 153.066 299.845 153.05 299.812 153.026C299.779 153.003 299.751 152.973 299.73 152.938C299.708 152.904 299.694 152.866 299.687 152.826C299.68 152.786 299.681 152.745 299.691 152.705C299.7 152.666 299.716 152.628 299.74 152.595C299.764 152.562 299.793 152.534 299.828 152.512C299.862 152.491 299.901 152.476 299.941 152.47C299.981 152.463 300.022 152.464 300.061 152.473C301.359 152.788 302.712 152.795 304.013 152.492C305.313 152.189 306.525 151.585 307.55 150.729C307.576 150.688 307.611 150.653 307.652 150.628C307.693 150.602 307.739 150.586 307.788 150.581C307.836 150.576 307.885 150.581 307.93 150.597C307.976 150.613 308.018 150.64 308.052 150.674C308.086 150.708 308.113 150.75 308.129 150.796C308.145 150.841 308.15 150.89 308.145 150.938C308.14 150.987 308.124 151.033 308.098 151.074C308.073 151.115 308.038 151.15 307.997 151.176C307.104 151.946 306.066 152.531 304.945 152.897C303.824 153.262 302.642 153.402 301.466 153.307Z" fill="#263238"/>
<path d="M329.042 154.28C328.33 155.33 327.419 156.229 326.359 156.926C325.299 157.623 324.112 158.104 322.866 158.341C319.531 158.958 318.234 155.901 319.361 152.921C320.411 150.235 323.437 146.745 326.649 147.425C327.348 147.598 327.993 147.943 328.525 148.429C329.058 148.914 329.461 149.525 329.699 150.205C329.936 150.886 330.001 151.614 329.886 152.326C329.771 153.037 329.481 153.709 329.042 154.28Z" fill="#FFB573"/>
<path d="M311.888 135.86C311.762 135.898 311.628 135.896 311.504 135.855C311.379 135.813 311.271 135.734 311.193 135.628C309.479 133.266 305.712 133.297 305.681 133.297C305.513 133.297 305.352 133.23 305.233 133.112C305.115 132.993 305.048 132.832 305.048 132.664C305.046 132.582 305.06 132.5 305.091 132.423C305.121 132.346 305.166 132.276 305.223 132.217C305.281 132.158 305.35 132.111 305.426 132.079C305.502 132.047 305.583 132.031 305.666 132.031C305.851 132.031 310.112 132.031 312.212 134.887C312.31 135.023 312.35 135.191 312.324 135.356C312.298 135.521 312.208 135.669 312.073 135.767L311.888 135.86Z" fill="#263238"/>
<path d="M292.604 129.174C292.494 129.167 292.389 129.131 292.297 129.072C292.206 129.013 292.13 128.931 292.079 128.835C292.003 128.685 291.99 128.512 292.042 128.353C292.094 128.194 292.207 128.062 292.357 127.986C293.239 127.512 294.222 127.255 295.223 127.237C296.224 127.218 297.216 127.437 298.116 127.877C298.258 127.964 298.361 128.102 298.405 128.263C298.448 128.424 298.427 128.596 298.347 128.742C298.263 128.887 298.125 128.993 297.963 129.037C297.801 129.08 297.628 129.058 297.483 128.974C296.766 128.636 295.98 128.472 295.188 128.496C294.397 128.52 293.622 128.732 292.928 129.113C292.825 129.155 292.715 129.176 292.604 129.174Z" fill="#263238"/>
<path d="M318.716 566.038L318.53 565.962C318.28 565.786 318.079 565.548 317.947 565.272C317.815 564.996 317.755 564.691 317.775 564.385C317.759 564.195 317.795 564.004 317.88 563.833C317.965 563.662 318.095 563.517 318.255 563.414C319.682 562.496 324.076 564.478 324.564 564.711C324.623 564.733 324.672 564.773 324.705 564.826C324.738 564.878 324.752 564.941 324.746 565.002C324.743 565.064 324.723 565.124 324.687 565.174C324.652 565.225 324.603 565.264 324.545 565.288C323.001 565.923 320.169 566.85 318.716 566.038ZM323.656 564.974C321.87 564.243 319.402 563.466 318.655 563.945C318.589 563.996 318.537 564.064 318.505 564.142C318.474 564.22 318.463 564.304 318.474 564.388C318.459 564.591 318.495 564.795 318.579 564.982C318.663 565.168 318.793 565.329 318.956 565.452C319.694 565.972 321.431 565.765 323.656 564.974Z" fill="#4A607A"/>
<path d="M323.899 565.073C322.446 564.262 320.115 562.09 320.235 560.738C320.248 560.488 320.346 560.249 320.514 560.063C320.681 559.876 320.907 559.753 321.155 559.713C321.386 559.646 321.63 559.63 321.869 559.667C322.107 559.704 322.334 559.793 322.535 559.927C324.152 560.99 324.736 564.782 324.769 564.946C324.772 564.999 324.763 565.052 324.743 565.102C324.723 565.151 324.691 565.196 324.652 565.231C324.607 565.264 324.554 565.285 324.499 565.292C324.443 565.298 324.387 565.29 324.336 565.269C324.185 565.218 324.038 565.152 323.899 565.073ZM322.121 560.409C321.878 560.275 321.592 560.242 321.325 560.316C320.931 560.422 320.869 560.614 320.874 560.766C320.826 561.697 322.626 563.618 324.03 564.427C323.776 563.172 323.162 561.085 322.201 560.458L322.121 560.409Z" fill="#4A607A"/>
<path d="M281.271 566.034C280.133 566.141 278.993 565.852 278.044 565.215C277.828 565.026 277.662 564.785 277.563 564.516C277.463 564.246 277.432 563.956 277.472 563.671C277.479 563.499 277.531 563.331 277.624 563.185C277.716 563.038 277.845 562.919 277.997 562.838C279.634 561.927 284.945 564.644 285.532 564.953C285.59 564.984 285.637 565.031 285.667 565.089C285.697 565.147 285.71 565.212 285.702 565.277C285.696 565.342 285.668 565.403 285.623 565.451C285.579 565.498 285.519 565.53 285.455 565.54C284.079 565.838 282.678 566.003 281.271 566.034ZM278.893 563.285C278.691 563.274 278.49 563.311 278.306 563.394C278.245 563.428 278.194 563.478 278.156 563.537C278.118 563.596 278.096 563.663 278.09 563.733C278.067 563.92 278.088 564.11 278.152 564.287C278.217 564.465 278.322 564.624 278.461 564.752C279.263 565.478 281.456 565.602 284.405 565.107C282.683 564.194 280.82 563.578 278.893 563.285Z" fill="#4A607A"/>
<path d="M285.393 565.571H285.269C283.725 564.86 280.545 561.989 280.792 560.475C280.792 560.12 281.101 559.673 281.965 559.58C282.279 559.546 282.596 559.578 282.896 559.674C283.197 559.77 283.474 559.927 283.71 560.136C285.393 561.525 285.702 565.107 285.702 565.262C285.71 565.315 285.703 565.37 285.681 565.419C285.66 565.469 285.624 565.511 285.578 565.54C285.522 565.57 285.456 565.581 285.393 565.571ZM282.228 560.167H282.027C281.456 560.167 281.425 560.46 281.41 560.537C281.255 561.433 283.386 563.702 285.007 564.675C284.882 563.163 284.289 561.727 283.309 560.568C283.014 560.3 282.626 560.156 282.228 560.167Z" fill="#4A607A"/>
<path d="M306.392 138.438L304.029 137.141C304.029 137.141 304.878 139.396 306.392 138.438Z" fill="#263238"/>
<path d="M331.574 262.499L332.948 267.332C333.133 267.718 332.701 268.104 332.068 268.104H276.376C275.897 268.104 275.496 267.856 275.465 267.548L274.971 262.715C274.971 262.375 275.357 262.097 275.897 262.097H330.632C330.811 262.07 330.994 262.093 331.16 262.164C331.326 262.235 331.47 262.351 331.574 262.499Z" fill="#4A607A"/>
<path opacity="0.2" d="M331.574 262.499L332.948 267.332C333.133 267.718 332.701 268.104 332.068 268.104H276.376C275.897 268.104 275.496 267.856 275.465 267.548L274.971 262.715C274.971 262.375 275.357 262.097 275.897 262.097H330.632C330.811 262.07 330.994 262.093 331.16 262.164C331.326 262.235 331.47 262.351 331.574 262.499Z" fill="black"/>
<path d="M324.04 268.613H325.506C325.8 268.613 326.016 268.474 326.001 268.289L325.306 262.005C325.306 261.82 325.028 261.665 324.75 261.665H323.206C322.912 261.665 322.681 261.82 322.712 262.005L323.391 268.289C323.484 268.474 323.746 268.613 324.04 268.613Z" fill="#4A607A"/>
<path opacity="0.4" d="M324.04 268.613H325.506C325.8 268.613 326.016 268.474 326.001 268.289L325.306 262.005C325.306 261.82 325.028 261.665 324.75 261.665H323.206C322.912 261.665 322.681 261.82 322.712 262.005L323.391 268.289C323.484 268.474 323.746 268.613 324.04 268.613Z" fill="white"/>
<path d="M280.56 268.613H282.027C282.32 268.613 282.536 268.474 282.521 268.289L281.842 262.005C281.842 261.82 281.564 261.665 281.27 261.665H279.803C279.51 261.665 279.294 261.82 279.309 262.005L279.989 268.289C280.02 268.474 280.267 268.613 280.56 268.613Z" fill="#4A607A"/>
<path opacity="0.4" d="M280.56 268.613H282.027C282.32 268.613 282.536 268.474 282.521 268.289L281.842 262.005C281.842 261.82 281.564 261.665 281.27 261.665H279.803C279.51 261.665 279.294 261.82 279.309 262.005L279.989 268.289C280.02 268.474 280.267 268.613 280.56 268.613Z" fill="white"/>
<path d="M302.207 268.613H303.751C304.045 268.613 304.261 268.474 304.246 268.289L303.566 262.005C303.566 261.82 303.288 261.665 302.995 261.665H301.528C301.235 261.665 301.019 261.82 301.034 262.005L301.713 268.289C301.667 268.474 301.914 268.613 302.207 268.613Z" fill="#4A607A"/>
<path opacity="0.4" d="M302.207 268.613H303.751C304.045 268.613 304.261 268.474 304.246 268.289L303.566 262.005C303.566 261.82 303.288 261.665 302.995 261.665H301.528C301.235 261.665 301.019 261.82 301.034 262.005L301.713 268.289C301.667 268.474 301.914 268.613 302.207 268.613Z" fill="white"/>
<path d="M298.285 276.457L285.161 270.589L288.898 283.605C288.898 283.605 297.235 285.489 300.864 281.305L298.285 276.457Z" fill="#FFB573"/>
<path d="M346.643 201.001C347.245 205.556 347.724 210.142 348.265 214.697L349.654 228.438C350.148 233.07 350.519 237.594 350.951 242.18L351.522 249.051L351.677 250.78C351.677 250.95 351.677 251.66 351.677 252.154C351.677 252.648 351.677 253.219 351.677 253.698C351.446 255.661 350.821 257.557 349.839 259.272C348.25 261.914 346.15 264.212 343.663 266.035C341.578 267.607 339.368 269.006 337.055 270.219C332.73 272.454 328.233 274.338 323.607 275.854C319.083 277.398 314.544 278.68 309.989 279.823C305.434 280.965 300.879 281.907 296.17 282.633L294.626 276.071C298.872 274.666 303.211 273.23 307.426 271.608C311.641 269.987 315.856 268.397 319.901 266.56C323.883 264.817 327.742 262.805 331.45 260.538C333.16 259.505 334.782 258.333 336.299 257.033C337.488 256.07 338.479 254.885 339.217 253.544C339.378 253.25 339.462 252.921 339.464 252.586C339.464 252.586 339.464 252.586 339.464 252.463C339.464 252.339 339.464 252.463 339.464 252.123L339.217 250.425L338.229 243.585C337.626 238.953 336.947 234.46 336.391 229.89L334.646 216.194C334.152 211.562 333.581 207.054 333.102 202.468L346.643 201.001Z" fill="#FFB573"/>
<path d="M340.344 184.975C345.748 186.611 352.263 205.263 352.263 205.263L333.318 224.763C333.318 224.763 323.591 204.691 325.861 197.713C328.239 190.425 334.168 183.091 340.344 184.975Z" fill="#4A607A"/>
<path d="M274.307 273.291L278.012 284.007L288.897 283.605L285.161 270.589L274.307 273.291Z" fill="#FFB573"/>
</svg>
