<svg width="69" height="69" viewBox="0 0 69 69" fill="none" xmlns="http://www.w3.org/2000/svg">
<g clip-path="url(#clip0_1_219)">
<path d="M60.0873 11.9952L59.707 5.56992C59.6391 4.51036 58.7561 3.69531 57.683 3.76323C56.6234 3.83115 55.8219 4.7277 55.8763 5.78726L55.985 7.67545C50.4426 3.5323 43.7185 1.27734 36.6548 1.27734C28.0153 1.27734 19.892 4.6462 13.7928 10.7455C13.0456 11.4926 13.0456 12.7016 13.7928 13.4623C14.8252 14.4947 16.1292 13.8426 16.5096 13.4623C21.8889 8.08297 29.0477 5.10806 36.6684 5.10806C42.7269 5.10806 48.4865 6.98266 53.2953 10.4602L51.638 10.5689C50.5785 10.6368 49.777 11.5333 49.8314 12.5929C49.8857 13.6117 50.7415 14.3996 51.7467 14.3996C51.7875 14.3996 58.2807 14.0192 58.2807 14.0192C59.3402 13.9513 60.1417 13.0548 60.0873 11.9952Z" fill="#0D1C41"/>
<path d="M29.279 61.1426C15.6134 57.4885 6.94673 44.4341 8.30514 30.7957L9.21528 32.1677C9.58205 32.7246 10.7503 33.3903 11.8642 32.7111C12.7607 32.1541 12.9917 30.9451 12.4075 30.0622L8.87568 24.6829C8.59041 24.2618 8.15572 23.9629 7.66669 23.8542C7.16408 23.7591 6.64788 23.8542 6.22678 24.1259L0.861057 27.6578C-0.0219096 28.2419 -0.266423 29.4237 0.317693 30.3067C0.901809 31.1896 2.08363 31.4342 2.96659 30.85L4.55593 29.8041C2.69491 45.5073 12.5977 60.64 28.2874 64.8375C28.4504 64.8782 30.1484 65.082 30.6374 63.479C30.9498 62.4738 30.3114 61.4143 29.279 61.1426Z" fill="#0D1C41"/>
<path d="M67.8991 25.2398C67.6274 24.221 66.5679 23.6098 65.549 23.8814C64.5302 24.1531 63.919 25.2127 64.1906 26.2315C67.8448 39.8971 60.8897 53.943 48.3923 59.5804L49.1259 58.0998C49.6013 57.1489 49.221 56.0078 48.2701 55.5324C47.3192 55.0569 46.1645 55.4373 45.7027 56.3882L42.8228 62.1343C42.3474 63.0851 42.7278 64.2262 43.6786 64.7016L49.4247 67.5815C49.6964 67.7173 51.2314 68.0569 51.9921 66.7257C52.5219 65.802 52.0872 64.6337 51.1363 64.1583L49.4111 63.2889C63.9461 57.0674 72.0966 40.9431 67.8991 25.2398Z" fill="#0D1C41"/>
<path d="M27.8122 40.4946L31.2625 36.8949C32.6074 35.4957 34.7808 33.5124 34.7808 30.619C34.7808 28.8123 33.3952 24.7778 28.5729 24.7778C24.9052 24.7778 22.46 27.6033 21.5635 28.9889L24.9731 31.0129C26.0462 29.3013 27.1873 28.4455 28.3827 28.4455C30.7056 28.4455 30.6241 30.0485 30.6241 30.6869C30.6241 32.3713 28.6136 34.2595 27.4861 35.4142L21.8895 41.1467V44.3118H35.3513V40.4946H27.8122Z" fill="#0D1C41"/>
<path d="M49.5871 36.053V32.7249H45.4983V36.053H42.795L49.261 25.2129H44.6289L37.8232 36.4877V39.7343H45.4983V44.2985H49.5871V39.7343H51.7469V36.053H49.5871Z" fill="#0D1C41"/>
<path d="M56.3926 22.754C55.7405 22.754 55.1564 23.0121 54.6402 23.5419V20.499H52.915V29.0298H54.6402V25.6881C54.6402 25.1991 54.7625 24.2211 55.9307 24.2211C56.6235 24.2211 56.9767 24.6965 56.9767 25.6474V29.0298H58.7019V25.2806C58.7019 24.0581 57.9412 22.754 56.3926 22.754Z" fill="#0D1C41"/>
</g>
<defs>
<clipPath id="clip0_1_219">
<rect width="69" height="69" fill="white"/>
</clipPath>
</defs>
</svg>
