<svg width="53" height="58" viewBox="0 0 53 58" fill="none" xmlns="http://www.w3.org/2000/svg">
<path d="M26.5 6.44444V0L42.1922 15.3333C42.449 15.5841 42.4511 15.9958 42.1969 16.2492L39.8781 18.5612C39.628 18.8106 39.2232 18.8131 38.9699 18.5669L26.5 6.44444Z" fill="#313C48"/>
<path d="M26.5004 6.44444V0L10.8082 15.3333C10.5514 15.5841 10.5494 15.9958 10.8036 16.2492L13.1223 18.5612C13.3724 18.8106 13.7773 18.8131 14.0306 18.5669L26.5004 6.44444Z" fill="#535D69"/>
<path d="M26.8236 31.2554L19.2202 23.9775C18.959 23.7275 18.9547 23.3123 19.2108 23.0569L21.2103 21.0633C21.457 20.8173 21.8549 20.8109 22.1094 21.0488L26.8236 25.4554V31.2554Z" fill="#DDD0A4"/>
<path d="M26.8232 31.2554L34.4266 23.9775C34.6879 23.7275 34.6921 23.3123 34.436 23.0569L32.4365 21.0633C32.1898 20.8173 31.7919 20.8109 31.5374 21.0488L26.8232 25.4554V31.2554Z" fill="#A89060"/>
<path fill-rule="evenodd" clip-rule="evenodd" d="M26.2782 12.2446L23.0789 15.4344C22.8265 15.6862 22.8265 16.0942 23.0789 16.3458L26.2782 19.5357V12.2446Z" fill="#DDD0A4"/>
<path fill-rule="evenodd" clip-rule="evenodd" d="M26.2783 12.2446L29.4776 15.4344C29.73 15.6862 29.73 16.0942 29.4776 16.3458L26.2783 19.5357V12.2446Z" fill="#A89060"/>
<path d="M26.2167 34.7998C20.7231 34.7998 15.8476 37.455 12.7949 41.5562C16.6391 38.7399 21.0926 37.0779 26.2167 37.0779C30.8003 37.0779 35.3582 38.4079 38.9604 40.7043C35.8897 37.0911 31.3198 34.7998 26.2167 34.7998Z" fill="#313C48"/>
<path fill-rule="evenodd" clip-rule="evenodd" d="M12.7949 41.5562C15.8476 37.455 20.7231 34.7998 26.2167 34.7998V37.0779C21.0926 37.0779 16.6391 38.7399 12.7949 41.5562Z" fill="#535D69"/>
<path d="M1.95067 49.3729C1.92795 49.7077 1.89008 49.9783 1.83706 50.1847C1.78404 50.3887 1.69819 50.5611 1.57953 50.7021V50.7323H3.96544V46.926H2.10594L1.95067 49.3729ZM0.992523 51.5555V52.6316H0.102539V50.7323H0.492617C0.676928 50.6165 0.809473 50.4478 0.890266 50.2263C0.971059 50.0022 1.02282 49.6977 1.04554 49.3125L1.24248 46.1066H4.93874V50.7323H5.62043V52.6316H4.73423V51.5555H0.992523ZM9.85829 50.7323V51.5555H6.32105V46.1066H9.85829V46.9298H7.29813V48.4025H9.71816V49.1766H7.29813V50.7323H9.85829ZM15.1527 51.5555H14.1756V46.926H12.4373L12.2896 49.4446C12.2467 50.1722 12.1041 50.7134 11.8617 51.0683C11.6193 51.4208 11.2494 51.597 10.752 51.597C10.6106 51.597 10.492 51.5819 10.396 51.5517V50.6983C10.4718 50.7159 10.5501 50.7247 10.6309 50.7247C10.8808 50.7247 11.0626 50.619 11.1762 50.4076C11.2898 50.1936 11.3592 49.8537 11.3845 49.388L11.5625 46.1066H15.1527V51.5555ZM18.599 46.016C19.3943 46.016 20.0243 46.269 20.4888 46.775C20.9559 47.281 21.1894 47.9669 21.1894 48.8329C21.1894 49.6989 20.9559 50.3849 20.4888 50.8909C20.0243 51.3944 19.3943 51.6461 18.599 51.6461C17.8012 51.6461 17.1687 51.3944 16.7016 50.8909C16.2371 50.3849 16.0048 49.6989 16.0048 48.8329C16.0048 47.9669 16.2371 47.281 16.7016 46.775C17.1687 46.269 17.8012 46.016 18.599 46.016ZM19.7617 47.3867C19.4738 47.0268 19.0863 46.8468 18.599 46.8468C18.1117 46.8468 17.7242 47.0255 17.4364 47.3829C17.1485 47.7404 17.0046 48.2237 17.0046 48.8329C17.0046 49.4396 17.1485 49.9217 17.4364 50.2791C17.7242 50.6366 18.1117 50.8154 18.599 50.8154C19.0863 50.8154 19.4738 50.6366 19.7617 50.2791C20.0495 49.9217 20.1934 49.4396 20.1934 48.8329C20.1934 48.2263 20.0495 47.7441 19.7617 47.3867ZM28.3206 48.7008L30.6914 51.5555H29.4682L27.4193 49.0708H27.389V51.5555H26.4346V49.0708H26.4044L24.3403 51.5555H23.1474L25.4992 48.7121L23.3103 46.1066H24.4464L26.4044 48.4893H26.4346V46.1066H27.389V48.4893H27.4193L29.381 46.1066H30.4982L28.3206 48.7008ZM34.9368 51.5555V47.6359H34.8876L32.2328 51.5555H31.286V46.1066H32.2593V50.0375H32.3085L34.9595 46.1066H35.9063V51.5555H34.9368ZM38.0423 49.1652V48.3798H38.7694C39.0674 48.3798 39.3084 48.303 39.4928 48.1494C39.6771 47.9959 39.7692 47.7958 39.7692 47.5491C39.7692 47.3049 39.6821 47.1123 39.5079 46.9713C39.3362 46.8279 39.1001 46.7561 38.7997 46.7561C38.4967 46.7561 38.2518 46.8304 38.065 46.9789C37.8782 47.1274 37.7747 47.3301 37.7545 47.5868H36.8418C36.867 47.0909 37.0576 46.6982 37.4136 46.4087C37.7696 46.1167 38.2405 45.9707 38.8262 45.9707C39.3842 45.9707 39.8386 46.1079 40.1896 46.3823C40.5406 46.6541 40.716 47.0066 40.716 47.4396C40.716 47.7441 40.6214 48.0123 40.432 48.2439C40.2426 48.4755 39.9965 48.6252 39.6935 48.6932V48.7234C40.0596 48.7662 40.3499 48.9085 40.5645 49.1501C40.7791 49.3918 40.8864 49.6964 40.8864 50.0639C40.8864 50.5296 40.6883 50.9173 40.2919 51.2269C39.898 51.5366 39.4031 51.6914 38.8073 51.6914C38.1988 51.6914 37.7027 51.5416 37.3189 51.2421C36.9377 50.9425 36.7345 50.546 36.7092 50.0526H37.6484C37.6686 50.3068 37.7835 50.5095 37.993 50.6605C38.2051 50.8091 38.4778 50.8833 38.8111 50.8833C39.1317 50.8833 39.3905 50.8028 39.5874 50.6416C39.7844 50.4805 39.8829 50.2691 39.8829 50.0073C39.8829 49.743 39.7856 49.5365 39.5912 49.388C39.3993 49.2395 39.1317 49.1652 38.7883 49.1652H38.0423ZM46.2945 51.5555H45.3212V49.1916H42.6626V51.5555H41.6855V46.1066H42.6626V48.3722H45.3212V46.1066H46.2945V51.5555ZM50.9868 51.5555V47.6359H50.9376L48.2828 51.5555H47.3359V46.1066H48.3093V50.0375H48.3585L51.0095 46.1066H51.9563V51.5555H50.9868Z" fill="#313C48"/>
<path d="M9.72154 55.3689H9.27466C9.24816 55.2745 9.19826 55.1977 9.1251 55.1386C9.05186 55.0794 8.95905 55.0498 8.84672 55.0498C8.69773 55.0498 8.57907 55.1096 8.49071 55.2292C8.40365 55.3475 8.36009 55.508 8.36009 55.7107C8.36009 55.9158 8.40365 56.0775 8.49071 56.1959C8.57907 56.3129 8.69838 56.3715 8.84859 56.3715C8.96099 56.3715 9.05374 56.3438 9.12697 56.2884C9.20143 56.233 9.25197 56.1549 9.27847 56.0543H9.72535C9.69633 56.2657 9.60287 56.435 9.4451 56.5622C9.28855 56.688 9.08845 56.7509 8.84484 56.7509C8.55069 56.7509 8.31717 56.6578 8.14421 56.4715C7.97125 56.2852 7.88477 56.0316 7.88477 55.7107C7.88477 55.3935 7.97125 55.1404 8.14421 54.9516C8.31717 54.7629 8.5494 54.6685 8.84103 54.6685C9.08593 54.6685 9.28668 54.7345 9.44322 54.8667C9.5997 54.9989 9.69252 55.1662 9.72154 55.3689ZM11.5678 54.71V55.0725H10.9505V56.7113H10.4828V55.0725H9.86548V54.71H11.5678ZM12.9633 54.676C13.2184 54.676 13.4209 54.7685 13.5712 54.9536C13.7214 55.1386 13.7965 55.3909 13.7965 55.7107C13.7965 56.0291 13.7221 56.2808 13.5731 56.4658C13.4241 56.6508 13.2234 56.7434 12.971 56.7434C12.827 56.7434 12.7001 56.7113 12.5903 56.6471C12.4805 56.5816 12.3978 56.4923 12.3423 56.379H12.3328V57.3702H11.8613V54.71H12.3214V55.0555H12.3309C12.389 54.9372 12.4729 54.8446 12.5828 54.7779C12.6926 54.71 12.8195 54.676 12.9633 54.676ZM12.8195 56.3582C12.9722 56.3582 13.0927 56.3003 13.1811 56.1845C13.2695 56.0675 13.3136 55.9095 13.3136 55.7107C13.3136 55.513 13.2689 55.3557 13.1792 55.2386C13.0909 55.1216 12.971 55.063 12.8195 55.063C12.673 55.063 12.555 55.1222 12.4653 55.2405C12.3757 55.3588 12.3302 55.5155 12.329 55.7107C12.3302 55.907 12.3757 56.0643 12.4653 56.1826C12.555 56.2997 12.673 56.3582 12.8195 56.3582ZM14.874 56.3884C15.0091 56.3884 15.1227 56.3488 15.2148 56.2695C15.3083 56.189 15.3549 56.0889 15.3549 55.9693V55.8163L14.891 55.8447C14.7774 55.8522 14.6891 55.8805 14.6259 55.9296C14.5641 55.9774 14.5332 56.0411 14.5332 56.1203C14.5332 56.2022 14.5641 56.2676 14.6259 56.3167C14.6891 56.3645 14.7717 56.3884 14.874 56.3884ZM14.732 56.7434C14.5363 56.7434 14.3753 56.6874 14.2491 56.5754C14.1241 56.4633 14.0617 56.3179 14.0617 56.1392C14.0617 55.9617 14.1273 55.8214 14.2585 55.7182C14.3911 55.6149 14.5798 55.5558 14.8247 55.5407L15.3549 55.5105V55.367C15.3549 55.2626 15.3215 55.1814 15.2546 55.1234C15.1889 55.0656 15.0974 55.0366 14.98 55.0366C14.8702 55.0366 14.7806 55.0612 14.7111 55.1102C14.6417 55.1593 14.5994 55.226 14.5843 55.3104H14.1468C14.1569 55.1203 14.2384 54.9661 14.3911 54.8478C14.5451 54.7283 14.7477 54.6685 14.999 54.6685C15.2476 54.6685 15.4464 54.7288 15.5954 54.8497C15.7456 54.9705 15.8207 55.1316 15.8207 55.333V56.7113H15.3663V56.3922H15.3569C15.3 56.4992 15.2142 56.5848 15.0993 56.649C14.9844 56.7119 14.862 56.7434 14.732 56.7434ZM17.0194 55.9938H17.0099L16.5934 56.7113H16.0916L16.7391 55.7125L16.0972 54.71H16.6274L17.0326 55.4123H17.0421L17.4417 54.71H17.9586L17.3129 55.6993L17.951 56.7113H17.436L17.0194 55.9938ZM19.7821 56.4734C19.6067 56.6584 19.3706 56.7509 19.0739 56.7509C18.7773 56.7509 18.5412 56.6584 18.3657 56.4734C18.1903 56.2871 18.1025 56.0329 18.1025 55.7107C18.1025 55.3897 18.1909 55.1361 18.3676 54.9498C18.5444 54.7622 18.7798 54.6685 19.0739 54.6685C19.3693 54.6685 19.6047 54.7622 19.7802 54.9498C19.957 55.1361 20.0454 55.3897 20.0454 55.7107C20.0454 56.0329 19.9576 56.2871 19.7821 56.4734ZM18.7142 56.2034C18.8025 56.3205 18.9225 56.379 19.0739 56.379C19.2254 56.379 19.3454 56.3205 19.4337 56.2034C19.5221 56.0864 19.5663 55.9221 19.5663 55.7107C19.5663 55.5004 19.5221 55.3368 19.4337 55.2197C19.3454 55.1015 19.2254 55.0423 19.0739 55.0423C18.9237 55.0423 18.8038 55.1015 18.7142 55.2197C18.6258 55.3368 18.5816 55.5004 18.5816 55.7107C18.5816 55.9221 18.6258 56.0864 18.7142 56.2034ZM21.2269 55.029H20.8463V55.5275H21.1909C21.4131 55.5275 21.5242 55.4431 21.5242 55.2745C21.5242 55.1964 21.4983 55.1361 21.4466 55.0933C21.3961 55.0505 21.3229 55.029 21.2269 55.029ZM21.2194 55.8258H20.8463V56.3922H21.2572C21.3696 56.3922 21.4554 56.3683 21.5147 56.3205C21.5741 56.2714 21.6038 56.2009 21.6038 56.109C21.6038 55.9202 21.4756 55.8258 21.2194 55.8258ZM20.3843 56.7113V54.71H21.3367C21.5387 54.71 21.6971 54.7553 21.8121 54.8459C21.9269 54.9353 21.9844 55.0592 21.9844 55.2178C21.9844 55.3223 21.9503 55.4161 21.8821 55.4991C21.8152 55.581 21.7319 55.6307 21.6322 55.6483V55.6634C21.7647 55.6811 21.8714 55.7326 21.9522 55.8183C22.033 55.9039 22.0734 56.009 22.0734 56.1335C22.0734 56.311 22.0084 56.452 21.8783 56.5565C21.7496 56.6597 21.5741 56.7113 21.3519 56.7113H20.3843ZM23.1565 56.3884C23.2915 56.3884 23.4052 56.3488 23.4973 56.2695C23.5907 56.189 23.6375 56.0889 23.6375 55.9693V55.8163L23.1735 55.8447C23.0599 55.8522 22.9715 55.8805 22.9085 55.9296C22.8466 55.9774 22.8156 56.0411 22.8156 56.1203C22.8156 56.2022 22.8466 56.2676 22.9085 56.3167C22.9715 56.3645 23.0542 56.3884 23.1565 56.3884ZM23.0145 56.7434C22.8188 56.7434 22.6579 56.6874 22.5316 56.5754C22.4066 56.4633 22.3441 56.3179 22.3441 56.1392C22.3441 55.9617 22.4098 55.8214 22.5411 55.7182C22.6736 55.6149 22.8624 55.5558 23.1073 55.5407L23.6375 55.5105V55.367C23.6375 55.2626 23.604 55.1814 23.5371 55.1234C23.4715 55.0656 23.38 55.0366 23.2625 55.0366C23.1527 55.0366 23.0631 55.0612 22.9936 55.1102C22.9242 55.1593 22.8819 55.226 22.8668 55.3104H22.4293C22.4395 55.1203 22.5209 54.9661 22.6736 54.8478C22.8277 54.7283 23.0302 54.6685 23.2815 54.6685C23.5302 54.6685 23.729 54.7288 23.878 54.8497C24.0282 54.9705 24.1033 55.1316 24.1033 55.333V56.7113H23.6488V56.3922H23.6393C23.5825 56.4992 23.4967 56.5848 23.3818 56.649C23.2669 56.7119 23.1445 56.7434 23.0145 56.7434ZM25.3095 55.6974H25.6579V55.0687H25.3095C25.2009 55.0687 25.1144 55.0977 25.05 55.1555C24.987 55.2135 24.9554 55.2921 24.9554 55.3915C24.9554 55.4809 24.9876 55.5546 25.052 55.6124C25.1164 55.6691 25.2022 55.6974 25.3095 55.6974ZM25.6579 56.7113V56.0411H25.389L24.9213 56.7113H24.3949L24.9345 55.9674C24.7944 55.9246 24.6846 55.8535 24.6051 55.754C24.5268 55.6534 24.4877 55.5332 24.4877 55.3935C24.4877 55.1832 24.5584 55.0171 24.6997 54.895C24.8424 54.7716 25.0336 54.71 25.2735 54.71H26.1199V56.7113H25.6579ZM28.237 55.6445L29.127 56.7113H28.5494L27.8033 55.8163H27.7882V56.7113H27.3186V54.71H27.7882V55.5445H27.8033L28.538 54.71H29.0872L28.237 55.6445ZM30.9088 56.4734C30.7333 56.6584 30.4973 56.7509 30.2006 56.7509C29.9039 56.7509 29.6679 56.6584 29.4924 56.4734C29.3169 56.2871 29.2292 56.0329 29.2292 55.7107C29.2292 55.3897 29.3176 55.1361 29.4943 54.9498C29.671 54.7622 29.9065 54.6685 30.2006 54.6685C30.496 54.6685 30.7314 54.7622 30.9069 54.9498C31.0836 55.1361 31.172 55.3897 31.172 55.7107C31.172 56.0329 31.0843 56.2871 30.9088 56.4734ZM29.8408 56.2034C29.9292 56.3205 30.0491 56.379 30.2006 56.379C30.3521 56.379 30.472 56.3205 30.5604 56.2034C30.6487 56.0864 30.6929 55.9221 30.6929 55.7107C30.6929 55.5004 30.6487 55.3368 30.5604 55.2197C30.472 55.1015 30.3521 55.0423 30.2006 55.0423C30.0504 55.0423 29.9304 55.1015 29.8408 55.2197C29.7524 55.3368 29.7083 55.5004 29.7083 55.7107C29.7083 55.9221 29.7524 56.0864 29.8408 56.2034ZM31.9598 56.7113H31.5109V54.71H32.1112L32.7039 56.1071H32.7191L33.3118 54.71H33.9025V56.7113H33.4538V55.3425H33.4386L32.8725 56.6187H32.5392L31.973 55.3425H31.9598V56.7113ZM35.6238 56.7113V55.0725H34.7944V56.7113H34.3248V54.71H36.0953V56.7113H35.6238ZM37.2523 56.3884C37.3873 56.3884 37.501 56.3488 37.5931 56.2695C37.6865 56.189 37.7333 56.0889 37.7333 55.9693V55.8163L37.2693 55.8447C37.1557 55.8522 37.0673 55.8805 37.0043 55.9296C36.9423 55.9774 36.9114 56.0411 36.9114 56.1203C36.9114 56.2022 36.9423 56.2676 37.0043 56.3167C37.0673 56.3645 37.15 56.3884 37.2523 56.3884ZM37.1103 56.7434C36.9146 56.7434 36.7537 56.6874 36.6274 56.5754C36.5024 56.4633 36.4399 56.3179 36.4399 56.1392C36.4399 55.9617 36.5056 55.8214 36.6369 55.7182C36.7694 55.6149 36.9582 55.5558 37.2031 55.5407L37.7333 55.5105V55.367C37.7333 55.2626 37.6998 55.1814 37.6329 55.1234C37.5672 55.0656 37.4757 55.0366 37.3583 55.0366C37.2485 55.0366 37.1589 55.0612 37.0894 55.1102C37.02 55.1593 36.9777 55.226 36.9626 55.3104H36.5251C36.5353 55.1203 36.6166 54.9661 36.7694 54.8478C36.9235 54.7283 37.126 54.6685 37.3773 54.6685C37.626 54.6685 37.8248 54.7288 37.9738 54.8497C38.124 54.9705 38.1991 55.1316 38.1991 55.333V56.7113H37.7446V56.3922H37.7351C37.6783 56.4992 37.5925 56.5848 37.4776 56.649C37.3627 56.7119 37.2403 56.7434 37.1103 56.7434ZM39.9298 56.7113V55.8616H39.0815V56.7113H38.6119V54.71H39.0815V55.4991H39.9298V54.71H40.3994V56.7113H39.9298ZM41.2856 56.7113H40.8236V54.71H41.2856V56.0467H41.3007L42.1737 54.71H42.6357V56.7113H42.1737V55.3651H42.1586L41.2856 56.7113ZM43.8514 55.6974H44.1998V55.0687H43.8514C43.7428 55.0687 43.6563 55.0977 43.592 55.1555C43.5289 55.2135 43.4973 55.2921 43.4973 55.3915C43.4973 55.4809 43.5295 55.5546 43.5939 55.6124C43.6583 55.6691 43.7441 55.6974 43.8514 55.6974ZM44.1998 56.7113V56.0411H43.931L43.4632 56.7113H42.9368L43.4765 55.9674C43.3363 55.9246 43.2265 55.8535 43.147 55.754C43.0687 55.6534 43.0296 55.5332 43.0296 55.3935C43.0296 55.1832 43.1003 55.0171 43.2416 54.895C43.3843 54.7716 43.5755 54.71 43.8154 54.71H44.6618V56.7113H44.1998Z" fill="#A89060"/>
</svg>
