<svg width="69" height="73" viewBox="0 0 69 73" fill="none" xmlns="http://www.w3.org/2000/svg">
<path d="M18.0889 33.4856L22.773 38.0928C23.1399 38.4535 23.6182 38.6445 24.1096 38.6445C24.3304 38.6445 24.5538 38.6059 24.7711 38.5269C25.4719 38.2718 25.9514 37.6523 26.0225 36.9101L26.6493 30.3702C26.6532 30.3287 26.675 30.2907 26.7088 30.2661C31.0129 27.1209 33.5826 22.065 33.5826 16.7414C33.5826 12.2257 31.8118 7.99238 28.5961 4.8213C25.3811 1.65079 21.1293 -0.0607158 16.6035 0.00216112C12.2412 0.0628994 8.1267 1.80848 5.01764 4.91754C1.90858 8.0266 0.162997 12.1413 0.102259 16.5034C0.0393818 21.022 1.75089 25.281 4.9214 28.496C8.09248 31.7115 12.3259 33.4823 16.8415 33.4823C17.2199 33.4823 17.6027 33.4695 17.9791 33.4443C18.0202 33.4417 18.0593 33.4564 18.0889 33.4856ZM16.8416 31.3434C12.9028 31.3434 9.21029 29.7987 6.44413 26.9939C3.67869 24.1897 2.1859 20.4745 2.24079 16.5328C2.29354 12.7305 3.81699 9.14242 6.52982 6.42944C9.2428 3.71646 12.8309 2.1933 16.6332 2.14026C20.5721 2.08722 24.2901 3.57816 27.0943 6.34375C29.8991 9.10977 31.4438 12.8023 31.4438 16.7411C31.4438 21.3847 29.2019 25.7951 25.4467 28.5392C24.9201 28.9241 24.5824 29.517 24.5202 30.166L23.938 36.2391L19.5883 31.9609C19.1598 31.5396 18.5835 31.305 17.9877 31.305C17.9372 31.305 17.8865 31.3067 17.8357 31.3102C17.5071 31.3321 17.1724 31.3434 16.8416 31.3434Z" fill="black"/>
<path d="M68.7398 55.0426L63.4744 25.5628C63.0616 23.2553 61.0611 21.5806 58.7176 21.5806H55.3787C54.8209 20.6189 54.0585 19.791 53.1505 19.1564L54.4272 15.6502C54.7697 14.7091 54.2822 13.6644 53.3405 13.3215L51.5162 12.6574L53.525 7.13801C53.8678 6.19671 53.3834 5.15717 52.4417 4.81441L48.5622 3.40246C47.6206 3.05985 46.5813 3.54433 46.2387 4.48591L44.2298 10.0051L42.4048 9.34084C41.4646 8.99866 40.4212 9.48499 40.0773 10.4261L32.0301 32.5346C31.6879 33.476 32.1748 34.5206 33.1157 34.8632L33.3605 34.9523L32.4247 37.5231C32.2529 37.9955 32.2752 38.5063 32.4875 38.9619C32.6999 39.4174 33.077 39.763 33.5492 39.9348L40.4594 42.4499C40.6696 42.5263 40.8872 42.5644 41.1042 42.5644C41.3751 42.5644 41.6453 42.5051 41.8982 42.3872C42.3537 42.1747 42.6992 41.7976 42.8711 41.3254L43.8073 38.7533L44.0511 38.842C44.2542 38.9161 44.4645 38.953 44.6743 38.953C45.3991 38.953 46.1064 38.5088 46.3796 37.7572L48.1431 32.9146C51.2301 33.1895 54.0701 31.5796 55.4853 28.9714C55.7417 29.1132 55.9158 29.386 55.9158 29.6992V37.9302C55.9158 38.5207 56.3944 38.9995 56.9851 38.9995C57.5758 38.9995 58.0544 38.5207 58.0544 37.9302V29.699C58.0544 28.4668 57.2998 27.4079 56.2286 26.9589C56.3385 26.4459 56.3978 25.9146 56.3978 25.3692C56.3978 24.8024 56.3332 24.2508 56.2147 23.7193H58.7174C60.0237 23.7193 61.139 24.6529 61.3691 25.9391L66.6345 55.4185C67.0535 57.7657 66.4162 60.1604 64.8853 61.9888C63.3545 63.8172 61.109 64.8661 58.7247 64.8661C57.6742 64.8661 32.2067 64.8658 31.1571 64.8658V56.2121C31.5968 56.2121 49.1292 56.2117 53.1569 56.2117C55.8574 56.2117 58.0546 54.0147 58.0546 51.3141V42.9206C58.0546 42.33 57.5759 41.8512 56.9852 41.8512C56.3945 41.8512 55.9159 42.33 55.9159 42.9206V51.3141C55.9159 52.8354 54.6782 54.073 53.1569 54.073H51.1745V50.2669C51.1745 49.2841 50.375 48.4847 49.3922 48.4847H26.2952C25.3124 48.4847 24.5129 49.2841 24.5129 50.2669V54.43C24.5129 55.4128 25.3124 56.2123 26.2952 56.2123H29.0185V64.8659H19.4404C18.4576 64.8659 17.6582 65.6653 17.6582 66.6481V71.2178C17.6582 72.2006 18.4576 73 19.4404 73H27.5925C28.1832 73 28.6618 72.5212 28.6618 71.9307C28.6618 71.3401 28.1832 70.8613 27.5925 70.8613H19.7969V67.0043C23.3359 67.0043 52.7197 67.0046 55.8905 67.0046V70.8613H32.5827C31.992 70.8613 31.5134 71.3401 31.5134 71.9307C31.5134 72.5212 31.992 73 32.5827 73H56.2471C57.2299 73 58.0293 72.2006 58.0293 71.2178V67.0046H58.7248C61.7438 67.0046 64.5869 65.6768 66.5253 63.3616C68.4633 61.0467 69.2705 58.0145 68.7398 55.0426ZM48.1368 5.5236L51.4039 6.71256L49.5063 11.9258L46.2394 10.7365L48.1368 5.5236ZM40.9495 40.3522L34.5223 38.0129L35.3703 35.6833L41.7977 38.0219L40.9495 40.3522ZM44.4806 36.7221C42.6087 36.041 35.4229 33.4266 34.1498 32.9635L41.9766 11.4608C42.9337 11.8093 52.3073 15.2213 52.3073 15.2213L51.2275 18.1864C50.4708 17.9322 49.6621 17.7923 48.8208 17.7923C44.6428 17.7923 41.2438 21.1914 41.2438 25.3693C41.2438 28.5686 43.238 31.3093 46.0478 32.4185L44.4806 36.7221ZM48.8209 30.8077C45.8222 30.8077 43.3826 28.368 43.3826 25.3693C43.3826 22.3706 45.8221 19.931 48.8209 19.931C51.8198 19.931 54.2594 22.3706 54.2594 25.3693C54.2594 28.368 51.8196 30.8077 48.8209 30.8077ZM26.6516 50.6231H49.0358V54.0727C48.913 54.0727 30.1707 54.0732 26.6516 54.0732V50.6231Z" fill="black"/>
<path d="M48.8206 22.1309C47.0349 22.1309 45.582 23.5836 45.582 25.3694C45.582 27.1552 47.0348 28.6079 48.8206 28.6079C50.6063 28.6079 52.0592 27.1552 52.0592 25.3694C52.0592 23.5836 50.6063 22.1309 48.8206 22.1309ZM48.8206 26.4694C48.214 26.4694 47.7207 25.9761 47.7207 25.3695C47.7207 24.763 48.214 24.2697 48.8206 24.2697C49.4271 24.2697 49.9206 24.763 49.9206 25.3695C49.9206 25.9761 49.4271 26.4694 48.8206 26.4694Z" fill="black"/>
<path d="M23.4889 15.7033C25.3303 15.7033 26.8283 14.2053 26.8283 12.3639C26.8283 10.5225 25.3303 9.02441 23.4889 9.02441C21.6475 9.02441 20.1494 10.5225 20.1494 12.3639C20.1494 14.2053 21.6475 15.7033 23.4889 15.7033ZM23.4889 11.1631C24.151 11.1631 24.6897 11.7017 24.6897 12.3639C24.6897 13.026 24.151 13.5647 23.4889 13.5647C22.8267 13.5647 22.2881 13.026 22.2881 12.3639C22.2881 11.7017 22.8267 11.1631 23.4889 11.1631Z" fill="black"/>
<path d="M9.17931 13.2524C7.33791 13.2524 5.83984 14.7505 5.83984 16.5919C5.83984 18.4333 7.33791 19.9314 9.17931 19.9314C11.0207 19.9314 12.5189 18.4333 12.5189 16.5919C12.5189 14.7505 11.0207 13.2524 9.17931 13.2524ZM9.17931 17.7927C8.51717 17.7927 7.97851 17.254 7.97851 16.5919C7.97851 15.9298 8.51717 15.3911 9.17931 15.3911C9.84158 15.3911 10.3802 15.9298 10.3802 16.5919C10.3802 17.254 9.84158 17.7927 9.17931 17.7927Z" fill="black"/>
<path d="M25.6405 20.2654L24.0116 21.8942C23.5938 22.3118 23.5938 22.9887 24.0114 23.4064C24.2203 23.6152 24.4939 23.7196 24.7677 23.7196C25.0413 23.7196 25.315 23.6152 25.5238 23.4064L27.1527 21.7775C27.5705 21.3599 27.5705 20.683 27.1529 20.2654C26.7352 19.8477 26.058 19.8477 25.6405 20.2654Z" fill="black"/>
<path d="M15.0265 7.25906C14.609 6.84131 13.9319 6.84145 13.5143 7.25906L11.8855 8.88788C11.4678 9.30549 11.4678 9.98259 11.8856 10.4001C12.0943 10.6089 12.3681 10.7133 12.6417 10.7133C12.9153 10.7133 13.1891 10.6089 13.3979 10.4001L15.0267 8.77125C15.4442 8.35364 15.4442 7.67667 15.0265 7.25906Z" fill="black"/>
<path d="M18.4123 16.1784L16.7835 14.5495C16.3659 14.1319 15.6888 14.1319 15.2713 14.5495C14.8536 14.9671 14.8536 15.6441 15.2712 16.0617L16.9 17.6905C17.1089 17.8994 17.3825 18.0038 17.6562 18.0038C17.9299 18.0038 18.2036 17.8994 18.4123 17.6905C18.83 17.2731 18.83 16.596 18.4123 16.1784Z" fill="black"/>
<path d="M15.4391 23.0784L13.8103 24.7072C13.3926 25.1248 13.3926 25.8019 13.8104 26.2194C14.0191 26.4283 14.2929 26.5326 14.5665 26.5326C14.8401 26.5326 15.1139 26.4283 15.3227 26.2194L16.9515 24.5906C17.3692 24.173 17.3692 23.4959 16.9514 23.0784C16.5338 22.6606 15.8567 22.6608 15.4391 23.0784Z" fill="black"/>
</svg>
