<svg width="58" height="58" viewBox="0 0 58 58" fill="none" xmlns="http://www.w3.org/2000/svg">
<path d="M45.8381 35.929C44.6507 34.6926 43.2184 34.0316 41.7005 34.0316C40.1949 34.0316 38.7504 34.6803 37.514 35.9167L33.6458 39.7727C33.3275 39.6013 33.0092 39.4422 32.7032 39.2831C32.2625 39.0627 31.8463 38.8546 31.4913 38.6343C27.8679 36.3329 24.575 33.3338 21.4167 29.4533C19.8865 27.5192 18.8583 25.8911 18.1115 24.2385C19.1153 23.3204 20.0457 22.3656 20.9515 21.4475C21.2943 21.1047 21.637 20.7497 21.9798 20.407C24.5505 17.8363 24.5505 14.5067 21.9798 11.936L18.6379 8.59413C18.2584 8.21465 17.8667 7.82293 17.4995 7.43121C16.765 6.67225 15.9938 5.88881 15.1981 5.15433C14.0107 3.97916 12.5907 3.35486 11.0973 3.35486C9.60385 3.35486 8.15938 3.97916 6.93525 5.15433C6.92301 5.16657 6.92301 5.16657 6.91077 5.17881L2.74872 9.37758C1.18184 10.9445 0.288224 12.8541 0.0923633 15.0698C-0.201428 18.6442 0.851324 21.9739 1.65925 24.1528C3.64234 29.5023 6.60473 34.46 11.0238 39.7727C16.3855 46.1749 22.8367 51.2306 30.2059 54.7928C33.0215 56.1271 36.7795 57.7062 40.9783 57.9755C41.2354 57.9878 41.5047 58 41.7495 58C44.5772 58 46.952 56.984 48.8127 54.9642C48.825 54.9397 48.8494 54.9274 48.8617 54.903C49.4982 54.1318 50.2327 53.434 51.0039 52.6873C51.5303 52.1854 52.0689 51.659 52.5953 51.1082C53.8072 49.8473 54.4437 48.3784 54.4437 46.8727C54.4437 45.3548 53.7949 43.898 52.5586 42.6739L45.8381 35.929ZM50.2205 48.819C50.2082 48.819 50.2082 48.8313 50.2205 48.819C49.7431 49.3332 49.2534 49.7983 48.727 50.3125C47.9313 51.0714 47.1234 51.8671 46.3645 52.7607C45.1281 54.0828 43.6714 54.7071 41.7617 54.7071C41.5781 54.7071 41.3823 54.7071 41.1986 54.6949C37.563 54.4623 34.1844 53.0423 31.6504 51.8304C24.7219 48.4763 18.6379 43.7144 13.5823 37.6795C9.40799 32.6483 6.61697 27.9966 4.76854 23.0021C3.6301 19.9541 3.21389 17.5792 3.39751 15.3391C3.51993 13.9069 4.07078 12.7195 5.08681 11.7034L9.26109 7.52914C9.86092 6.96604 10.4975 6.66001 11.1218 6.66001C11.893 6.66001 12.5173 7.12518 12.909 7.5169C12.9212 7.52914 12.9335 7.54138 12.9457 7.55362C13.6924 8.25138 14.4024 8.97361 15.1492 9.74482C15.5286 10.1365 15.9204 10.5283 16.3121 10.9322L19.654 14.2741C20.9515 15.5717 20.9515 16.7713 19.654 18.0689C19.299 18.4239 18.9562 18.7789 18.6012 19.1216C17.5729 20.1744 16.5936 21.1537 15.5286 22.1085C15.5042 22.133 15.4797 22.1453 15.4674 22.1697C14.4147 23.2225 14.6105 24.2508 14.8309 24.9485C14.8431 24.9852 14.8554 25.022 14.8676 25.0587C15.7367 27.1642 16.9609 29.1473 18.8215 31.5098L18.8338 31.5221C22.2124 35.6841 25.7746 38.9281 29.7041 41.4131C30.206 41.7313 30.7201 41.9884 31.2097 42.2332C31.6504 42.4536 32.0666 42.6617 32.4216 42.882C32.4706 42.9065 32.5196 42.9432 32.5685 42.9677C32.9847 43.1758 33.3764 43.2737 33.7804 43.2737C34.7964 43.2737 35.433 42.6372 35.6411 42.4291L39.8276 38.2426C40.2438 37.8264 40.9048 37.3245 41.676 37.3245C42.435 37.3245 43.0593 37.8019 43.4388 38.2181C43.451 38.2303 43.451 38.2303 43.4633 38.2426L50.2082 44.9875C51.4691 46.2361 51.4691 47.5215 50.2205 48.819Z" fill="black"/>
<path d="M31.3447 13.7967C34.5519 14.3353 37.4653 15.8532 39.7912 18.1791C42.117 20.5049 43.6227 23.4184 44.1735 26.6256C44.3082 27.4335 45.0059 27.9966 45.8016 27.9966C45.8996 27.9966 45.9852 27.9844 46.0832 27.9721C46.989 27.8252 47.5889 26.9683 47.442 26.0625C46.7809 22.182 44.9447 18.6443 42.1415 15.841C39.3382 13.0378 35.8005 11.2016 31.92 10.5405C31.0141 10.3936 30.1695 10.9935 30.0104 11.8871C29.8512 12.7807 30.4388 13.6498 31.3447 13.7967Z" fill="#DDD0A4"/>
<path d="M57.9325 25.5851C56.843 19.1951 53.8316 13.3805 49.2044 8.7533C44.5772 4.12609 38.7626 1.11473 32.3726 0.0252554C31.479 -0.133881 30.6344 0.478183 30.4752 1.3718C30.3283 2.27765 30.9282 3.1223 31.834 3.28144C37.5385 4.2485 42.741 6.95383 46.8786 11.0791C51.0161 15.2167 53.7092 20.4193 54.6763 26.1237C54.8109 26.9316 55.5087 27.4947 56.3044 27.4947C56.4023 27.4947 56.488 27.4825 56.5859 27.4702C57.4795 27.3356 58.0916 26.4787 57.9325 25.5851Z" fill="#DDD0A4"/>
</svg>
