<svg width="574" height="574" viewBox="0 0 574 574" fill="none" xmlns="http://www.w3.org/2000/svg">
<g filter="url(#filter0_dd_1_523)">
<path opacity="0.9" d="M111.356 145.922C184.472 84.1944 321.911 81.9328 368.152 176.057C378.484 196.985 378.025 221.805 394.361 240.345C407.747 255.499 438.433 255.522 461.898 272.375C506.854 304.668 516.945 385.831 449.982 405.921C401.846 420.375 347.626 378.542 305.827 364.375C255.315 347.236 211.691 366.614 161.466 355.754C62.9796 334.401 35.6686 209.797 111.356 145.922Z" fill="#4A607A"/>
<path d="M287 490.839C164.07 490.839 64.4145 485.021 64.4145 477.843C64.4145 470.666 164.07 464.848 287 464.848C409.931 464.848 509.586 470.666 509.586 477.843C509.586 485.021 409.931 490.839 287 490.839Z" fill="#193554"/>
<path d="M304.025 209.292C305.678 215.594 307.469 221.816 309.455 228.027C310.419 231.134 311.437 234.238 312.509 237.337C313.565 240.437 314.678 243.525 315.953 246.682L316.263 247.451C316.4 247.796 316.55 248.094 316.699 248.404C316.999 248.976 317.329 249.531 317.686 250.069C318.322 251.007 319.04 251.887 319.833 252.698C321.209 254.091 322.703 255.362 324.299 256.497C327.179 258.517 330.225 260.292 333.402 261.801C339.46 264.695 345.769 267.028 352.253 268.77L354.675 262.456C351.954 260.952 349.13 259.413 346.432 257.795C343.734 256.176 341.037 254.569 338.488 252.847C336.006 251.234 333.639 249.45 331.405 247.509C330.435 246.669 329.544 245.743 328.741 244.742C328.443 244.357 328.174 243.951 327.938 243.525C327.86 243.386 327.794 243.24 327.743 243.089C327.737 243.035 327.737 242.982 327.743 242.928V242.836L327.662 242.561C325.871 236.637 324.218 230.369 322.508 224.193C320.797 218.017 319.064 211.794 317.273 205.641L304.025 209.292Z" fill="#FBCA91"/>
<path d="M301.028 202.599C297.056 210.635 309.764 236.89 309.764 236.89L326.031 230.438C325.512 222.471 323.969 214.603 321.439 207.03C317.318 195.596 305.436 193.702 301.028 202.599Z" fill="#0D1C41"/>
<path opacity="0.2" d="M300.626 203.621C304.472 202.335 308.375 204.275 311.636 211.657C314.896 219.038 316.848 230.84 316.71 234.192L309.822 236.936C309.822 236.936 297.883 212.541 300.626 203.621Z" fill="black"/>
<path d="M353.067 262.054L359.381 262.203C360.164 262.225 360.934 262.407 361.644 262.738C362.353 263.068 362.988 263.541 363.508 264.126C364.029 264.71 364.424 265.396 364.67 266.139C364.916 266.883 365.007 267.668 364.937 268.448C364.838 269.447 364.479 270.403 363.895 271.219C363.311 272.036 362.523 272.685 361.61 273.102C360.697 273.519 359.691 273.69 358.691 273.596C357.692 273.503 356.734 273.149 355.914 272.57C354.098 271.316 352.438 269.852 350.966 268.207L353.067 262.054Z" fill="#FBCA91"/>
<path d="M354.262 262.042C353.053 264.096 352.09 266.285 351.392 268.563C351.347 268.699 351.256 268.816 351.134 268.891C351.012 268.967 350.868 268.997 350.726 268.976C348.759 268.718 346.863 268.075 345.146 267.082C345.07 267.015 345.013 266.928 344.982 266.831C344.952 266.734 344.949 266.63 344.974 266.531C345.537 264.109 347.902 258.966 349.233 258.943C350.324 258.943 352.976 260.527 354.089 261.239C354.155 261.279 354.213 261.331 354.257 261.394C354.302 261.457 354.334 261.528 354.35 261.603C354.366 261.679 354.366 261.757 354.351 261.832C354.336 261.908 354.306 261.979 354.262 262.042Z" fill="#0D1C41"/>
<path d="M312.819 197.594C312.819 197.594 320.361 226.937 303.635 277.839L254.018 271.812C254.604 264.155 263.902 227.58 260.906 190.809C266.52 190.417 272.153 190.39 277.77 190.729C284.843 191.173 291.885 192.028 298.859 193.289C303.617 194.359 308.284 195.798 312.819 197.594Z" fill="#0D1C41"/>
<path d="M290.604 218.327C290.623 218.323 290.64 218.315 290.656 218.304C290.671 218.293 290.684 218.279 290.693 218.263C290.703 218.247 290.709 218.229 290.712 218.21C290.714 218.191 290.713 218.172 290.708 218.154C289.25 212.954 291.569 210.52 295.093 206.812C298.441 203.489 301.301 199.709 303.588 195.585C309.397 184.851 303.738 180.557 299.995 177.722C299.268 177.204 298.581 176.632 297.94 176.011C297.927 175.998 297.912 175.987 297.895 175.979C297.878 175.972 297.86 175.967 297.841 175.967C297.822 175.966 297.804 175.969 297.786 175.976C297.769 175.983 297.753 175.993 297.739 176.006C297.726 176.018 297.715 176.034 297.707 176.051C297.7 176.068 297.695 176.086 297.695 176.105C297.694 176.124 297.697 176.142 297.704 176.16C297.711 176.177 297.721 176.193 297.734 176.207C298.381 176.84 299.076 177.423 299.811 177.951C303.485 180.73 308.995 184.931 303.336 195.447C301.077 199.559 298.244 203.328 294.921 206.64C291.328 210.405 288.963 212.897 290.467 218.246C290.48 218.271 290.5 218.292 290.524 218.306C290.548 218.321 290.576 218.328 290.604 218.327Z" fill="white"/>
<path d="M282.74 167.229C283.246 174.174 283.062 186.745 277.77 190.729C284.022 194.392 289.62 199.071 294.335 204.573C296.803 200.636 298.801 196.79 298.858 193.289C291.511 190.556 292.384 184.966 294.347 179.857L282.74 167.229Z" fill="#FBCA91"/>
<path opacity="0.2" d="M287.47 172.384L294.358 179.846C293.874 181.036 293.49 182.265 293.21 183.519C290.375 182.75 286.782 179.088 286.85 176.023C286.829 174.782 287.04 173.548 287.47 172.384Z" fill="black"/>
<path d="M307.342 146.301C313.955 150.101 309.213 165.599 305.907 166.793C299.708 169.02 299.134 141.594 307.342 146.301Z" fill="#0D1C41"/>
<path d="M283.177 156.92C282.626 166.173 281.834 171.569 285.898 176.85C292.017 184.794 303.875 181.958 307.182 173.05C310.155 165.014 310.557 151.238 302.004 146.496C300.125 145.435 298.005 144.872 295.847 144.863C293.688 144.854 291.564 145.398 289.675 146.443C287.787 147.489 286.198 149.001 285.061 150.835C283.923 152.669 283.274 154.764 283.177 156.92Z" fill="#FBCA91"/>
<path d="M276.599 148.792C275.715 154.165 280.043 169.307 283.969 169.456C287.895 169.606 290.019 161.328 288.997 153.522C292.705 152.891 315.332 155.818 312.462 146.186C309.81 137.301 296.574 141.468 287.539 135.613C286.85 139.138 290.776 142.318 288.825 141.744C280.789 139.367 277.459 144.43 271.846 141.87C272.089 143.299 272.64 144.659 273.46 145.854C274.281 147.05 275.352 148.052 276.599 148.792Z" fill="#0D1C41"/>
<path d="M277.816 166.54C278.304 167.596 278.995 168.545 279.85 169.333C280.705 170.121 281.707 170.732 282.798 171.132C285.714 172.154 287.39 169.594 286.736 166.736C286.15 164.164 283.935 160.525 280.927 160.743C277.919 160.961 276.599 163.946 277.816 166.54Z" fill="#FFDBB1"/>
<path d="M303.623 277.816C303.623 277.816 321.291 336.467 323.368 364.903C325.527 394.487 332.725 469.279 332.725 469.279L325.469 471.461C325.469 471.461 300.822 402.581 299.857 373.49C299.226 354.445 265.107 273.144 265.107 273.144L303.623 277.816Z" fill="#FBCA91"/>
<path d="M327.088 477.706C326.901 477.796 326.696 477.842 326.489 477.841C326.282 477.841 326.077 477.794 325.891 477.703C325.704 477.613 325.541 477.481 325.412 477.319C325.283 477.156 325.193 476.967 325.148 476.765M327.088 477.706L323.38 468.442L325.148 476.765M327.088 477.706C328.462 477.053 329.528 476.508 330.607 475.957C332.125 475.183 333.667 474.395 336.123 473.275L327.088 477.706ZM325.148 476.765L325.636 476.655C325.636 476.656 325.636 476.657 325.636 476.658M325.148 476.765L325.637 476.661L325.636 476.658M325.636 476.658C325.665 476.786 325.723 476.906 325.804 477.009C325.886 477.112 325.99 477.196 326.109 477.253C326.228 477.311 326.358 477.341 326.49 477.341C326.622 477.342 326.753 477.312 326.872 477.255L326.873 477.254C328.24 476.604 329.3 476.063 330.378 475.513C330.598 475.4 330.819 475.288 331.043 475.174C332.367 474.5 333.806 473.782 335.915 472.82L335.915 472.82L335.92 472.818C336.924 472.371 338.903 471.52 341.161 470.548C344.764 468.998 349.077 467.142 351.275 466.138C352.891 465.401 353.366 464.239 353.332 463.363C353.315 462.91 353.164 462.538 352.97 462.31C352.781 462.087 352.583 462.027 352.403 462.065M325.636 476.658L323.869 468.338L323.868 468.334C323.853 468.266 323.862 468.195 323.894 468.132C323.926 468.07 323.978 468.02 324.042 467.992L324.047 467.989L324.047 467.989L333.596 463.628L352.403 462.065M352.403 462.065C348.786 462.843 345.185 463.452 342.109 463.75C339.06 464.046 336.449 464.044 334.861 463.547C334.444 463.419 333.995 463.448 333.597 463.627L352.403 462.065Z" fill="white" stroke="#4A607A"/>
<path d="M338.384 461.117C338.358 461.05 338.328 460.985 338.292 460.922C338.236 460.797 338.146 460.691 338.032 460.614C337.919 460.537 337.786 460.492 337.65 460.486C336.502 460.428 334.619 463.172 334.206 463.723C334.178 463.766 334.163 463.816 334.163 463.867C334.163 463.918 334.178 463.967 334.206 464.01C334.231 464.055 334.271 464.091 334.319 464.111C334.366 464.132 334.419 464.137 334.47 464.125C335.618 463.895 337.764 463.333 338.304 462.208C338.394 462.042 338.447 461.859 338.461 461.671C338.475 461.483 338.449 461.294 338.384 461.117ZM335.078 463.471C335.916 462.323 337.076 460.991 337.627 461.014C337.684 461.014 337.753 461.014 337.822 461.163C337.899 461.285 337.946 461.424 337.958 461.568C337.97 461.712 337.947 461.857 337.891 461.99C337.172 462.819 336.168 463.347 335.078 463.471Z" fill="#4A607A"/>
<path d="M335.698 459.785L335.594 459.59C335.489 459.452 335.34 459.352 335.172 459.306C335.004 459.261 334.826 459.272 334.664 459.338C334.496 459.391 334.341 459.479 334.209 459.596C334.076 459.712 333.97 459.855 333.895 460.015C333.275 461.289 334.194 463.849 334.228 463.953C334.242 463.999 334.268 464.04 334.305 464.07C334.342 464.101 334.387 464.12 334.435 464.125C334.482 464.132 334.531 464.127 334.575 464.108C334.62 464.09 334.659 464.06 334.687 464.022C335.307 463.195 336.099 460.819 335.698 459.785ZM334.55 463.229C334.196 462.27 334.133 461.228 334.366 460.233C334.41 460.139 334.472 460.056 334.549 459.987C334.626 459.918 334.716 459.865 334.814 459.831C335.066 459.751 335.135 459.831 335.158 459.889C335.491 460.348 335.089 462.173 334.55 463.241V463.229Z" fill="#4A607A"/>
<path d="M303.623 277.816C303.623 277.816 310.97 300.776 313.255 311.429C308.594 311.831 286.713 318.513 282.339 321.187C279.664 316.331 266.681 273.327 266.681 273.327L303.623 277.816Z" fill="#A89060"/>
<path opacity="0.2" d="M280.652 289.101C282.006 294.232 283.786 306.883 279.951 315.115C278.241 310.259 276.002 303.325 273.833 296.505C276.06 291.89 279.664 285.347 280.652 289.101Z" fill="black"/>
<path d="M313.404 307.905C314.073 309.455 314.462 311.11 314.552 312.796C310.97 313.485 287.539 320.751 283.234 323.036C281.145 321.498 280.835 318.18 280.72 318.226C280.605 318.272 300.179 309.731 313.404 307.905Z" fill="#4A607A"/>
<path opacity="0.2" d="M313.404 307.905C314.073 309.455 314.462 311.11 314.552 312.796C310.97 313.485 287.539 320.751 283.234 323.036C281.145 321.498 280.835 318.18 280.72 318.226C280.605 318.272 300.179 309.731 313.404 307.905Z" fill="white"/>
<path d="M289.973 276.186C289.973 276.186 261.95 351.518 247.967 375.993C233.135 402.053 171.281 353.986 171.281 353.986L176.837 348.166C176.837 348.166 213.126 363.916 227.464 362.768C241.562 336.364 254.006 271.801 254.006 271.801L289.973 276.186Z" fill="#FBCA91"/>
<path d="M290.88 276.289C290.88 276.289 277.712 310.236 274.463 320.602C270.204 318.65 247.336 313.714 242.216 313.863C242.285 308.307 254.006 271.812 254.006 271.812L290.88 276.289Z" fill="#A89060"/>
<path d="M264.556 276.346C264.587 276.344 264.616 276.333 264.64 276.315C264.664 276.297 264.683 276.272 264.694 276.243C267.782 266.256 274.613 258.667 280.64 251.974C287.952 243.847 294.266 236.832 293.268 227.43C292.544 220.336 289.824 216.157 287.401 212.506C283.957 207.248 281.248 203.093 286.552 192.91C294.519 177.641 285.909 170.214 282.672 167.424C282.327 167.139 281.998 166.836 281.684 166.517C281.672 166.504 281.656 166.494 281.64 166.487C281.623 166.48 281.605 166.477 281.587 166.477C281.569 166.477 281.551 166.48 281.534 166.487C281.517 166.494 281.502 166.504 281.489 166.517C281.463 166.545 281.448 166.582 281.448 166.621C281.448 166.659 281.463 166.696 281.489 166.724C281.696 166.954 282.052 167.264 282.511 167.665C285.702 170.409 294.175 177.733 286.322 192.807C280.95 203.139 283.705 207.352 287.183 212.69C289.583 216.352 292.292 220.496 293.015 227.511C293.968 236.786 287.688 243.766 280.387 251.837C274.349 258.552 267.495 266.164 264.384 276.22C264.379 276.238 264.377 276.256 264.379 276.274C264.38 276.292 264.386 276.309 264.394 276.325C264.403 276.341 264.414 276.356 264.428 276.367C264.442 276.379 264.458 276.387 264.476 276.392L264.556 276.346Z" fill="white"/>
<path d="M279.836 166.586C279.894 166.785 279.996 166.968 280.134 167.123C280.271 167.278 280.442 167.4 280.632 167.481C280.823 167.562 281.029 167.599 281.236 167.591C281.443 167.583 281.646 167.528 281.829 167.432C282.013 167.336 282.173 167.201 282.297 167.035C282.422 166.87 282.509 166.679 282.551 166.476C282.593 166.274 282.59 166.064 282.541 165.863C282.492 165.661 282.4 165.473 282.27 165.312C282.114 164.931 281.815 164.627 281.437 164.464C281.06 164.3 280.633 164.292 280.249 164.44C279.913 164.672 279.681 165.027 279.604 165.429C279.527 165.83 279.61 166.246 279.836 166.586Z" fill="white"/>
<path d="M267.411 276.074L258.268 274.44C258.076 274.406 257.879 274.449 257.719 274.561C257.559 274.672 257.45 274.842 257.415 275.034L256.662 279.25L267.251 281.141L268.005 276.926C268.022 276.831 268.02 276.734 267.999 276.64C267.978 276.545 267.939 276.456 267.884 276.377C267.829 276.298 267.759 276.23 267.677 276.178C267.596 276.126 267.506 276.091 267.411 276.074Z" fill="white"/>
<path d="M275.887 317.342C275.707 319.017 275.228 320.646 274.475 322.152C271.031 321.004 247.038 315.758 242.17 315.62C241.102 313.255 242.468 310.213 242.354 310.201C242.239 310.19 263.534 312.44 275.887 317.342Z" fill="#4A607A"/>
<path opacity="0.2" d="M275.887 317.342C275.707 319.017 275.228 320.646 274.475 322.152C271.031 321.004 247.038 315.758 242.17 315.62C241.102 313.255 242.468 310.213 242.354 310.201C242.239 310.19 263.534 312.44 275.887 317.342Z" fill="white"/>
<path d="M152.68 362.223C155.952 360.494 159.257 358.941 162.139 357.831C164.995 356.732 167.51 356.038 169.171 356.092C169.606 356.1 170.03 355.95 170.363 355.67L170.363 355.67L178.394 348.912C178.449 348.862 178.487 348.797 178.501 348.724C178.515 348.651 178.504 348.575 178.471 348.509L174.537 340.973C174.474 340.857 174.387 340.758 174.28 340.681C174.173 340.604 174.05 340.551 173.92 340.528C173.79 340.505 173.656 340.511 173.529 340.547C173.402 340.583 173.284 340.647 173.185 340.734L173.185 340.734L173.183 340.736C172.045 341.727 171.17 342.531 170.28 343.35C170.097 343.518 169.914 343.687 169.727 343.859C168.632 344.863 167.438 345.941 165.669 347.434L165.667 347.435C164.707 348.239 162.663 349.886 160.422 351.691C160.107 351.944 159.788 352.201 159.468 352.459C156.865 354.557 154.166 356.737 152.673 357.996C151.318 359.138 151.172 360.387 151.438 361.223C151.577 361.656 151.822 361.974 152.069 362.141C152.31 362.304 152.516 362.309 152.68 362.223ZM152.68 362.223L152.914 362.665M152.68 362.223C152.68 362.223 152.68 362.222 152.68 362.222L152.914 362.665M152.914 362.665C151.456 363.434 149.355 360.139 152.351 357.613C154.034 356.195 157.237 353.615 160.108 351.302C162.35 349.495 164.39 347.852 165.347 347.052L170.685 356.052C170.258 356.412 169.715 356.603 169.158 356.592C166.058 356.488 159.434 359.221 152.914 362.665Z" fill="white" stroke="#4A607A"/>
<path d="M166.459 359.324L166.597 359.485C166.686 359.588 166.801 359.666 166.93 359.711C167.059 359.755 167.198 359.764 167.332 359.737C168.48 359.473 169.525 356.293 169.731 355.708C169.748 355.657 169.75 355.603 169.735 355.552C169.721 355.501 169.692 355.455 169.651 355.421C169.608 355.393 169.558 355.378 169.507 355.378C169.456 355.378 169.407 355.393 169.364 355.421C168.216 355.972 166.402 357.074 166.184 358.291C166.155 358.473 166.165 358.659 166.212 358.837C166.26 359.014 166.344 359.181 166.459 359.324ZM169.008 356.167C168.514 357.522 167.745 359.094 167.217 359.221C167.172 359.228 167.126 359.224 167.084 359.208C167.041 359.192 167.004 359.164 166.976 359.129C166.871 359.03 166.791 358.908 166.743 358.772C166.695 358.636 166.68 358.491 166.7 358.348C166.792 357.763 167.607 357.028 168.985 356.213L169.008 356.167Z" fill="#4A607A"/>
<path d="M169.388 359.921C169.425 359.985 169.476 360.04 169.537 360.082C169.673 360.194 169.843 360.255 170.019 360.255C170.195 360.255 170.365 360.194 170.501 360.082C170.647 359.986 170.772 359.862 170.866 359.715C170.961 359.569 171.025 359.405 171.052 359.232C171.316 357.832 169.743 355.616 169.675 355.513C169.646 355.474 169.607 355.444 169.563 355.426C169.518 355.408 169.469 355.402 169.422 355.409C169.377 355.417 169.334 355.436 169.298 355.464C169.262 355.492 169.234 355.528 169.215 355.57C168.837 356.546 168.756 359.049 169.388 359.921ZM169.56 356.293C170.156 357.123 170.495 358.109 170.536 359.129C170.52 359.231 170.483 359.328 170.428 359.415C170.372 359.502 170.3 359.577 170.214 359.634C169.996 359.783 169.904 359.714 169.87 359.634C169.422 359.324 169.33 357.464 169.56 356.293Z" fill="#4A607A"/>
<path d="M296.803 161.179C296.711 161.925 297.033 162.58 297.515 162.637C297.997 162.695 298.479 162.143 298.571 161.397C298.663 160.651 298.342 159.985 297.848 159.928C297.354 159.87 296.895 160.433 296.803 161.179Z" fill="#806838"/>
<path d="M305.253 162.201C305.161 162.959 305.494 163.613 305.976 163.67C306.459 163.728 306.941 163.165 307.033 162.419C307.124 161.673 306.792 161.019 306.309 160.961C305.827 160.904 305.368 161.455 305.253 162.201Z" fill="#806838"/>
<path d="M302.521 162.247C303.136 164.66 304.078 166.978 305.322 169.135C304.765 169.436 304.149 169.613 303.516 169.652C302.884 169.692 302.251 169.594 301.66 169.364L302.521 162.247Z" fill="#BC8F63"/>
<path d="M299.26 171.121C299.314 171.121 299.366 171.101 299.407 171.065C299.447 171.029 299.472 170.979 299.478 170.926C299.481 170.897 299.479 170.868 299.471 170.84C299.463 170.813 299.449 170.787 299.431 170.764C299.413 170.742 299.39 170.723 299.365 170.71C299.34 170.696 299.312 170.687 299.283 170.685C298.342 170.599 297.435 170.291 296.637 169.786C295.838 169.281 295.171 168.594 294.691 167.78C294.679 167.753 294.661 167.729 294.639 167.709C294.617 167.689 294.592 167.674 294.564 167.665C294.536 167.655 294.506 167.651 294.477 167.653C294.447 167.655 294.419 167.663 294.393 167.677C294.342 167.706 294.304 167.752 294.285 167.807C294.266 167.862 294.268 167.921 294.289 167.975C294.794 168.855 295.503 169.6 296.356 170.147C297.209 170.695 298.182 171.029 299.191 171.121H299.26Z" fill="#806838"/>
<path d="M294.634 158.149C294.694 158.148 294.753 158.136 294.809 158.112C294.864 158.089 294.914 158.054 294.955 158.011C295.328 157.596 295.794 157.276 296.315 157.076C296.836 156.876 297.397 156.803 297.952 156.863C298.06 156.868 298.166 156.833 298.251 156.766C298.335 156.699 298.393 156.603 298.413 156.497C298.432 156.39 298.413 156.28 298.357 156.187C298.302 156.094 298.215 156.024 298.112 155.99C297.415 155.902 296.707 155.981 296.046 156.221C295.385 156.46 294.791 156.853 294.312 157.368C294.232 157.453 294.187 157.566 294.187 157.684C294.187 157.801 294.232 157.914 294.312 157.999C294.397 158.087 294.512 158.14 294.634 158.149Z" fill="#806838"/>
<path d="M309.363 159.756H309.512C309.623 159.717 309.713 159.636 309.765 159.531C309.816 159.426 309.825 159.304 309.788 159.193C309.574 158.523 309.203 157.914 308.706 157.417C308.208 156.92 307.599 156.549 306.929 156.335C306.873 156.319 306.814 156.315 306.756 156.323C306.698 156.331 306.642 156.351 306.591 156.381C306.541 156.411 306.497 156.451 306.463 156.498C306.428 156.545 306.403 156.599 306.39 156.656C306.362 156.77 306.38 156.891 306.44 156.992C306.5 157.093 306.598 157.166 306.711 157.196C307.253 157.36 307.746 157.656 308.147 158.056C308.547 158.457 308.843 158.95 309.007 159.492C309.038 159.563 309.087 159.626 309.149 159.672C309.212 159.719 309.286 159.748 309.363 159.756Z" fill="#806838"/>
<path d="M253.248 197.295C250.447 202.806 247.99 208.259 245.694 213.953C244.546 216.8 243.467 219.693 242.503 222.643C241.457 225.696 240.594 228.809 239.92 231.965C239.759 232.803 239.61 233.675 239.484 234.582C239.351 235.599 239.274 236.622 239.254 237.647C239.245 239.418 239.68 241.162 240.517 242.722C241.269 244.1 242.31 245.298 243.571 246.234C245.366 247.545 247.402 248.489 249.563 249.013C251.281 249.444 253.032 249.732 254.798 249.874C261.147 250.288 267.523 249.786 273.729 248.381L273.12 241.654L268.838 241.287C267.403 241.149 265.979 240.977 264.567 240.816C261.836 240.496 259.126 240.017 256.451 239.381C255.275 239.089 254.123 238.705 253.007 238.233C252.282 238.002 251.618 237.609 251.067 237.085C250.987 236.959 251.067 236.97 251.274 237.2C251.426 237.432 251.528 237.694 251.572 237.969C251.572 238.026 251.572 237.969 251.572 237.888V237.728V237.395L251.721 236.603C251.859 236.04 251.997 235.455 252.169 234.846C252.869 232.401 253.799 229.749 254.844 227.132C255.889 224.514 256.991 221.851 258.162 219.21C260.458 213.93 262.949 208.569 265.383 203.391L253.248 197.295Z" fill="#FBCA91"/>
<path d="M269.78 243.296L273.649 238.313C274.131 237.697 274.735 237.186 275.423 236.812C276.11 236.438 276.867 236.208 277.647 236.137C278.426 236.066 279.212 236.155 279.956 236.399C280.7 236.643 281.386 237.037 281.972 237.556C282.715 238.23 283.268 239.087 283.576 240.041C283.885 240.996 283.938 242.015 283.73 242.996C283.522 243.977 283.061 244.887 282.391 245.635C281.722 246.382 280.869 246.941 279.917 247.256C277.83 247.965 275.669 248.431 273.476 248.645L269.78 243.296Z" fill="#FFDBB1"/>
<path d="M260.906 190.809C246.625 192.784 242.159 217.213 242.159 217.213L258.047 225.502C263.103 220.292 267.415 214.408 270.859 208.018C276.496 197.376 270.4 189.489 260.906 190.809Z" fill="#0D1C41"/>
</g>
<defs>
<filter id="filter0_dd_1_523" x="-7" y="-7" width="588" height="588" filterUnits="userSpaceOnUse" color-interpolation-filters="sRGB">
<feFlood flood-opacity="0" result="BackgroundImageFix"/>
<feColorMatrix in="SourceAlpha" type="matrix" values="0 0 0 0 0 0 0 0 0 0 0 0 0 0 0 0 0 0 127 0" result="hardAlpha"/>
<feOffset dx="-2" dy="-2"/>
<feGaussianBlur stdDeviation="2.5"/>
<feColorMatrix type="matrix" values="0 0 0 0 0.0791667 0 0 0 0 0.114 0 0 0 0 0.2375 0 0 0 0.15 0"/>
<feBlend mode="normal" in2="BackgroundImageFix" result="effect1_dropShadow_1_523"/>
<feColorMatrix in="SourceAlpha" type="matrix" values="0 0 0 0 0 0 0 0 0 0 0 0 0 0 0 0 0 0 127 0" result="hardAlpha"/>
<feOffset dx="2" dy="2"/>
<feGaussianBlur stdDeviation="2.5"/>
<feColorMatrix type="matrix" values="0 0 0 0 0.0784314 0 0 0 0 0.113725 0 0 0 0 0.239216 0 0 0 0.15 0"/>
<feBlend mode="normal" in2="effect1_dropShadow_1_523" result="effect2_dropShadow_1_523"/>
<feBlend mode="normal" in="SourceGraphic" in2="effect2_dropShadow_1_523" result="shape"/>
</filter>
</defs>
</svg>
