<svg width="30" height="30" viewBox="0 0 30 30" fill="none" xmlns="http://www.w3.org/2000/svg">
<path d="M14.9997 0.833496C7.17967 0.833496 0.833008 7.18016 0.833008 15.0002C0.833008 22.8202 7.17967 29.1668 14.9997 29.1668C22.8197 29.1668 29.1663 22.8202 29.1663 15.0002C29.1663 7.18016 22.8197 0.833496 14.9997 0.833496ZM14.9997 5.0835C17.3513 5.0835 19.2497 6.98183 19.2497 9.3335C19.2497 11.6852 17.3513 13.5835 14.9997 13.5835C12.648 13.5835 10.7497 11.6852 10.7497 9.3335C10.7497 6.98183 12.648 5.0835 14.9997 5.0835ZM14.9997 25.2002C11.458 25.2002 8.32717 23.3868 6.49967 20.6385C6.54217 17.8193 12.1663 16.2752 14.9997 16.2752C17.8188 16.2752 23.4572 17.8193 23.4997 20.6385C21.6722 23.3868 18.5413 25.2002 14.9997 25.2002Z" fill="#0D1C41"/>
</svg>
